<svg width="8" height="12" viewBox="0 0 8 12" fill="none" xmlns="http://www.w3.org/2000/svg">
<path d="M6.82715 7.3358L4.32465 9.84413L1.82215 7.3358C1.71231 7.22595 1.56333 7.16425 1.40799 7.16425C1.25264 7.16425 1.10366 7.22595 0.993819 7.3358C0.883975 7.44564 0.822266 7.59462 0.822266 7.74996C0.822266 7.90531 0.883975 8.05429 0.993819 8.16413L3.91049 11.0808C3.96471 11.1355 4.02923 11.1789 4.10032 11.2085C4.1714 11.2381 4.24765 11.2533 4.32465 11.2533C4.40166 11.2533 4.4779 11.2381 4.54899 11.2085C4.62007 11.1789 4.68459 11.1355 4.73882 11.0808L7.65549 8.16413C7.70987 8.10974 7.75302 8.04517 7.78245 7.97411C7.81189 7.90305 7.82704 7.82688 7.82704 7.74996C7.82704 7.67305 7.81189 7.59688 7.78245 7.52582C7.75302 7.45476 7.70987 7.39019 7.65549 7.3358C7.6011 7.28141 7.53653 7.23827 7.46546 7.20883C7.3944 7.17939 7.31824 7.16425 7.24132 7.16425C7.1644 7.16425 7.08824 7.17939 7.01717 7.20883C6.94611 7.23827 6.88154 7.28141 6.82715 7.3358ZM1.82215 4.66413L4.32465 2.1558L6.82715 4.66413C6.88138 4.71881 6.9459 4.7622 7.01698 4.79182C7.08807 4.82143 7.16431 4.83668 7.24132 4.83668C7.31833 4.83668 7.39457 4.82143 7.46566 4.79182C7.53674 4.7622 7.60126 4.71881 7.65549 4.66413C7.71016 4.6099 7.75356 4.54539 7.78317 4.4743C7.81279 4.40322 7.82803 4.32697 7.82803 4.24996C7.82803 4.17296 7.81279 4.09671 7.78317 4.02563C7.75356 3.95454 7.71016 3.89003 7.65549 3.8358L4.73882 0.919131C4.68459 0.864456 4.62007 0.821059 4.54899 0.791444C4.4779 0.761829 4.40166 0.746582 4.32465 0.746582C4.24765 0.746582 4.1714 0.761829 4.10032 0.791444C4.02923 0.821059 3.96471 0.864456 3.91049 0.919131L0.993819 3.8358C0.93943 3.89019 0.896286 3.95476 0.866851 4.02582C0.837416 4.09688 0.822266 4.17305 0.822266 4.24996C0.822266 4.40531 0.883975 4.55429 0.993819 4.66413C1.10366 4.77398 1.25264 4.83568 1.40799 4.83568C1.56333 4.83568 1.71231 4.77398 1.82215 4.66413Z" fill="#5C5C5E"/>
</svg>
