<svg width="16" height="16" viewBox="0 0 16 16" fill="none" xmlns="http://www.w3.org/2000/svg">
<path d="M6.62451 13.635H8.49951V10.26H9.62451V6.81001C9.62451 6.47251 9.44639 6.21313 9.09014 6.03188C8.73389 5.85063 8.22451 5.76001 7.56201 5.76001C6.89951 5.76001 6.39014 5.85063 6.03389 6.03188C5.67764 6.21313 5.49951 6.47251 5.49951 6.81001V10.26H6.62451V13.635ZM7.56201 15.885C6.53701 15.885 5.56826 15.6881 4.65576 15.2944C3.74326 14.9006 2.94639 14.3631 2.26514 13.6819C1.58389 13.0006 1.04639 12.2038 0.652637 11.2913C0.258887 10.3788 0.0620117 9.41001 0.0620117 8.38501C0.0620117 7.34751 0.258887 6.37563 0.652637 5.46938C1.04639 4.56313 1.58389 3.76938 2.26514 3.08813C2.94639 2.40688 3.74326 1.86938 4.65576 1.47563C5.56826 1.08188 6.53701 0.88501 7.56201 0.88501C8.59951 0.88501 9.57139 1.08188 10.4776 1.47563C11.3839 1.86938 12.1776 2.40688 12.8589 3.08813C13.5401 3.76938 14.0776 4.56313 14.4714 5.46938C14.8651 6.37563 15.062 7.34751 15.062 8.38501C15.062 9.41001 14.8651 10.3788 14.4714 11.2913C14.0776 12.2038 13.5401 13.0006 12.8589 13.6819C12.1776 14.3631 11.3839 14.9006 10.4776 15.2944C9.57139 15.6881 8.59951 15.885 7.56201 15.885ZM7.56201 14.385C9.22451 14.385 10.6401 13.8006 11.8089 12.6319C12.9776 11.4631 13.562 10.0475 13.562 8.38501C13.562 6.72251 12.9776 5.30688 11.8089 4.13813C10.6401 2.96938 9.22451 2.38501 7.56201 2.38501C5.89951 2.38501 4.48389 2.96938 3.31514 4.13813C2.14639 5.30688 1.56201 6.72251 1.56201 8.38501C1.56201 10.0475 2.14639 11.4631 3.31514 12.6319C4.48389 13.8006 5.89951 14.385 7.56201 14.385ZM7.56201 5.38501C7.88701 5.38501 8.15576 5.27876 8.36826 5.06626C8.58076 4.85376 8.68701 4.58501 8.68701 4.26001C8.68701 3.93501 8.58076 3.66626 8.36826 3.45376C8.15576 3.24126 7.88701 3.13501 7.56201 3.13501C7.23701 3.13501 6.96826 3.24126 6.75576 3.45376C6.54326 3.66626 6.43701 3.93501 6.43701 4.26001C6.43701 4.58501 6.54326 4.85376 6.75576 5.06626C6.96826 5.27876 7.23701 5.38501 7.56201 5.38501Z" fill="#776AE6"/>
</svg>
