<svg width="33" height="32" viewBox="0 0 33 32" fill="none" xmlns="http://www.w3.org/2000/svg">
<g clip-path="url(#clip0_394_8068)">
<mask id="mask0_394_8068" style="mask-type:luminance" maskUnits="userSpaceOnUse" x="0" y="0" width="33" height="32">
<path d="M32.7419 0H0.741943V32H32.7419V0Z" fill="white"/>
</mask>
<g mask="url(#mask0_394_8068)">
<path d="M32.2657 19.5669C30.1616 28.0066 21.6137 33.1428 13.173 31.0382C4.73591 28.9341 -0.400337 20.3856 1.70477 11.9465C3.8079 3.50587 12.3558 -1.63086 20.794 0.473263C29.2341 2.57739 34.3698 11.1268 32.2657 19.5669Z" fill="white" fill-opacity="0.06"/>
<path d="M23.931 13.5116C24.2446 11.4153 22.6486 10.2884 20.4662 9.53663L21.1741 6.697L19.4456 6.26623L18.7564 9.03103C18.302 8.9178 17.8353 8.81097 17.3715 8.70513L18.0657 5.9221L16.3382 5.49133L15.6298 8.32998C15.2536 8.24431 14.8844 8.15965 14.526 8.07054L14.528 8.06168L12.1442 7.46647L11.6844 9.31262C11.6844 9.31262 12.9669 9.60653 12.9398 9.62475C13.6398 9.79952 13.7664 10.2628 13.7452 10.6301L12.9388 13.865C12.987 13.8773 13.0496 13.8951 13.1185 13.9226C13.0609 13.9084 12.9994 13.8926 12.9359 13.8773L11.8055 18.409C11.7198 18.6217 11.5027 18.9407 11.0134 18.8196C11.0306 18.8447 9.75703 18.506 9.75703 18.506L8.89893 20.4846L11.1483 21.0453C11.5667 21.1502 11.9768 21.26 12.3805 21.3634L11.6652 24.2355L13.3917 24.6663L14.1002 21.8247C14.5718 21.9527 15.0296 22.0708 15.4776 22.1821L14.7717 25.0104L16.5002 25.4412L17.2155 22.5744C20.1629 23.1322 22.3793 22.9072 23.3122 20.2414C24.064 18.0949 23.2748 16.8568 21.724 16.0494C22.8534 15.789 23.7041 15.0461 23.931 13.5116ZM19.9817 19.0495C19.4476 21.196 15.8336 20.0356 14.6619 19.7447L15.611 15.9396C16.7827 16.232 20.54 16.811 19.9817 19.0495ZM20.5164 13.4805C20.029 15.433 17.021 14.441 16.0453 14.1978L16.9058 10.7468C17.8816 10.99 21.024 11.4439 20.5164 13.4805Z" fill="white"/>
</g>
</g>
<defs>
<clipPath id="clip0_394_8068">
<rect width="32" height="32" fill="white" transform="translate(0.741943)"/>
</clipPath>
</defs>
</svg>
