<svg width="19" height="18" viewBox="0 0 19 18" fill="none" xmlns="http://www.w3.org/2000/svg">
<path d="M15.7373 16.3125H7.8623C7.24355 16.3125 6.7373 15.8062 6.7373 15.1875V12.9375H7.8623V15.1875H15.7373V7.3125H13.4873V6.1875H15.7373C16.3561 6.1875 16.8623 6.69375 16.8623 7.3125V15.1875C16.8623 15.8062 16.3561 16.3125 15.7373 16.3125Z" fill="#776AE6"/>
<path d="M11.7998 9.5625C11.5186 9.5625 11.2936 9.61875 11.0686 9.73125L8.81855 7.48125C8.93105 7.25625 8.9873 7.03125 8.9873 6.75C8.9873 5.79375 8.25605 5.0625 7.2998 5.0625C6.34355 5.0625 5.6123 5.79375 5.6123 6.75C5.6123 7.70625 6.34355 8.4375 7.2998 8.4375C7.58105 8.4375 7.80605 8.38125 8.03105 8.26875L10.2811 10.5188C10.1686 10.7438 10.1123 10.9688 10.1123 11.25C10.1123 12.2063 10.8436 12.9375 11.7998 12.9375C12.7561 12.9375 13.4873 12.2063 13.4873 11.25C13.4873 10.2937 12.7561 9.5625 11.7998 9.5625ZM6.7373 6.75C6.7373 6.4125 6.9623 6.1875 7.2998 6.1875C7.6373 6.1875 7.8623 6.4125 7.8623 6.75C7.8623 7.0875 7.6373 7.3125 7.2998 7.3125C6.9623 7.3125 6.7373 7.0875 6.7373 6.75ZM11.7998 11.8125C11.4623 11.8125 11.2373 11.5875 11.2373 11.25C11.2373 10.9125 11.4623 10.6875 11.7998 10.6875C12.1373 10.6875 12.3623 10.9125 12.3623 11.25C12.3623 11.5875 12.1373 11.8125 11.7998 11.8125Z" fill="#776AE6"/>
<path d="M3.3623 1.6875H11.2373C11.8561 1.6875 12.3623 2.19375 12.3623 2.8125V5.0625H11.2373V2.8125H3.3623V10.6875H5.6123V11.8125H3.3623C2.74355 11.8125 2.2373 11.3062 2.2373 10.6875V2.8125C2.2373 2.19375 2.74355 1.6875 3.3623 1.6875Z" fill="#776AE6"/>
</svg>
