<svg width="251" height="180" viewBox="0 0 251 180" fill="none" xmlns="http://www.w3.org/2000/svg">
<g filter="url(#filter0_ddi_809_272)">
<path d="M93.4868 40.4529C100.273 38.2479 107.364 37.1248 114.5 37.1248V77.9248C111.646 77.9248 108.809 78.374 106.095 79.256L93.4868 40.4529Z" fill="#B1A6F3"/>
</g>
<g filter="url(#filter1_ddi_809_272)">
<path d="M46.5 105.125C46.5 90.7646 51.0461 76.773 59.4868 65.1554C67.9275 53.5377 79.8295 44.8905 93.4868 40.4529L106.095 79.256C100.632 81.031 95.871 84.4899 92.4947 89.137C89.1185 93.784 87.3 99.3807 87.3 105.125L46.5 105.125Z" fill="#CEC6F9"/>
</g>
<g filter="url(#filter2_ddi_809_272)">
<path d="M114.5 37.1248C123.43 37.1248 132.272 38.8836 140.522 42.3009C148.773 45.7183 156.269 50.7271 162.583 57.0415C168.898 63.3559 173.906 70.8521 177.324 79.1023C180.741 87.3524 182.5 96.1949 182.5 105.125C182.5 114.055 180.741 122.897 177.324 131.147C173.906 139.397 168.898 146.894 162.583 153.208C156.269 159.522 148.773 164.531 140.522 167.949C132.272 171.366 123.43 173.125 114.5 173.125V132.325C118.072 132.325 121.609 131.621 124.909 130.254C128.209 128.887 131.208 126.884 133.733 124.358C136.259 121.832 138.263 118.834 139.63 115.534C140.996 112.234 141.7 108.697 141.7 105.125C141.7 101.553 140.996 98.0158 139.63 94.7158C138.263 91.4157 136.259 88.4172 133.733 85.8914C131.208 83.3657 128.209 81.3622 124.909 79.9952C121.609 78.6283 118.072 77.9248 114.5 77.9248V37.1248Z" fill="#776AE6"/>
</g>
<g filter="url(#filter3_ddi_809_272)">
<path d="M114.5 173.125C105.57 173.125 96.7277 171.366 88.4775 167.949C80.2274 164.531 72.7311 159.522 66.4167 153.208C60.1024 146.894 55.0935 139.397 51.6762 131.147C48.2589 122.897 46.5 114.055 46.5 105.125L87.3 105.125C87.3 108.697 88.0035 112.234 89.3705 115.534C90.7374 118.834 92.7409 121.832 95.2667 124.358C97.7924 126.884 100.791 128.887 104.091 130.254C107.391 131.621 110.928 132.325 114.5 132.325V173.125Z" fill="#594DC5"/>
</g>
<path d="M187.386 56.7688C186.754 56.7688 186.174 56.6568 185.646 56.4328C185.118 56.2008 184.658 55.8808 184.266 55.4728C183.882 55.0568 183.582 54.5688 183.366 54.0088C183.15 53.4488 183.042 52.8328 183.042 52.1608C183.042 51.4888 183.15 50.8728 183.366 50.3128C183.582 49.7528 183.882 49.2648 184.266 48.8488C184.658 48.4328 185.118 48.1128 185.646 47.8888C186.174 47.6568 186.754 47.5408 187.386 47.5408C187.994 47.5408 188.538 47.6488 189.018 47.8648C189.506 48.0808 189.914 48.3608 190.242 48.7048C190.578 49.0408 190.818 49.3968 190.962 49.7728L190.062 50.1688C189.838 49.6488 189.494 49.2328 189.03 48.9208C188.574 48.6008 188.026 48.4408 187.386 48.4408C186.73 48.4408 186.146 48.5968 185.634 48.9088C185.122 49.2208 184.722 49.6568 184.434 50.2168C184.146 50.7688 184.002 51.4168 184.002 52.1608C184.002 52.8968 184.146 53.5448 184.434 54.1048C184.722 54.6648 185.122 55.1008 185.634 55.4128C186.146 55.7168 186.73 55.8688 187.386 55.8688C188.026 55.8688 188.574 55.7128 189.03 55.4008C189.494 55.0888 189.838 54.6728 190.062 54.1528L190.962 54.5488C190.818 54.9168 190.578 55.2728 190.242 55.6168C189.914 55.9528 189.506 56.2288 189.018 56.4448C188.538 56.6608 187.994 56.7688 187.386 56.7688ZM195.444 56.7688C194.836 56.7688 194.284 56.6248 193.788 56.3368C193.292 56.0408 192.896 55.6408 192.6 55.1368C192.312 54.6248 192.168 54.0448 192.168 53.3968C192.168 52.7568 192.312 52.1848 192.6 51.6808C192.888 51.1768 193.276 50.7808 193.764 50.4928C194.26 50.1968 194.82 50.0488 195.444 50.0488C196.068 50.0488 196.624 50.1928 197.112 50.4808C197.608 50.7688 197.996 51.1648 198.276 51.6688C198.564 52.1728 198.708 52.7488 198.708 53.3968C198.708 54.0528 198.56 54.6368 198.264 55.1488C197.968 55.6528 197.572 56.0488 197.076 56.3368C196.588 56.6248 196.044 56.7688 195.444 56.7688ZM195.444 55.8688C195.876 55.8688 196.264 55.7608 196.608 55.5448C196.96 55.3288 197.236 55.0328 197.436 54.6568C197.644 54.2808 197.748 53.8608 197.748 53.3968C197.748 52.9328 197.644 52.5168 197.436 52.1488C197.236 51.7808 196.96 51.4888 196.608 51.2728C196.264 51.0568 195.876 50.9488 195.444 50.9488C195.012 50.9488 194.62 51.0568 194.268 51.2728C193.924 51.4888 193.648 51.7808 193.44 52.1488C193.232 52.5168 193.128 52.9328 193.128 53.3968C193.128 53.8608 193.232 54.2808 193.44 54.6568C193.648 55.0328 193.924 55.3288 194.268 55.5448C194.62 55.7608 195.012 55.8688 195.444 55.8688ZM200.295 56.6248V50.1928H201.195V51.4168L201.051 51.2368C201.227 50.8608 201.487 50.5688 201.831 50.3608C202.183 50.1528 202.567 50.0488 202.983 50.0488C203.479 50.0488 203.927 50.1888 204.327 50.4688C204.727 50.7488 205.011 51.1128 205.179 51.5608L204.927 51.5728C205.087 51.0768 205.363 50.7008 205.755 50.4448C206.155 50.1808 206.595 50.0488 207.075 50.0488C207.507 50.0488 207.903 50.1528 208.263 50.3608C208.631 50.5688 208.923 50.8568 209.139 51.2248C209.363 51.5848 209.475 51.9928 209.475 52.4488V56.6248H208.575V52.7968C208.575 52.4048 208.503 52.0728 208.359 51.8008C208.223 51.5288 208.035 51.3208 207.795 51.1768C207.555 51.0248 207.279 50.9488 206.967 50.9488C206.663 50.9488 206.387 51.0248 206.139 51.1768C205.891 51.3208 205.695 51.5328 205.551 51.8128C205.407 52.0848 205.335 52.4128 205.335 52.7968V56.6248H204.435V52.7968C204.435 52.4048 204.363 52.0728 204.219 51.8008C204.083 51.5288 203.895 51.3208 203.655 51.1768C203.415 51.0248 203.139 50.9488 202.827 50.9488C202.515 50.9488 202.235 51.0248 201.987 51.1768C201.747 51.3208 201.555 51.5328 201.411 51.8128C201.267 52.0848 201.195 52.4128 201.195 52.7968V56.6248H200.295ZM211.194 56.6248V50.1928H212.094V51.4168L211.95 51.2368C212.126 50.8608 212.386 50.5688 212.73 50.3608C213.082 50.1528 213.466 50.0488 213.882 50.0488C214.378 50.0488 214.826 50.1888 215.226 50.4688C215.626 50.7488 215.91 51.1128 216.078 51.5608L215.826 51.5728C215.986 51.0768 216.262 50.7008 216.654 50.4448C217.054 50.1808 217.494 50.0488 217.974 50.0488C218.406 50.0488 218.802 50.1528 219.162 50.3608C219.53 50.5688 219.822 50.8568 220.038 51.2248C220.262 51.5848 220.374 51.9928 220.374 52.4488V56.6248H219.474V52.7968C219.474 52.4048 219.402 52.0728 219.258 51.8008C219.122 51.5288 218.934 51.3208 218.694 51.1768C218.454 51.0248 218.178 50.9488 217.866 50.9488C217.562 50.9488 217.286 51.0248 217.038 51.1768C216.79 51.3208 216.594 51.5328 216.45 51.8128C216.306 52.0848 216.234 52.4128 216.234 52.7968V56.6248H215.334V52.7968C215.334 52.4048 215.262 52.0728 215.118 51.8008C214.982 51.5288 214.794 51.3208 214.554 51.1768C214.314 51.0248 214.038 50.9488 213.726 50.9488C213.414 50.9488 213.134 51.0248 212.886 51.1768C212.646 51.3208 212.454 51.5328 212.31 51.8128C212.166 52.0848 212.094 52.4128 212.094 52.7968V56.6248H211.194ZM224.372 56.7688C223.924 56.7688 223.516 56.6648 223.148 56.4568C222.78 56.2408 222.488 55.9448 222.272 55.5688C222.064 55.1848 221.96 54.7448 221.96 54.2488V50.1928H222.86V54.1408C222.86 54.4848 222.928 54.7888 223.064 55.0528C223.208 55.3088 223.404 55.5088 223.652 55.6528C223.908 55.7968 224.2 55.8688 224.528 55.8688C224.856 55.8688 225.148 55.7968 225.404 55.6528C225.66 55.5008 225.86 55.2888 226.004 55.0168C226.148 54.7368 226.22 54.4048 226.22 54.0208V50.1928H227.12V56.6248H226.22V55.3768L226.424 55.4248C226.272 55.8408 226.012 56.1688 225.644 56.4088C225.276 56.6488 224.852 56.7688 224.372 56.7688ZM228.971 56.6248V50.1928H229.871V51.4408L229.667 51.3928C229.827 50.9768 230.087 50.6488 230.447 50.4088C230.815 50.1688 231.239 50.0488 231.719 50.0488C232.175 50.0488 232.583 50.1528 232.943 50.3608C233.311 50.5688 233.599 50.8568 233.807 51.2248C234.023 51.5848 234.131 51.9928 234.131 52.4488V56.6248H233.231V52.7968C233.231 52.4048 233.159 52.0728 233.015 51.8008C232.879 51.5288 232.683 51.3208 232.427 51.1768C232.179 51.0248 231.891 50.9488 231.563 50.9488C231.235 50.9488 230.943 51.0248 230.687 51.1768C230.431 51.3208 230.231 51.5328 230.087 51.8128C229.943 52.0848 229.871 52.4128 229.871 52.7968V56.6248H228.971ZM235.85 56.6248V50.1928H236.75V56.6248H235.85ZM235.85 49.0048V47.6848H236.75V49.0048H235.85ZM241.052 56.6968C240.476 56.6968 240.032 56.5288 239.72 56.1928C239.408 55.8568 239.252 55.3768 239.252 54.7528V51.0928H238.064V50.1928H238.364C238.636 50.1928 238.852 50.1048 239.012 49.9288C239.172 49.7448 239.252 49.5168 239.252 49.2448V48.7048H240.152V50.1928H241.568V51.0928H240.152V54.7528C240.152 54.9688 240.184 55.1608 240.248 55.3288C240.312 55.4888 240.42 55.6168 240.572 55.7128C240.732 55.8088 240.944 55.8568 241.208 55.8568C241.272 55.8568 241.348 55.8528 241.436 55.8448C241.524 55.8368 241.6 55.8288 241.664 55.8208V56.6248C241.568 56.6488 241.46 56.6648 241.34 56.6728C241.22 56.6888 241.124 56.6968 241.052 56.6968ZM243.376 59.2648C243.248 59.2648 243.116 59.2528 242.98 59.2288C242.852 59.2128 242.724 59.1808 242.596 59.1328V58.2928C242.676 58.3008 242.776 58.3128 242.896 58.3288C243.024 58.3528 243.152 58.3648 243.28 58.3648C243.672 58.3648 243.972 58.2808 244.18 58.1128C244.388 57.9528 244.592 57.6408 244.792 57.1768L245.2 56.2168L245.176 57.0088L242.452 50.1928H243.424L245.656 55.8208H245.404L247.624 50.1928H248.62L245.68 57.4408C245.552 57.7528 245.388 58.0488 245.188 58.3288C244.996 58.6088 244.752 58.8328 244.456 59.0008C244.16 59.1768 243.8 59.2648 243.376 59.2648Z" fill="#FEFEFE"/>
<path d="M185.838 71.7688C185.366 71.7688 184.922 71.6848 184.506 71.5168C184.09 71.3408 183.73 71.0968 183.426 70.7848C183.122 70.4728 182.906 70.0968 182.778 69.6568L183.966 69.2008C184.118 69.6248 184.366 69.9488 184.71 70.1728C185.054 70.3968 185.43 70.5088 185.838 70.5088C186.174 70.5088 186.47 70.4328 186.726 70.2808C186.982 70.1288 187.182 69.9208 187.326 69.6568C187.478 69.3928 187.554 69.0928 187.554 68.7568C187.554 68.4128 187.478 68.1128 187.326 67.8568C187.182 67.5928 186.982 67.3888 186.726 67.2448C186.47 67.0928 186.174 67.0168 185.838 67.0168C185.502 67.0168 185.194 67.0928 184.914 67.2448C184.634 67.3968 184.43 67.6008 184.302 67.8568L183.162 67.6048L183.858 62.6848H188.622V63.8848H184.41L184.95 63.2968L184.434 67.0648L183.99 66.7648C184.23 66.4288 184.522 66.1848 184.866 66.0328C185.21 65.8808 185.602 65.8048 186.042 65.8048C186.626 65.8048 187.134 65.9368 187.566 66.2008C188.006 66.4568 188.346 66.8088 188.586 67.2568C188.834 67.6968 188.958 68.1968 188.958 68.7568C188.958 69.3248 188.822 69.8368 188.55 70.2928C188.278 70.7488 187.906 71.1088 187.434 71.3728C186.97 71.6368 186.438 71.7688 185.838 71.7688ZM193.941 71.7688C193.229 71.7688 192.605 71.5768 192.069 71.1928C191.533 70.8008 191.113 70.2608 190.809 69.5728C190.513 68.8768 190.365 68.0688 190.365 67.1488C190.365 66.2208 190.513 65.4128 190.809 64.7248C191.113 64.0368 191.529 63.5008 192.057 63.1168C192.593 62.7328 193.217 62.5408 193.929 62.5408C194.641 62.5408 195.261 62.7328 195.789 63.1168C196.325 63.5008 196.741 64.0408 197.037 64.7368C197.341 65.4248 197.493 66.2288 197.493 67.1488C197.493 68.0688 197.345 68.8768 197.049 69.5728C196.753 70.2608 196.337 70.8008 195.801 71.1928C195.273 71.5768 194.653 71.7688 193.941 71.7688ZM193.941 70.4728C194.381 70.4728 194.761 70.3368 195.081 70.0648C195.401 69.7928 195.649 69.4088 195.825 68.9128C196.001 68.4168 196.089 67.8288 196.089 67.1488C196.089 66.4688 196.001 65.8808 195.825 65.3848C195.649 64.8888 195.401 64.5048 195.081 64.2328C194.761 63.9608 194.377 63.8248 193.929 63.8248C193.489 63.8248 193.109 63.9608 192.789 64.2328C192.469 64.5048 192.221 64.8888 192.045 65.3848C191.869 65.8808 191.781 66.4688 191.781 67.1488C191.781 67.8208 191.869 68.4088 192.045 68.9128C192.221 69.4088 192.469 69.7928 192.789 70.0648C193.117 70.3368 193.501 70.4728 193.941 70.4728ZM199.999 71.6248L207.271 62.6848H208.783L201.511 71.6248H199.999ZM201.367 67.2208C200.927 67.2208 200.531 67.1168 200.179 66.9088C199.827 66.6928 199.543 66.4088 199.327 66.0568C199.119 65.7048 199.015 65.3128 199.015 64.8808C199.015 64.4488 199.119 64.0568 199.327 63.7048C199.543 63.3448 199.827 63.0608 200.179 62.8528C200.531 62.6448 200.927 62.5408 201.367 62.5408C201.807 62.5408 202.203 62.6448 202.555 62.8528C202.907 63.0608 203.187 63.3448 203.395 63.7048C203.603 64.0568 203.707 64.4488 203.707 64.8808C203.707 65.3128 203.603 65.7048 203.395 66.0568C203.187 66.4088 202.907 66.6928 202.555 66.9088C202.203 67.1168 201.807 67.2208 201.367 67.2208ZM201.367 66.1288C201.615 66.1288 201.827 66.0688 202.003 65.9488C202.187 65.8288 202.327 65.6728 202.423 65.4808C202.519 65.2888 202.567 65.0888 202.567 64.8808C202.567 64.6648 202.519 64.4648 202.423 64.2808C202.327 64.0888 202.187 63.9328 202.003 63.8128C201.827 63.6928 201.615 63.6328 201.367 63.6328C201.127 63.6328 200.915 63.6928 200.731 63.8128C200.547 63.9328 200.403 64.0888 200.299 64.2808C200.203 64.4648 200.155 64.6648 200.155 64.8808C200.155 65.0888 200.203 65.2888 200.299 65.4808C200.403 65.6728 200.547 65.8288 200.731 65.9488C200.915 66.0688 201.127 66.1288 201.367 66.1288ZM207.355 71.7688C206.915 71.7688 206.515 71.6648 206.155 71.4568C205.803 71.2408 205.523 70.9568 205.315 70.6048C205.107 70.2528 205.003 69.8608 205.003 69.4288C205.003 68.9968 205.107 68.6048 205.315 68.2528C205.523 67.8928 205.803 67.6088 206.155 67.4008C206.515 67.1928 206.915 67.0888 207.355 67.0888C207.795 67.0888 208.191 67.1928 208.543 67.4008C208.895 67.6088 209.175 67.8928 209.383 68.2528C209.591 68.6048 209.695 68.9968 209.695 69.4288C209.695 69.8608 209.591 70.2528 209.383 70.6048C209.175 70.9568 208.895 71.2408 208.543 71.4568C208.191 71.6648 207.795 71.7688 207.355 71.7688ZM207.355 70.6768C207.603 70.6768 207.815 70.6168 207.991 70.4968C208.167 70.3768 208.303 70.2208 208.399 70.0288C208.503 69.8368 208.555 69.6368 208.555 69.4288C208.555 69.2128 208.503 69.0128 208.399 68.8288C208.303 68.6368 208.167 68.4808 207.991 68.3608C207.815 68.2408 207.603 68.1808 207.355 68.1808C207.115 68.1808 206.903 68.2408 206.719 68.3608C206.535 68.4808 206.391 68.6368 206.287 68.8288C206.191 69.0128 206.143 69.2128 206.143 69.4288C206.143 69.6368 206.191 69.8368 206.287 70.0288C206.391 70.2208 206.535 70.3768 206.719 70.4968C206.903 70.6168 207.115 70.6768 207.355 70.6768Z" fill="#9A8EED"/>
<path d="M157 85.6248L182 59.6248H207.5" stroke="#9A8EED"/>
<path d="M1.056 64.1248V55.1848H4.128C4.712 55.1848 5.224 55.3008 5.664 55.5328C6.104 55.7568 6.444 56.0768 6.684 56.4928C6.932 56.9008 7.056 57.3768 7.056 57.9208C7.056 58.5528 6.888 59.0928 6.552 59.5408C6.224 59.9888 5.776 60.3048 5.208 60.4888L7.296 64.1248H6.168L3.984 60.2728L4.632 60.6448H2.016V64.1248H1.056ZM2.016 59.7448H4.176C4.56 59.7448 4.896 59.6728 5.184 59.5288C5.472 59.3768 5.696 59.1648 5.856 58.8928C6.016 58.6128 6.096 58.2848 6.096 57.9088C6.096 57.5328 6.016 57.2088 5.856 56.9368C5.696 56.6648 5.472 56.4568 5.184 56.3128C4.896 56.1608 4.56 56.0848 4.176 56.0848H2.016V59.7448ZM11.1762 64.2688C10.5762 64.2688 10.0322 64.1248 9.54422 63.8368C9.06422 63.5408 8.68422 63.1368 8.40422 62.6248C8.12422 62.1128 7.98422 61.5328 7.98422 60.8848C7.98422 60.2368 8.12022 59.6648 8.39222 59.1688C8.66422 58.6648 9.03222 58.2688 9.49622 57.9808C9.96822 57.6928 10.4962 57.5488 11.0802 57.5488C11.5442 57.5488 11.9562 57.6368 12.3162 57.8128C12.6842 57.9808 12.9962 58.2128 13.2522 58.5088C13.5082 58.7968 13.7042 59.1248 13.8402 59.4928C13.9762 59.8528 14.0442 60.2248 14.0442 60.6088C14.0442 60.6888 14.0402 60.7808 14.0322 60.8848C14.0242 60.9808 14.0122 61.0808 13.9962 61.1848H8.56022V60.3448H13.4802L13.0482 60.7048C13.1202 60.2648 13.0682 59.8728 12.8922 59.5288C12.7242 59.1768 12.4802 58.9008 12.1602 58.7008C11.8402 58.4928 11.4802 58.3888 11.0802 58.3888C10.6802 58.3888 10.3082 58.4928 9.96422 58.7008C9.62822 58.9088 9.36422 59.2008 9.17222 59.5768C8.98022 59.9448 8.90422 60.3848 8.94422 60.8968C8.90422 61.4088 8.98422 61.8568 9.18422 62.2408C9.39222 62.6168 9.67222 62.9088 10.0242 63.1168C10.3842 63.3248 10.7682 63.4288 11.1762 63.4288C11.6482 63.4288 12.0442 63.3168 12.3642 63.0928C12.6842 62.8688 12.9442 62.5888 13.1442 62.2528L13.9122 62.6608C13.7842 62.9488 13.5882 63.2168 13.3242 63.4648C13.0602 63.7048 12.7442 63.9008 12.3762 64.0528C12.0162 64.1968 11.6162 64.2688 11.1762 64.2688ZM17.863 64.2688C17.247 64.2688 16.707 64.1128 16.243 63.8008C15.779 63.4888 15.443 63.0648 15.235 62.5288L15.991 62.1688C16.175 62.5608 16.431 62.8728 16.759 63.1048C17.095 63.3368 17.463 63.4528 17.863 63.4528C18.247 63.4528 18.571 63.3608 18.835 63.1768C19.099 62.9848 19.231 62.7368 19.231 62.4328C19.231 62.2088 19.167 62.0328 19.039 61.9048C18.911 61.7688 18.763 61.6648 18.595 61.5928C18.427 61.5208 18.279 61.4688 18.151 61.4368L17.227 61.1728C16.635 61.0048 16.207 60.7688 15.943 60.4648C15.679 60.1608 15.547 59.8088 15.547 59.4088C15.547 59.0328 15.643 58.7048 15.835 58.4248C16.027 58.1448 16.287 57.9288 16.615 57.7768C16.943 57.6248 17.307 57.5488 17.707 57.5488C18.251 57.5488 18.743 57.6928 19.183 57.9808C19.631 58.2608 19.947 58.6528 20.131 59.1568L19.363 59.5168C19.203 59.1568 18.971 58.8768 18.667 58.6768C18.371 58.4688 18.039 58.3648 17.671 58.3648C17.311 58.3648 17.023 58.4568 16.807 58.6408C16.591 58.8248 16.483 59.0568 16.483 59.3368C16.483 59.5528 16.539 59.7248 16.651 59.8528C16.763 59.9808 16.891 60.0768 17.035 60.1408C17.187 60.2048 17.319 60.2528 17.431 60.2848L18.499 60.5968C19.019 60.7488 19.423 60.9848 19.711 61.3048C20.007 61.6248 20.155 62.0008 20.155 62.4328C20.155 62.7848 20.055 63.1008 19.855 63.3808C19.663 63.6608 19.395 63.8808 19.051 64.0408C18.707 64.1928 18.311 64.2688 17.863 64.2688ZM24.6645 64.2688C24.0645 64.2688 23.5205 64.1248 23.0325 63.8368C22.5525 63.5408 22.1725 63.1368 21.8925 62.6248C21.6125 62.1128 21.4725 61.5328 21.4725 60.8848C21.4725 60.2368 21.6085 59.6648 21.8805 59.1688C22.1525 58.6648 22.5205 58.2688 22.9845 57.9808C23.4565 57.6928 23.9845 57.5488 24.5685 57.5488C25.0325 57.5488 25.4445 57.6368 25.8045 57.8128C26.1725 57.9808 26.4845 58.2128 26.7405 58.5088C26.9965 58.7968 27.1925 59.1248 27.3285 59.4928C27.4645 59.8528 27.5325 60.2248 27.5325 60.6088C27.5325 60.6888 27.5285 60.7808 27.5205 60.8848C27.5125 60.9808 27.5005 61.0808 27.4845 61.1848H22.0485V60.3448H26.9685L26.5365 60.7048C26.6085 60.2648 26.5565 59.8728 26.3805 59.5288C26.2125 59.1768 25.9685 58.9008 25.6485 58.7008C25.3285 58.4928 24.9685 58.3888 24.5685 58.3888C24.1685 58.3888 23.7965 58.4928 23.4525 58.7008C23.1165 58.9088 22.8525 59.2008 22.6605 59.5768C22.4685 59.9448 22.3925 60.3848 22.4325 60.8968C22.3925 61.4088 22.4725 61.8568 22.6725 62.2408C22.8805 62.6168 23.1605 62.9088 23.5125 63.1168C23.8725 63.3248 24.2565 63.4288 24.6645 63.4288C25.1365 63.4288 25.5325 63.3168 25.8525 63.0928C26.1725 62.8688 26.4325 62.5888 26.6325 62.2528L27.4005 62.6608C27.2725 62.9488 27.0765 63.2168 26.8125 63.4648C26.5485 63.7048 26.2325 63.9008 25.8645 64.0528C25.5045 64.1968 25.1045 64.2688 24.6645 64.2688ZM29.1193 64.1248V57.6928H30.0193V58.7488L29.8993 58.5928C30.0513 58.2888 30.2793 58.0488 30.5833 57.8728C30.8953 57.6968 31.2713 57.6088 31.7113 57.6088H32.1193V58.5088H31.5553C31.0913 58.5088 30.7193 58.6528 30.4393 58.9408C30.1593 59.2288 30.0193 59.6368 30.0193 60.1648V64.1248H29.1193ZM34.89 64.1248L32.382 57.6928H33.39L35.502 63.3328H35.178L37.302 57.6928H38.322L35.79 64.1248H34.89ZM42.184 64.2688C41.584 64.2688 41.04 64.1248 40.552 63.8368C40.072 63.5408 39.692 63.1368 39.412 62.6248C39.132 62.1128 38.992 61.5328 38.992 60.8848C38.992 60.2368 39.128 59.6648 39.4 59.1688C39.672 58.6648 40.04 58.2688 40.504 57.9808C40.976 57.6928 41.504 57.5488 42.088 57.5488C42.552 57.5488 42.964 57.6368 43.324 57.8128C43.692 57.9808 44.004 58.2128 44.26 58.5088C44.516 58.7968 44.712 59.1248 44.848 59.4928C44.984 59.8528 45.052 60.2248 45.052 60.6088C45.052 60.6888 45.048 60.7808 45.04 60.8848C45.032 60.9808 45.02 61.0808 45.004 61.1848H39.568V60.3448H44.488L44.056 60.7048C44.128 60.2648 44.076 59.8728 43.9 59.5288C43.732 59.1768 43.488 58.9008 43.168 58.7008C42.848 58.4928 42.488 58.3888 42.088 58.3888C41.688 58.3888 41.316 58.4928 40.972 58.7008C40.636 58.9088 40.372 59.2008 40.18 59.5768C39.988 59.9448 39.912 60.3848 39.952 60.8968C39.912 61.4088 39.992 61.8568 40.192 62.2408C40.4 62.6168 40.68 62.9088 41.032 63.1168C41.392 63.3248 41.776 63.4288 42.184 63.4288C42.656 63.4288 43.052 63.3168 43.372 63.0928C43.692 62.8688 43.952 62.5888 44.152 62.2528L44.92 62.6608C44.792 62.9488 44.596 63.2168 44.332 63.4648C44.068 63.7048 43.752 63.9008 43.384 64.0528C43.024 64.1968 42.624 64.2688 42.184 64.2688Z" fill="#FEFEFE"/>
<path d="M0.6 79.1248V78.1048L3.048 75.4888C3.528 74.9768 3.904 74.5648 4.176 74.2528C4.456 73.9328 4.656 73.6528 4.776 73.4128C4.904 73.1728 4.968 72.9208 4.968 72.6568C4.968 72.2248 4.836 71.8928 4.572 71.6608C4.308 71.4208 3.968 71.3008 3.552 71.3008C3.12 71.3008 2.748 71.4248 2.436 71.6728C2.124 71.9128 1.908 72.2648 1.788 72.7288L0.54 72.3688C0.636 71.8968 0.828 71.4888 1.116 71.1448C1.404 70.7928 1.756 70.5208 2.172 70.3288C2.596 70.1368 3.052 70.0408 3.54 70.0408C4.108 70.0408 4.604 70.1488 5.028 70.3648C5.452 70.5728 5.78 70.8648 6.012 71.2408C6.252 71.6168 6.372 72.0528 6.372 72.5488C6.372 72.8768 6.308 73.1968 6.18 73.5088C6.06 73.8128 5.872 74.1368 5.616 74.4808C5.36 74.8168 5.032 75.1968 4.632 75.6208L2.472 77.9248H6.54V79.1248H0.6ZM10.7599 79.2688C10.2879 79.2688 9.84388 79.1848 9.42788 79.0168C9.01188 78.8408 8.65188 78.5968 8.34788 78.2848C8.04388 77.9728 7.82788 77.5968 7.69988 77.1568L8.88788 76.7008C9.03988 77.1248 9.28788 77.4488 9.63188 77.6728C9.97588 77.8968 10.3519 78.0088 10.7599 78.0088C11.0959 78.0088 11.3919 77.9328 11.6479 77.7808C11.9039 77.6288 12.1039 77.4208 12.2479 77.1568C12.3999 76.8928 12.4759 76.5928 12.4759 76.2568C12.4759 75.9128 12.3999 75.6128 12.2479 75.3568C12.1039 75.0928 11.9039 74.8888 11.6479 74.7448C11.3919 74.5928 11.0959 74.5168 10.7599 74.5168C10.4239 74.5168 10.1159 74.5928 9.83588 74.7448C9.55588 74.8968 9.35188 75.1008 9.22388 75.3568L8.08388 75.1048L8.77988 70.1848H13.5439V71.3848H9.33188L9.87188 70.7968L9.35588 74.5648L8.91188 74.2648C9.15188 73.9288 9.44388 73.6848 9.78788 73.5328C10.1319 73.3808 10.5239 73.3048 10.9639 73.3048C11.5479 73.3048 12.0559 73.4368 12.4879 73.7008C12.9279 73.9568 13.2679 74.3088 13.5079 74.7568C13.7559 75.1968 13.8799 75.6968 13.8799 76.2568C13.8799 76.8248 13.7439 77.3368 13.4719 77.7928C13.1999 78.2488 12.8279 78.6088 12.3559 78.8728C11.8919 79.1368 11.3599 79.2688 10.7599 79.2688ZM16.3307 79.1248L23.6027 70.1848H25.1147L17.8427 79.1248H16.3307ZM17.6987 74.7208C17.2587 74.7208 16.8627 74.6168 16.5107 74.4088C16.1587 74.1928 15.8747 73.9088 15.6587 73.5568C15.4507 73.2048 15.3467 72.8128 15.3467 72.3808C15.3467 71.9488 15.4507 71.5568 15.6587 71.2048C15.8747 70.8448 16.1587 70.5608 16.5107 70.3528C16.8627 70.1448 17.2587 70.0408 17.6987 70.0408C18.1387 70.0408 18.5347 70.1448 18.8867 70.3528C19.2387 70.5608 19.5187 70.8448 19.7267 71.2048C19.9347 71.5568 20.0387 71.9488 20.0387 72.3808C20.0387 72.8128 19.9347 73.2048 19.7267 73.5568C19.5187 73.9088 19.2387 74.1928 18.8867 74.4088C18.5347 74.6168 18.1387 74.7208 17.6987 74.7208ZM17.6987 73.6288C17.9467 73.6288 18.1587 73.5688 18.3347 73.4488C18.5187 73.3288 18.6587 73.1728 18.7547 72.9808C18.8507 72.7888 18.8987 72.5888 18.8987 72.3808C18.8987 72.1648 18.8507 71.9648 18.7547 71.7808C18.6587 71.5888 18.5187 71.4328 18.3347 71.3128C18.1587 71.1928 17.9467 71.1328 17.6987 71.1328C17.4587 71.1328 17.2467 71.1928 17.0627 71.3128C16.8787 71.4328 16.7347 71.5888 16.6307 71.7808C16.5347 71.9648 16.4867 72.1648 16.4867 72.3808C16.4867 72.5888 16.5347 72.7888 16.6307 72.9808C16.7347 73.1728 16.8787 73.3288 17.0627 73.4488C17.2467 73.5688 17.4587 73.6288 17.6987 73.6288ZM23.6867 79.2688C23.2467 79.2688 22.8467 79.1648 22.4867 78.9568C22.1347 78.7408 21.8547 78.4568 21.6467 78.1048C21.4387 77.7528 21.3347 77.3608 21.3347 76.9288C21.3347 76.4968 21.4387 76.1048 21.6467 75.7528C21.8547 75.3928 22.1347 75.1088 22.4867 74.9008C22.8467 74.6928 23.2467 74.5888 23.6867 74.5888C24.1267 74.5888 24.5227 74.6928 24.8747 74.9008C25.2267 75.1088 25.5067 75.3928 25.7147 75.7528C25.9227 76.1048 26.0267 76.4968 26.0267 76.9288C26.0267 77.3608 25.9227 77.7528 25.7147 78.1048C25.5067 78.4568 25.2267 78.7408 24.8747 78.9568C24.5227 79.1648 24.1267 79.2688 23.6867 79.2688ZM23.6867 78.1768C23.9347 78.1768 24.1467 78.1168 24.3227 77.9968C24.4987 77.8768 24.6347 77.7208 24.7307 77.5288C24.8347 77.3368 24.8867 77.1368 24.8867 76.9288C24.8867 76.7128 24.8347 76.5128 24.7307 76.3288C24.6347 76.1368 24.4987 75.9808 24.3227 75.8608C24.1467 75.7408 23.9347 75.6808 23.6867 75.6808C23.4467 75.6808 23.2347 75.7408 23.0507 75.8608C22.8667 75.9808 22.7227 76.1368 22.6187 76.3288C22.5227 76.5128 22.4747 76.7128 22.4747 76.9288C22.4747 77.1368 22.5227 77.3368 22.6187 77.5288C22.7227 77.7208 22.8667 77.8768 23.0507 77.9968C23.2347 78.1168 23.4467 78.1768 23.6867 78.1768Z" fill="#9A8EED"/>
<path d="M70.5 90.1248L52 67.1248H0" stroke="#9A8EED"/>
<path d="M2.604 160.375V152.335H0.132V151.435H6.012V152.335H3.564V160.375H2.604ZM9.14888 160.519C8.54888 160.519 8.00488 160.375 7.51688 160.087C7.03688 159.791 6.65688 159.387 6.37688 158.875C6.09688 158.363 5.95688 157.783 5.95688 157.135C5.95688 156.487 6.09288 155.915 6.36488 155.419C6.63688 154.915 7.00488 154.519 7.46888 154.231C7.94088 153.943 8.46888 153.799 9.05288 153.799C9.51688 153.799 9.92888 153.887 10.2889 154.063C10.6569 154.231 10.9689 154.463 11.2249 154.759C11.4809 155.047 11.6769 155.375 11.8129 155.743C11.9489 156.103 12.0169 156.475 12.0169 156.859C12.0169 156.939 12.0129 157.031 12.0049 157.135C11.9969 157.231 11.9849 157.331 11.9689 157.435H6.53288V156.595H11.4529L11.0209 156.955C11.0929 156.515 11.0409 156.123 10.8649 155.779C10.6969 155.427 10.4529 155.151 10.1329 154.951C9.81288 154.743 9.45288 154.639 9.05288 154.639C8.65288 154.639 8.28088 154.743 7.93688 154.951C7.60088 155.159 7.33688 155.451 7.14488 155.827C6.95288 156.195 6.87688 156.635 6.91688 157.147C6.87688 157.659 6.95688 158.107 7.15688 158.491C7.36488 158.867 7.64488 159.159 7.99688 159.367C8.35688 159.575 8.74088 159.679 9.14888 159.679C9.62088 159.679 10.0169 159.567 10.3369 159.343C10.6569 159.119 10.9169 158.839 11.1169 158.503L11.8849 158.911C11.7569 159.199 11.5609 159.467 11.2969 159.715C11.0329 159.955 10.7169 160.151 10.3489 160.303C9.98888 160.447 9.58888 160.519 9.14888 160.519ZM15.3465 160.519C14.9385 160.519 14.5745 160.443 14.2545 160.291C13.9345 160.131 13.6825 159.915 13.4985 159.643C13.3145 159.371 13.2225 159.059 13.2225 158.707C13.2225 158.371 13.2945 158.067 13.4385 157.795C13.5825 157.515 13.8065 157.279 14.1105 157.087C14.4145 156.895 14.8025 156.759 15.2745 156.679L17.7945 156.259V157.075L15.4905 157.459C15.0265 157.539 14.6905 157.687 14.4825 157.903C14.2825 158.119 14.1825 158.375 14.1825 158.671C14.1825 158.959 14.2945 159.203 14.5185 159.403C14.7505 159.603 15.0465 159.703 15.4065 159.703C15.8465 159.703 16.2305 159.611 16.5585 159.427C16.8865 159.235 17.1425 158.979 17.3265 158.659C17.5105 158.339 17.6025 157.983 17.6025 157.591V155.959C17.6025 155.575 17.4625 155.263 17.1825 155.023C16.9025 154.783 16.5385 154.663 16.0905 154.663C15.6985 154.663 15.3545 154.763 15.0585 154.963C14.7625 155.155 14.5425 155.407 14.3985 155.719L13.5825 155.275C13.7025 155.003 13.8905 154.755 14.1465 154.531C14.4105 154.307 14.7105 154.131 15.0465 154.003C15.3825 153.867 15.7305 153.799 16.0905 153.799C16.5625 153.799 16.9785 153.891 17.3385 154.075C17.7065 154.259 17.9905 154.515 18.1905 154.843C18.3985 155.163 18.5025 155.535 18.5025 155.959V160.375H17.6025V159.091L17.7345 159.223C17.6225 159.463 17.4465 159.683 17.2065 159.883C16.9745 160.075 16.6985 160.231 16.3785 160.351C16.0665 160.463 15.7225 160.519 15.3465 160.519ZM20.3537 160.375V153.943H21.2537V155.167L21.1097 154.987C21.2857 154.611 21.5457 154.319 21.8897 154.111C22.2417 153.903 22.6257 153.799 23.0417 153.799C23.5377 153.799 23.9857 153.939 24.3857 154.219C24.7857 154.499 25.0697 154.863 25.2377 155.311L24.9857 155.323C25.1457 154.827 25.4217 154.451 25.8137 154.195C26.2137 153.931 26.6537 153.799 27.1337 153.799C27.5657 153.799 27.9617 153.903 28.3217 154.111C28.6897 154.319 28.9817 154.607 29.1977 154.975C29.4217 155.335 29.5337 155.743 29.5337 156.199V160.375H28.6337V156.547C28.6337 156.155 28.5617 155.823 28.4177 155.551C28.2817 155.279 28.0937 155.071 27.8537 154.927C27.6137 154.775 27.3377 154.699 27.0257 154.699C26.7217 154.699 26.4457 154.775 26.1977 154.927C25.9497 155.071 25.7537 155.283 25.6097 155.563C25.4657 155.835 25.3937 156.163 25.3937 156.547V160.375H24.4937V156.547C24.4937 156.155 24.4217 155.823 24.2777 155.551C24.1417 155.279 23.9537 155.071 23.7137 154.927C23.4737 154.775 23.1977 154.699 22.8857 154.699C22.5737 154.699 22.2937 154.775 22.0457 154.927C21.8057 155.071 21.6137 155.283 21.4697 155.563C21.3257 155.835 21.2537 156.163 21.2537 156.547V160.375H20.3537Z" fill="#FEFEFE"/>
<path d="M0.6 175.375V174.355L3.048 171.739C3.528 171.227 3.904 170.815 4.176 170.503C4.456 170.183 4.656 169.903 4.776 169.663C4.904 169.423 4.968 169.171 4.968 168.907C4.968 168.475 4.836 168.143 4.572 167.911C4.308 167.671 3.968 167.551 3.552 167.551C3.12 167.551 2.748 167.675 2.436 167.923C2.124 168.163 1.908 168.515 1.788 168.979L0.54 168.619C0.636 168.147 0.828 167.739 1.116 167.395C1.404 167.043 1.756 166.771 2.172 166.579C2.596 166.387 3.052 166.291 3.54 166.291C4.108 166.291 4.604 166.399 5.028 166.615C5.452 166.823 5.78 167.115 6.012 167.491C6.252 167.867 6.372 168.303 6.372 168.799C6.372 169.127 6.308 169.447 6.18 169.759C6.06 170.063 5.872 170.387 5.616 170.731C5.36 171.067 5.032 171.447 4.632 171.871L2.472 174.175H6.54V175.375H0.6ZM11.4799 175.519C10.7679 175.519 10.1439 175.327 9.60788 174.943C9.07188 174.551 8.65188 174.011 8.34788 173.323C8.05188 172.627 7.90388 171.819 7.90388 170.899C7.90388 169.971 8.05188 169.163 8.34788 168.475C8.65188 167.787 9.06788 167.251 9.59588 166.867C10.1319 166.483 10.7559 166.291 11.4679 166.291C12.1799 166.291 12.7999 166.483 13.3279 166.867C13.8639 167.251 14.2799 167.791 14.5759 168.487C14.8799 169.175 15.0319 169.979 15.0319 170.899C15.0319 171.819 14.8839 172.627 14.5879 173.323C14.2919 174.011 13.8759 174.551 13.3399 174.943C12.8119 175.327 12.1919 175.519 11.4799 175.519ZM11.4799 174.223C11.9199 174.223 12.2999 174.087 12.6199 173.815C12.9399 173.543 13.1879 173.159 13.3639 172.663C13.5399 172.167 13.6279 171.579 13.6279 170.899C13.6279 170.219 13.5399 169.631 13.3639 169.135C13.1879 168.639 12.9399 168.255 12.6199 167.983C12.2999 167.711 11.9159 167.575 11.4679 167.575C11.0279 167.575 10.6479 167.711 10.3279 167.983C10.0079 168.255 9.75988 168.639 9.58388 169.135C9.40788 169.631 9.31988 170.219 9.31988 170.899C9.31988 171.571 9.40788 172.159 9.58388 172.663C9.75988 173.159 10.0079 173.543 10.3279 173.815C10.6559 174.087 11.0399 174.223 11.4799 174.223ZM17.5377 175.375L24.8097 166.435H26.3217L19.0497 175.375H17.5377ZM18.9057 170.971C18.4657 170.971 18.0697 170.867 17.7177 170.659C17.3657 170.443 17.0817 170.159 16.8657 169.807C16.6577 169.455 16.5537 169.063 16.5537 168.631C16.5537 168.199 16.6577 167.807 16.8657 167.455C17.0817 167.095 17.3657 166.811 17.7177 166.603C18.0697 166.395 18.4657 166.291 18.9057 166.291C19.3457 166.291 19.7417 166.395 20.0937 166.603C20.4457 166.811 20.7257 167.095 20.9337 167.455C21.1417 167.807 21.2457 168.199 21.2457 168.631C21.2457 169.063 21.1417 169.455 20.9337 169.807C20.7257 170.159 20.4457 170.443 20.0937 170.659C19.7417 170.867 19.3457 170.971 18.9057 170.971ZM18.9057 169.879C19.1537 169.879 19.3657 169.819 19.5417 169.699C19.7257 169.579 19.8657 169.423 19.9617 169.231C20.0577 169.039 20.1057 168.839 20.1057 168.631C20.1057 168.415 20.0577 168.215 19.9617 168.031C19.8657 167.839 19.7257 167.683 19.5417 167.563C19.3657 167.443 19.1537 167.383 18.9057 167.383C18.6657 167.383 18.4537 167.443 18.2697 167.563C18.0857 167.683 17.9417 167.839 17.8377 168.031C17.7417 168.215 17.6937 168.415 17.6937 168.631C17.6937 168.839 17.7417 169.039 17.8377 169.231C17.9417 169.423 18.0857 169.579 18.2697 169.699C18.4537 169.819 18.6657 169.879 18.9057 169.879ZM24.8937 175.519C24.4537 175.519 24.0537 175.415 23.6937 175.207C23.3417 174.991 23.0617 174.707 22.8537 174.355C22.6457 174.003 22.5417 173.611 22.5417 173.179C22.5417 172.747 22.6457 172.355 22.8537 172.003C23.0617 171.643 23.3417 171.359 23.6937 171.151C24.0537 170.943 24.4537 170.839 24.8937 170.839C25.3337 170.839 25.7297 170.943 26.0817 171.151C26.4337 171.359 26.7137 171.643 26.9217 172.003C27.1297 172.355 27.2337 172.747 27.2337 173.179C27.2337 173.611 27.1297 174.003 26.9217 174.355C26.7137 174.707 26.4337 174.991 26.0817 175.207C25.7297 175.415 25.3337 175.519 24.8937 175.519ZM24.8937 174.427C25.1417 174.427 25.3537 174.367 25.5297 174.247C25.7057 174.127 25.8417 173.971 25.9377 173.779C26.0417 173.587 26.0937 173.387 26.0937 173.179C26.0937 172.963 26.0417 172.763 25.9377 172.579C25.8417 172.387 25.7057 172.231 25.5297 172.111C25.3537 171.991 25.1417 171.931 24.8937 171.931C24.6537 171.931 24.4417 171.991 24.2577 172.111C24.0737 172.231 23.9297 172.387 23.8257 172.579C23.7297 172.763 23.6817 172.963 23.6817 173.179C23.6817 173.387 23.7297 173.587 23.8257 173.779C23.9297 173.971 24.0737 174.127 24.2577 174.247C24.4417 174.367 24.6537 174.427 24.8937 174.427Z" fill="#9A8EED"/>
<path d="M76 140.625L53.25 163.375H0" stroke="#9A8EED"/>
<path d="M69.306 12.6248V3.68476H72.378C72.962 3.68476 73.474 3.80076 73.914 4.03276C74.354 4.25676 74.694 4.57676 74.934 4.99276C75.182 5.40076 75.306 5.87676 75.306 6.42076C75.306 6.96476 75.182 7.44076 74.934 7.84876C74.694 8.25676 74.354 8.57676 73.914 8.80876C73.482 9.03276 72.97 9.14476 72.378 9.14476H70.266V12.6248H69.306ZM70.266 8.24476H72.426C72.81 8.24476 73.146 8.17276 73.434 8.02876C73.722 7.87676 73.946 7.66476 74.106 7.39276C74.266 7.11276 74.346 6.78476 74.346 6.40876C74.346 6.03276 74.266 5.70876 74.106 5.43676C73.946 5.16476 73.722 4.95676 73.434 4.81276C73.146 4.66076 72.81 4.58476 72.426 4.58476H70.266V8.24476ZM76.8849 12.6248V6.19276H77.7849V7.24876L77.6649 7.09276C77.8169 6.78876 78.0449 6.54876 78.3489 6.37276C78.6609 6.19676 79.0369 6.10876 79.4769 6.10876H79.8849V7.00876H79.3209C78.8569 7.00876 78.4849 7.15276 78.2049 7.44076C77.9249 7.72876 77.7849 8.13676 77.7849 8.66476V12.6248H76.8849ZM83.9516 12.7688C83.3436 12.7688 82.7916 12.6248 82.2956 12.3368C81.7996 12.0408 81.4036 11.6408 81.1076 11.1368C80.8196 10.6248 80.6756 10.0448 80.6756 9.39676C80.6756 8.75676 80.8196 8.18476 81.1076 7.68076C81.3956 7.17676 81.7836 6.78076 82.2716 6.49276C82.7676 6.19676 83.3276 6.04876 83.9516 6.04876C84.5756 6.04876 85.1316 6.19276 85.6196 6.48076C86.1156 6.76876 86.5036 7.16476 86.7836 7.66876C87.0716 8.17276 87.2156 8.74876 87.2156 9.39676C87.2156 10.0528 87.0676 10.6368 86.7716 11.1488C86.4756 11.6528 86.0796 12.0488 85.5836 12.3368C85.0956 12.6248 84.5516 12.7688 83.9516 12.7688ZM83.9516 11.8688C84.3836 11.8688 84.7716 11.7608 85.1156 11.5448C85.4676 11.3288 85.7436 11.0328 85.9436 10.6568C86.1516 10.2808 86.2556 9.86076 86.2556 9.39676C86.2556 8.93276 86.1516 8.51676 85.9436 8.14876C85.7436 7.78076 85.4676 7.48876 85.1156 7.27276C84.7716 7.05676 84.3836 6.94876 83.9516 6.94876C83.5196 6.94876 83.1276 7.05676 82.7756 7.27276C82.4316 7.48876 82.1556 7.78076 81.9476 8.14876C81.7396 8.51676 81.6356 8.93276 81.6356 9.39676C81.6356 9.86076 81.7396 10.2808 81.9476 10.6568C82.1556 11.0328 82.4316 11.3288 82.7756 11.5448C83.1276 11.7608 83.5196 11.8688 83.9516 11.8688ZM90.4017 12.6248L87.8937 6.19276H88.9017L91.0137 11.8328H90.6897L92.8137 6.19276H93.8337L91.3017 12.6248H90.4017ZM94.8849 12.6248V6.19276H95.7849V12.6248H94.8849ZM94.8849 5.00476V3.68476H95.7849V5.00476H94.8849ZM100.531 12.7688C99.9311 12.7688 99.3911 12.6248 98.9111 12.3368C98.4311 12.0408 98.0511 11.6408 97.7711 11.1368C97.4991 10.6248 97.3631 10.0488 97.3631 9.40876C97.3631 8.76076 97.4991 8.18476 97.7711 7.68076C98.0511 7.17676 98.4271 6.78076 98.8991 6.49276C99.3791 6.19676 99.9231 6.04876 100.531 6.04876C101.083 6.04876 101.575 6.16876 102.007 6.40876C102.439 6.64876 102.779 6.97276 103.027 7.38076L102.883 7.63276V3.54076H103.783V12.6248H102.883V11.1848L103.027 11.3168C102.803 11.7808 102.467 12.1408 102.019 12.3968C101.579 12.6448 101.083 12.7688 100.531 12.7688ZM100.579 11.8688C101.011 11.8688 101.399 11.7608 101.743 11.5448C102.095 11.3288 102.371 11.0368 102.571 10.6688C102.779 10.2928 102.883 9.87276 102.883 9.40876C102.883 8.94476 102.779 8.52876 102.571 8.16076C102.371 7.78476 102.095 7.48876 101.743 7.27276C101.399 7.05676 101.011 6.94876 100.579 6.94876C100.155 6.94876 99.7711 7.05676 99.4271 7.27276C99.0831 7.48876 98.8111 7.78076 98.6111 8.14876C98.4191 8.51676 98.3231 8.93676 98.3231 9.40876C98.3231 9.87276 98.4191 10.2928 98.6111 10.6688C98.8111 11.0368 99.0791 11.3288 99.4151 11.5448C99.7591 11.7608 100.147 11.8688 100.579 11.8688ZM108.559 12.7688C107.959 12.7688 107.415 12.6248 106.927 12.3368C106.447 12.0408 106.067 11.6368 105.787 11.1248C105.507 10.6128 105.367 10.0328 105.367 9.38476C105.367 8.73676 105.503 8.16476 105.775 7.66876C106.047 7.16476 106.415 6.76876 106.879 6.48076C107.351 6.19276 107.879 6.04876 108.463 6.04876C108.927 6.04876 109.339 6.13676 109.699 6.31276C110.067 6.48076 110.379 6.71276 110.635 7.00876C110.891 7.29676 111.087 7.62476 111.223 7.99276C111.359 8.35276 111.427 8.72476 111.427 9.10876C111.427 9.18876 111.423 9.28076 111.415 9.38476C111.407 9.48076 111.395 9.58076 111.379 9.68476H105.943V8.84476H110.863L110.431 9.20476C110.503 8.76476 110.451 8.37276 110.275 8.02876C110.107 7.67676 109.863 7.40076 109.543 7.20076C109.223 6.99276 108.863 6.88876 108.463 6.88876C108.063 6.88876 107.691 6.99276 107.347 7.20076C107.011 7.40876 106.747 7.70076 106.555 8.07676C106.363 8.44476 106.287 8.88476 106.327 9.39676C106.287 9.90876 106.367 10.3568 106.567 10.7408C106.775 11.1168 107.055 11.4088 107.407 11.6168C107.767 11.8248 108.151 11.9288 108.559 11.9288C109.031 11.9288 109.427 11.8168 109.747 11.5928C110.067 11.3688 110.327 11.0888 110.527 10.7528L111.295 11.1608C111.167 11.4488 110.971 11.7168 110.707 11.9648C110.443 12.2048 110.127 12.4008 109.759 12.5528C109.399 12.6968 108.999 12.7688 108.559 12.7688ZM115.053 12.6248V3.54076H115.953V12.6248H115.053ZM117.795 12.6248V6.19276H118.695V12.6248H117.795ZM117.795 5.00476V3.68476H118.695V5.00476H117.795ZM125.793 15.0248V11.1848L125.937 11.3168C125.713 11.7808 125.377 12.1408 124.929 12.3968C124.489 12.6448 123.993 12.7688 123.441 12.7688C122.841 12.7688 122.301 12.6248 121.821 12.3368C121.341 12.0408 120.961 11.6408 120.681 11.1368C120.409 10.6248 120.273 10.0488 120.273 9.40876C120.273 8.76076 120.409 8.18476 120.681 7.68076C120.961 7.17676 121.337 6.78076 121.809 6.49276C122.289 6.19676 122.833 6.04876 123.441 6.04876C123.993 6.04876 124.485 6.16876 124.917 6.40876C125.349 6.64876 125.689 6.97276 125.937 7.38076L125.793 7.63276V6.19276H126.693V15.0248H125.793ZM123.489 11.8688C123.921 11.8688 124.309 11.7608 124.653 11.5448C125.005 11.3288 125.281 11.0368 125.481 10.6688C125.689 10.2928 125.793 9.87276 125.793 9.40876C125.793 8.94476 125.689 8.52876 125.481 8.16076C125.281 7.78476 125.005 7.48876 124.653 7.27276C124.309 7.05676 123.921 6.94876 123.489 6.94876C123.065 6.94876 122.681 7.05676 122.337 7.27276C121.993 7.48876 121.721 7.78076 121.521 8.14876C121.329 8.51676 121.233 8.93676 121.233 9.40876C121.233 9.87276 121.329 10.2928 121.521 10.6688C121.721 11.0368 121.989 11.3288 122.325 11.5448C122.669 11.7608 123.057 11.8688 123.489 11.8688ZM130.821 12.7688C130.373 12.7688 129.965 12.6648 129.597 12.4568C129.229 12.2408 128.937 11.9448 128.721 11.5688C128.513 11.1848 128.409 10.7448 128.409 10.2488V6.19276H129.309V10.1408C129.309 10.4848 129.377 10.7888 129.513 11.0528C129.657 11.3088 129.853 11.5088 130.101 11.6528C130.357 11.7968 130.649 11.8688 130.977 11.8688C131.305 11.8688 131.597 11.7968 131.853 11.6528C132.109 11.5008 132.309 11.2888 132.453 11.0168C132.597 10.7368 132.669 10.4048 132.669 10.0208V6.19276H133.569V12.6248H132.669V11.3768L132.873 11.4248C132.721 11.8408 132.461 12.1688 132.093 12.4088C131.725 12.6488 131.301 12.7688 130.821 12.7688ZM135.42 12.6248V6.19276H136.32V12.6248H135.42ZM135.42 5.00476V3.68476H136.32V5.00476H135.42ZM141.066 12.7688C140.466 12.7688 139.926 12.6248 139.446 12.3368C138.966 12.0408 138.586 11.6408 138.306 11.1368C138.034 10.6248 137.898 10.0488 137.898 9.40876C137.898 8.76076 138.034 8.18476 138.306 7.68076C138.586 7.17676 138.962 6.78076 139.434 6.49276C139.914 6.19676 140.458 6.04876 141.066 6.04876C141.618 6.04876 142.11 6.16876 142.542 6.40876C142.974 6.64876 143.314 6.97276 143.562 7.38076L143.418 7.63276V3.54076H144.318V12.6248H143.418V11.1848L143.562 11.3168C143.338 11.7808 143.002 12.1408 142.554 12.3968C142.114 12.6448 141.618 12.7688 141.066 12.7688ZM141.114 11.8688C141.546 11.8688 141.934 11.7608 142.278 11.5448C142.63 11.3288 142.906 11.0368 143.106 10.6688C143.314 10.2928 143.418 9.87276 143.418 9.40876C143.418 8.94476 143.314 8.52876 143.106 8.16076C142.906 7.78476 142.63 7.48876 142.278 7.27276C141.934 7.05676 141.546 6.94876 141.114 6.94876C140.69 6.94876 140.306 7.05676 139.962 7.27276C139.618 7.48876 139.346 7.78076 139.146 8.14876C138.954 8.51676 138.858 8.93676 138.858 9.40876C138.858 9.87276 138.954 10.2928 139.146 10.6688C139.346 11.0368 139.614 11.3288 139.95 11.5448C140.294 11.7608 140.682 11.8688 141.114 11.8688ZM146.166 12.6248V6.19276H147.066V12.6248H146.166ZM146.166 5.00476V3.68476H147.066V5.00476H146.166ZM151.368 12.6968C150.792 12.6968 150.348 12.5288 150.036 12.1928C149.724 11.8568 149.568 11.3768 149.568 10.7528V7.09276H148.38V6.19276H148.68C148.952 6.19276 149.168 6.10476 149.328 5.92876C149.488 5.74476 149.568 5.51676 149.568 5.24476V4.70476H150.468V6.19276H151.884V7.09276H150.468V10.7528C150.468 10.9688 150.5 11.1608 150.564 11.3288C150.628 11.4888 150.736 11.6168 150.888 11.7128C151.048 11.8088 151.26 11.8568 151.524 11.8568C151.588 11.8568 151.664 11.8528 151.752 11.8448C151.84 11.8368 151.916 11.8288 151.98 11.8208V12.6248C151.884 12.6488 151.776 12.6648 151.656 12.6728C151.536 12.6888 151.44 12.6968 151.368 12.6968ZM153.693 15.2648C153.565 15.2648 153.433 15.2528 153.297 15.2288C153.169 15.2128 153.041 15.1808 152.913 15.1328V14.2928C152.993 14.3008 153.093 14.3128 153.213 14.3288C153.341 14.3528 153.469 14.3648 153.597 14.3648C153.989 14.3648 154.289 14.2808 154.497 14.1128C154.705 13.9528 154.909 13.6408 155.109 13.1768L155.517 12.2168L155.493 13.0088L152.769 6.19276H153.741L155.973 11.8208H155.721L157.941 6.19276H158.937L155.997 13.4408C155.869 13.7528 155.705 14.0488 155.505 14.3288C155.313 14.6088 155.069 14.8328 154.773 15.0008C154.477 15.1768 154.117 15.2648 153.693 15.2648Z" fill="#FEFEFE"/>
<path d="M71.838 27.7688C71.366 27.7688 70.922 27.6848 70.506 27.5168C70.09 27.3408 69.73 27.0968 69.426 26.7848C69.122 26.4728 68.906 26.0968 68.778 25.6568L69.966 25.2008C70.118 25.6248 70.366 25.9488 70.71 26.1728C71.054 26.3968 71.43 26.5088 71.838 26.5088C72.174 26.5088 72.47 26.4328 72.726 26.2808C72.982 26.1288 73.182 25.9208 73.326 25.6568C73.478 25.3928 73.554 25.0928 73.554 24.7568C73.554 24.4128 73.478 24.1128 73.326 23.8568C73.182 23.5928 72.982 23.3888 72.726 23.2448C72.47 23.0928 72.174 23.0168 71.838 23.0168C71.502 23.0168 71.194 23.0928 70.914 23.2448C70.634 23.3968 70.43 23.6008 70.302 23.8568L69.162 23.6048L69.858 18.6848H74.622V19.8848H70.41L70.95 19.2968L70.434 23.0648L69.99 22.7648C70.23 22.4288 70.522 22.1848 70.866 22.0328C71.21 21.8808 71.602 21.8048 72.042 21.8048C72.626 21.8048 73.134 21.9368 73.566 22.2008C74.006 22.4568 74.346 22.8088 74.586 23.2568C74.834 23.6968 74.958 24.1968 74.958 24.7568C74.958 25.3248 74.822 25.8368 74.55 26.2928C74.278 26.7488 73.906 27.1088 73.434 27.3728C72.97 27.6368 72.438 27.7688 71.838 27.7688ZM77.4088 27.6248L84.6808 18.6848H86.1928L78.9208 27.6248H77.4088ZM78.7768 23.2208C78.3368 23.2208 77.9408 23.1168 77.5888 22.9088C77.2368 22.6928 76.9528 22.4088 76.7368 22.0568C76.5288 21.7048 76.4248 21.3128 76.4248 20.8808C76.4248 20.4488 76.5288 20.0568 76.7368 19.7048C76.9528 19.3448 77.2368 19.0608 77.5888 18.8528C77.9408 18.6448 78.3368 18.5408 78.7768 18.5408C79.2168 18.5408 79.6128 18.6448 79.9648 18.8528C80.3168 19.0608 80.5968 19.3448 80.8048 19.7048C81.0128 20.0568 81.1168 20.4488 81.1168 20.8808C81.1168 21.3128 81.0128 21.7048 80.8048 22.0568C80.5968 22.4088 80.3168 22.6928 79.9648 22.9088C79.6128 23.1168 79.2168 23.2208 78.7768 23.2208ZM78.7768 22.1288C79.0248 22.1288 79.2368 22.0688 79.4128 21.9488C79.5968 21.8288 79.7368 21.6728 79.8328 21.4808C79.9288 21.2888 79.9768 21.0888 79.9768 20.8808C79.9768 20.6648 79.9288 20.4648 79.8328 20.2808C79.7368 20.0888 79.5968 19.9328 79.4128 19.8128C79.2368 19.6928 79.0248 19.6328 78.7768 19.6328C78.5368 19.6328 78.3248 19.6928 78.1408 19.8128C77.9568 19.9328 77.8128 20.0888 77.7088 20.2808C77.6128 20.4648 77.5648 20.6648 77.5648 20.8808C77.5648 21.0888 77.6128 21.2888 77.7088 21.4808C77.8128 21.6728 77.9568 21.8288 78.1408 21.9488C78.3248 22.0688 78.5368 22.1288 78.7768 22.1288ZM84.7648 27.7688C84.3248 27.7688 83.9248 27.6648 83.5648 27.4568C83.2128 27.2408 82.9328 26.9568 82.7248 26.6048C82.5168 26.2528 82.4128 25.8608 82.4128 25.4288C82.4128 24.9968 82.5168 24.6048 82.7248 24.2528C82.9328 23.8928 83.2128 23.6088 83.5648 23.4008C83.9248 23.1928 84.3248 23.0888 84.7648 23.0888C85.2048 23.0888 85.6008 23.1928 85.9528 23.4008C86.3048 23.6088 86.5848 23.8928 86.7928 24.2528C87.0008 24.6048 87.1048 24.9968 87.1048 25.4288C87.1048 25.8608 87.0008 26.2528 86.7928 26.6048C86.5848 26.9568 86.3048 27.2408 85.9528 27.4568C85.6008 27.6648 85.2048 27.7688 84.7648 27.7688ZM84.7648 26.6768C85.0128 26.6768 85.2248 26.6168 85.4008 26.4968C85.5768 26.3768 85.7128 26.2208 85.8088 26.0288C85.9128 25.8368 85.9648 25.6368 85.9648 25.4288C85.9648 25.2128 85.9128 25.0128 85.8088 24.8288C85.7128 24.6368 85.5768 24.4808 85.4008 24.3608C85.2248 24.2408 85.0128 24.1808 84.7648 24.1808C84.5248 24.1808 84.3128 24.2408 84.1288 24.3608C83.9448 24.4808 83.8008 24.6368 83.6968 24.8288C83.6008 25.0128 83.5528 25.2128 83.5528 25.4288C83.5528 25.6368 83.6008 25.8368 83.6968 26.0288C83.8008 26.2208 83.9448 26.3768 84.1288 26.4968C84.3128 26.6168 84.5248 26.6768 84.7648 26.6768Z" fill="#9A8EED"/>
<path d="M107.5 53.1248L99.5 15.6248H71.5" stroke="#9A8EED"/>
<defs>
<filter id="filter0_ddi_809_272" x="89.4873" y="35.1248" width="29.0127" height="50.1313" filterUnits="userSpaceOnUse" color-interpolation-filters="sRGB">
<feFlood flood-opacity="0" result="BackgroundImageFix"/>
<feColorMatrix in="SourceAlpha" type="matrix" values="0 0 0 0 0 0 0 0 0 0 0 0 0 0 0 0 0 0 127 0" result="hardAlpha"/>
<feOffset dy="1"/>
<feGaussianBlur stdDeviation="1"/>
<feComposite in2="hardAlpha" operator="out"/>
<feColorMatrix type="matrix" values="0 0 0 0 0 0 0 0 0 0 0 0 0 0 0 0 0 0 0.08 0"/>
<feBlend mode="normal" in2="BackgroundImageFix" result="effect1_dropShadow_809_272"/>
<feColorMatrix in="SourceAlpha" type="matrix" values="0 0 0 0 0 0 0 0 0 0 0 0 0 0 0 0 0 0 127 0" result="hardAlpha"/>
<feOffset dy="2"/>
<feGaussianBlur stdDeviation="2"/>
<feComposite in2="hardAlpha" operator="out"/>
<feColorMatrix type="matrix" values="0 0 0 0 0 0 0 0 0 0 0 0 0 0 0 0 0 0 0.06 0"/>
<feBlend mode="normal" in2="effect1_dropShadow_809_272" result="effect2_dropShadow_809_272"/>
<feBlend mode="normal" in="SourceGraphic" in2="effect2_dropShadow_809_272" result="shape"/>
<feColorMatrix in="SourceAlpha" type="matrix" values="0 0 0 0 0 0 0 0 0 0 0 0 0 0 0 0 0 0 127 0" result="hardAlpha"/>
<feMorphology radius="1" operator="erode" in="SourceAlpha" result="effect3_innerShadow_809_272"/>
<feOffset/>
<feComposite in2="hardAlpha" operator="arithmetic" k2="-1" k3="1"/>
<feColorMatrix type="matrix" values="0 0 0 0 1 0 0 0 0 1 0 0 0 0 1 0 0 0 0.04 0"/>
<feBlend mode="normal" in2="shape" result="effect3_innerShadow_809_272"/>
</filter>
<filter id="filter1_ddi_809_272" x="42.5" y="38.4529" width="67.5947" height="72.6719" filterUnits="userSpaceOnUse" color-interpolation-filters="sRGB">
<feFlood flood-opacity="0" result="BackgroundImageFix"/>
<feColorMatrix in="SourceAlpha" type="matrix" values="0 0 0 0 0 0 0 0 0 0 0 0 0 0 0 0 0 0 127 0" result="hardAlpha"/>
<feOffset dy="1"/>
<feGaussianBlur stdDeviation="1"/>
<feComposite in2="hardAlpha" operator="out"/>
<feColorMatrix type="matrix" values="0 0 0 0 0 0 0 0 0 0 0 0 0 0 0 0 0 0 0.08 0"/>
<feBlend mode="normal" in2="BackgroundImageFix" result="effect1_dropShadow_809_272"/>
<feColorMatrix in="SourceAlpha" type="matrix" values="0 0 0 0 0 0 0 0 0 0 0 0 0 0 0 0 0 0 127 0" result="hardAlpha"/>
<feOffset dy="2"/>
<feGaussianBlur stdDeviation="2"/>
<feComposite in2="hardAlpha" operator="out"/>
<feColorMatrix type="matrix" values="0 0 0 0 0 0 0 0 0 0 0 0 0 0 0 0 0 0 0.06 0"/>
<feBlend mode="normal" in2="effect1_dropShadow_809_272" result="effect2_dropShadow_809_272"/>
<feBlend mode="normal" in="SourceGraphic" in2="effect2_dropShadow_809_272" result="shape"/>
<feColorMatrix in="SourceAlpha" type="matrix" values="0 0 0 0 0 0 0 0 0 0 0 0 0 0 0 0 0 0 127 0" result="hardAlpha"/>
<feMorphology radius="1" operator="erode" in="SourceAlpha" result="effect3_innerShadow_809_272"/>
<feOffset/>
<feComposite in2="hardAlpha" operator="arithmetic" k2="-1" k3="1"/>
<feColorMatrix type="matrix" values="0 0 0 0 1 0 0 0 0 1 0 0 0 0 1 0 0 0 0.04 0"/>
<feBlend mode="normal" in2="shape" result="effect3_innerShadow_809_272"/>
</filter>
<filter id="filter2_ddi_809_272" x="110.5" y="35.1248" width="76" height="144" filterUnits="userSpaceOnUse" color-interpolation-filters="sRGB">
<feFlood flood-opacity="0" result="BackgroundImageFix"/>
<feColorMatrix in="SourceAlpha" type="matrix" values="0 0 0 0 0 0 0 0 0 0 0 0 0 0 0 0 0 0 127 0" result="hardAlpha"/>
<feOffset dy="1"/>
<feGaussianBlur stdDeviation="1"/>
<feComposite in2="hardAlpha" operator="out"/>
<feColorMatrix type="matrix" values="0 0 0 0 0 0 0 0 0 0 0 0 0 0 0 0 0 0 0.08 0"/>
<feBlend mode="normal" in2="BackgroundImageFix" result="effect1_dropShadow_809_272"/>
<feColorMatrix in="SourceAlpha" type="matrix" values="0 0 0 0 0 0 0 0 0 0 0 0 0 0 0 0 0 0 127 0" result="hardAlpha"/>
<feOffset dy="2"/>
<feGaussianBlur stdDeviation="2"/>
<feComposite in2="hardAlpha" operator="out"/>
<feColorMatrix type="matrix" values="0 0 0 0 0 0 0 0 0 0 0 0 0 0 0 0 0 0 0.06 0"/>
<feBlend mode="normal" in2="effect1_dropShadow_809_272" result="effect2_dropShadow_809_272"/>
<feBlend mode="normal" in="SourceGraphic" in2="effect2_dropShadow_809_272" result="shape"/>
<feColorMatrix in="SourceAlpha" type="matrix" values="0 0 0 0 0 0 0 0 0 0 0 0 0 0 0 0 0 0 127 0" result="hardAlpha"/>
<feMorphology radius="1" operator="erode" in="SourceAlpha" result="effect3_innerShadow_809_272"/>
<feOffset/>
<feComposite in2="hardAlpha" operator="arithmetic" k2="-1" k3="1"/>
<feColorMatrix type="matrix" values="0 0 0 0 1 0 0 0 0 1 0 0 0 0 1 0 0 0 0.04 0"/>
<feBlend mode="normal" in2="shape" result="effect3_innerShadow_809_272"/>
</filter>
<filter id="filter3_ddi_809_272" x="42.5" y="103.125" width="76" height="76" filterUnits="userSpaceOnUse" color-interpolation-filters="sRGB">
<feFlood flood-opacity="0" result="BackgroundImageFix"/>
<feColorMatrix in="SourceAlpha" type="matrix" values="0 0 0 0 0 0 0 0 0 0 0 0 0 0 0 0 0 0 127 0" result="hardAlpha"/>
<feOffset dy="1"/>
<feGaussianBlur stdDeviation="1"/>
<feComposite in2="hardAlpha" operator="out"/>
<feColorMatrix type="matrix" values="0 0 0 0 0 0 0 0 0 0 0 0 0 0 0 0 0 0 0.08 0"/>
<feBlend mode="normal" in2="BackgroundImageFix" result="effect1_dropShadow_809_272"/>
<feColorMatrix in="SourceAlpha" type="matrix" values="0 0 0 0 0 0 0 0 0 0 0 0 0 0 0 0 0 0 127 0" result="hardAlpha"/>
<feOffset dy="2"/>
<feGaussianBlur stdDeviation="2"/>
<feComposite in2="hardAlpha" operator="out"/>
<feColorMatrix type="matrix" values="0 0 0 0 0 0 0 0 0 0 0 0 0 0 0 0 0 0 0.06 0"/>
<feBlend mode="normal" in2="effect1_dropShadow_809_272" result="effect2_dropShadow_809_272"/>
<feBlend mode="normal" in="SourceGraphic" in2="effect2_dropShadow_809_272" result="shape"/>
<feColorMatrix in="SourceAlpha" type="matrix" values="0 0 0 0 0 0 0 0 0 0 0 0 0 0 0 0 0 0 127 0" result="hardAlpha"/>
<feMorphology radius="1" operator="erode" in="SourceAlpha" result="effect3_innerShadow_809_272"/>
<feOffset/>
<feComposite in2="hardAlpha" operator="arithmetic" k2="-1" k3="1"/>
<feColorMatrix type="matrix" values="0 0 0 0 1 0 0 0 0 1 0 0 0 0 1 0 0 0 0.04 0"/>
<feBlend mode="normal" in2="shape" result="effect3_innerShadow_809_272"/>
</filter>
</defs>
</svg>
