<svg width="25" height="24" viewBox="0 0 25 24" fill="none" xmlns="http://www.w3.org/2000/svg">
<g clip-path="url(#clip0_224_20805)">
<path d="M12.2581 24C18.8855 24 24.2581 18.6274 24.2581 12C24.2581 5.37258 18.8855 0 12.2581 0C5.6307 0 0.258118 5.37258 0.258118 12C0.258118 18.6274 5.6307 24 12.2581 24Z" fill="#2E3148"/>
<path d="M12.2581 18.963C16.1037 18.963 19.2211 15.8455 19.2211 12C19.2211 8.15445 16.1037 5.03702 12.2581 5.03702C8.41257 5.03702 5.29514 8.15445 5.29514 12C5.29514 15.8455 8.41257 18.963 12.2581 18.963Z" fill="#1B1E36"/>
<path d="M12.2828 1.53091C10.9875 1.53091 9.93713 6.22915 9.93713 12.0248C9.93713 17.8204 10.9875 22.5186 12.2828 22.5186C13.5781 22.5186 14.6285 17.8204 14.6285 12.0248C14.6285 6.22915 13.5781 1.53091 12.2828 1.53091ZM12.4447 21.9264C12.2966 22.124 12.1485 21.9757 12.1485 21.9757C11.5519 21.2845 11.2537 20.0005 11.2537 20.0005C10.2103 16.6425 10.4586 9.43258 10.4586 9.43258C10.949 3.70867 11.841 2.35651 12.1446 2.05632C12.1756 2.02568 12.2164 2.00696 12.2598 2.00345C12.3033 1.99994 12.3465 2.01186 12.3821 2.03712C12.8225 2.34922 13.1919 3.65443 13.1919 3.65443C14.2828 7.70381 14.184 11.5063 14.184 11.5063C14.2828 14.8149 13.6374 18.5186 13.6374 18.5186C13.1406 21.3333 12.4447 21.9264 12.4447 21.9264Z" fill="#6F7390"/>
<path d="M21.385 6.80247C20.7401 5.6785 16.1426 7.10564 11.113 9.98967C6.08349 12.8737 2.53572 16.123 3.18016 17.2465C3.82461 18.37 8.42263 16.9433 13.4522 14.0593C18.4817 11.1753 22.0295 7.92596 21.385 6.80247ZM3.77517 17.0923C3.52826 17.0612 3.58404 16.8583 3.58404 16.8583C3.88692 15.9971 4.85076 15.0993 4.85076 15.0993C7.24528 12.523 13.6231 9.15063 13.6231 9.15063C18.8315 6.7274 20.4493 6.82964 20.8597 6.94263C20.9018 6.95439 20.9384 6.98068 20.963 7.01684C20.9876 7.053 20.9986 7.0967 20.9941 7.1402C20.9448 7.6778 19.9941 8.6474 19.9941 8.6474C17.0265 11.6099 13.6789 13.4168 13.6789 13.4168C10.8581 15.1496 7.32439 16.432 7.32439 16.432C4.63552 17.401 3.77527 17.0923 3.77527 17.0923H3.77517Z" fill="#6F7390"/>
<path d="M21.3623 17.284C22.0122 16.163 18.4733 12.8988 13.4615 9.99304C8.4496 7.08731 3.85264 5.64251 3.2033 6.76542C2.55395 7.88834 6.09222 11.1506 11.107 14.0563C16.1217 16.9621 20.7129 18.407 21.3623 17.284ZM3.63395 7.19858C3.53795 6.97096 3.74061 6.91614 3.74061 6.91614C4.63782 6.7467 5.89811 7.13282 5.89811 7.13282C9.32675 7.91358 15.4405 11.7432 15.4405 11.7432C20.1477 15.0371 20.8696 16.4879 20.9778 16.8998C20.9888 16.942 20.9845 16.9868 20.9657 17.0262C20.9469 17.0656 20.9148 17.0971 20.8751 17.1151C20.3842 17.3398 19.0696 17.005 19.0696 17.005C15.0177 15.9185 11.7772 13.928 11.7772 13.928C8.86566 12.3576 5.98662 9.9413 5.98662 9.9413C3.79898 8.09934 3.63462 7.20107 3.63462 7.20107L3.63395 7.19858Z" fill="#6F7390"/>
<path d="M12.2581 13.2346C12.9399 13.2346 13.4927 12.6818 13.4927 12C13.4927 11.3182 12.9399 10.7654 12.2581 10.7654C11.5763 10.7654 11.0236 11.3182 11.0236 12C11.0236 12.6818 11.5763 13.2346 12.2581 13.2346Z" fill="#B7B9C8"/>
<path d="M17.3198 7.99997C17.7153 7.99997 18.0359 7.66833 18.0359 7.25923C18.0359 6.85013 17.7153 6.51849 17.3198 6.51849C16.9243 6.51849 16.6037 6.85013 16.6037 7.25923C16.6037 7.66833 16.9243 7.99997 17.3198 7.99997Z" fill="#B7B9C8"/>
<path d="M5.56673 10.5185C5.9622 10.5185 6.28279 10.1869 6.28279 9.77778C6.28279 9.36869 5.9622 9.03705 5.56673 9.03705C5.17125 9.03705 4.85066 9.36869 4.85066 9.77778C4.85066 10.1869 5.17125 10.5185 5.56673 10.5185Z" fill="#B7B9C8"/>
<path d="M10.8013 19.6049C11.1968 19.6049 11.5174 19.2733 11.5174 18.8642C11.5174 18.4551 11.1968 18.1234 10.8013 18.1234C10.4058 18.1234 10.0853 18.4551 10.0853 18.8642C10.0853 19.2733 10.4058 19.6049 10.8013 19.6049Z" fill="#B7B9C8"/>
</g>
<defs>
<clipPath id="clip0_224_20805">
<rect width="24" height="24" fill="white" transform="translate(0.258118)"/>
</clipPath>
</defs>
</svg>
