<svg width="50" height="21" viewBox="0 0 50 21" fill="none" xmlns="http://www.w3.org/2000/svg">
<rect x="-0.00585938" y="0.5" width="50" height="20" rx="8" fill="#15141A"/>
<rect x="0.494141" y="1" width="49" height="19" rx="7.5" stroke="#7D7D80" stroke-opacity="0.08"/>
<path opacity="0.7" d="M11.1191 14.5H8.87482V7.22727H11.2186C11.9241 7.22727 12.5278 7.37287 13.0297 7.66406C13.5315 7.95289 13.9163 8.36837 14.1838 8.91051C14.4513 9.45028 14.585 10.0966 14.585 10.8494C14.585 11.607 14.4501 12.2592 14.1802 12.8061C13.9103 13.3506 13.5173 13.7696 13.0012 14.0632C12.4851 14.3544 11.8578 14.5 11.1191 14.5ZM9.7555 13.7188H11.0623C11.6636 13.7188 12.162 13.6027 12.5574 13.3707C12.9527 13.1387 13.2475 12.8085 13.4416 12.38C13.6357 11.9515 13.7328 11.4413 13.7328 10.8494C13.7328 10.2623 13.6369 9.75687 13.4451 9.3331C13.2534 8.90696 12.9669 8.58026 12.5858 8.35298C12.2046 8.12334 11.7299 8.00852 11.1618 8.00852H9.7555V13.7188ZM18.2356 14.6136C17.71 14.6136 17.2567 14.4976 16.8755 14.2656C16.4967 14.0312 16.2044 13.7045 15.9984 13.2855C15.7948 12.8641 15.693 12.3741 15.693 11.8153C15.693 11.2566 15.7948 10.7642 15.9984 10.3381C16.2044 9.90956 16.4908 9.57576 16.8578 9.33665C17.2271 9.09517 17.658 8.97443 18.1504 8.97443C18.4345 8.97443 18.715 9.02178 18.992 9.11648C19.269 9.21117 19.5211 9.36506 19.7484 9.57812C19.9757 9.78883 20.1568 10.0682 20.2917 10.4162C20.4267 10.7642 20.4941 11.1927 20.4941 11.7017V12.0568H16.2896V11.3324H19.6419C19.6419 11.0246 19.5803 10.75 19.4572 10.5085C19.3365 10.267 19.1636 10.0765 18.9387 9.93679C18.7162 9.79711 18.4534 9.72727 18.1504 9.72727C17.8166 9.72727 17.5278 9.81013 17.2839 9.97585C17.0424 10.1392 16.8566 10.3523 16.7264 10.6151C16.5962 10.8778 16.5311 11.1596 16.5311 11.4602V11.9432C16.5311 12.3551 16.6021 12.7043 16.7441 12.9908C16.8886 13.2749 17.0886 13.4915 17.3443 13.6406C17.6 13.7874 17.8971 13.8608 18.2356 13.8608C18.4558 13.8608 18.6547 13.83 18.8322 13.7685C19.0121 13.7045 19.1672 13.6098 19.2974 13.4844C19.4276 13.3565 19.5282 13.1979 19.5993 13.0085L20.4089 13.2358C20.3237 13.5104 20.1805 13.7519 19.9792 13.9602C19.778 14.1662 19.5294 14.3272 19.2335 14.4432C18.9376 14.5568 18.6049 14.6136 18.2356 14.6136ZM24.198 9.04545V9.75568H21.2576V9.04545H24.198ZM22.1383 14.5V8.29261C22.1383 7.98011 22.2117 7.7197 22.3585 7.51136C22.5053 7.30303 22.6958 7.14678 22.9302 7.04261C23.1646 6.93845 23.412 6.88636 23.6724 6.88636C23.8784 6.88636 24.0465 6.90294 24.1767 6.93608C24.3069 6.96922 24.4039 7 24.4679 7.02841L24.2264 7.75284C24.1838 7.73864 24.1246 7.72088 24.0488 7.69957C23.9754 7.67827 23.8784 7.66761 23.7576 7.66761C23.4806 7.66761 23.2806 7.73745 23.1575 7.87713C23.0368 8.01681 22.9764 8.22159 22.9764 8.49148V14.5H22.1383ZM26.8214 14.6278C26.4757 14.6278 26.1621 14.5627 25.8803 14.4325C25.5986 14.3 25.3749 14.1094 25.2092 13.8608C25.0434 13.6098 24.9606 13.3068 24.9606 12.9517C24.9606 12.6392 25.0221 12.3859 25.1452 12.1918C25.2683 11.9953 25.4329 11.8414 25.6388 11.7301C25.8448 11.6188 26.0721 11.536 26.3207 11.4815C26.5716 11.4247 26.8237 11.3797 27.0771 11.3466C27.4085 11.304 27.6772 11.272 27.8832 11.2507C28.0915 11.227 28.243 11.188 28.3377 11.1335C28.4348 11.0791 28.4833 10.9844 28.4833 10.8494V10.821C28.4833 10.4706 28.3874 10.1984 28.1957 10.0043C28.0063 9.81013 27.7186 9.71307 27.3327 9.71307C26.9326 9.71307 26.619 9.80066 26.3917 9.97585C26.1644 10.151 26.0046 10.3381 25.9123 10.5369L25.1168 10.2528C25.2589 9.9214 25.4483 9.66335 25.685 9.47869C25.9241 9.29167 26.1845 9.16146 26.4663 9.08807C26.7504 9.01231 27.0297 8.97443 27.3043 8.97443C27.4795 8.97443 27.6808 8.99574 27.908 9.03835C28.1377 9.0786 28.359 9.16264 28.5721 9.29048C28.7875 9.41832 28.9663 9.61127 29.1083 9.86932C29.2504 10.1274 29.3214 10.473 29.3214 10.9062V14.5H28.4833V13.7614H28.4407C28.3839 13.8797 28.2892 14.0064 28.1566 14.1413C28.024 14.2763 27.8477 14.3911 27.6275 14.4858C27.4073 14.5805 27.1386 14.6278 26.8214 14.6278ZM26.9492 13.875C27.2807 13.875 27.56 13.8099 27.7873 13.6797C28.0169 13.5495 28.1897 13.3814 28.3058 13.1754C28.4241 12.9695 28.4833 12.7528 28.4833 12.5256V11.7585C28.4478 11.8011 28.3697 11.8402 28.2489 11.8757C28.1306 11.9089 27.9933 11.9384 27.837 11.9645C27.6831 11.9882 27.5328 12.0095 27.386 12.0284C27.2416 12.045 27.1244 12.0592 27.0344 12.071C26.8166 12.0994 26.613 12.1456 26.4237 12.2095C26.2366 12.2711 26.0851 12.3646 25.9691 12.4901C25.8555 12.6132 25.7987 12.7812 25.7987 12.9943C25.7987 13.2855 25.9064 13.5057 26.1218 13.6548C26.3396 13.8016 26.6154 13.875 26.9492 13.875ZM34.2885 12.2699V9.04545H35.1266V14.5H34.2885V13.5767H34.2317C34.1039 13.8537 33.905 14.0893 33.6351 14.2834C33.3652 14.4751 33.0243 14.571 32.6124 14.571C32.2715 14.571 31.9685 14.4964 31.7033 14.3473C31.4382 14.1958 31.2298 13.9685 31.0783 13.6655C30.9268 13.3601 30.851 12.9754 30.851 12.5114V9.04545H31.6891V12.4545C31.6891 12.8523 31.8004 13.1695 32.0229 13.4062C32.2478 13.643 32.5343 13.7614 32.8823 13.7614C33.0906 13.7614 33.3025 13.7081 33.5179 13.6016C33.7357 13.495 33.918 13.3317 34.0648 13.1115C34.214 12.8913 34.2885 12.6108 34.2885 12.2699ZM37.4996 7.22727V14.5H36.6616V7.22727H37.4996ZM41.4068 9.04545V9.75568H38.5801V9.04545H41.4068ZM39.4039 7.73864H40.242V12.9375C40.242 13.1742 40.2763 13.3518 40.345 13.4702C40.416 13.5862 40.506 13.6643 40.6149 13.7045C40.7261 13.7424 40.8433 13.7614 40.9664 13.7614C41.0588 13.7614 41.1345 13.7566 41.1937 13.7472C41.2529 13.7353 41.3002 13.7259 41.3358 13.7188L41.5062 14.4716C41.4494 14.4929 41.3701 14.5142 41.2683 14.5355C41.1665 14.5592 41.0375 14.571 40.8812 14.571C40.6445 14.571 40.4125 14.5201 40.1852 14.4183C39.9603 14.3165 39.7733 14.1615 39.6241 13.9531C39.4773 13.7448 39.4039 13.482 39.4039 13.1648V7.73864Z" fill="#7D7D80"/>
</svg>
