<svg width="16" height="16" viewBox="0 0 16 16" fill="none" xmlns="http://www.w3.org/2000/svg">
<path d="M12.9477 4.00065C12.9477 3.80738 12.8803 3.6209 12.7589 3.47266L12.7036 3.41146L12.589 3.29688C12.4522 3.1601 12.2727 3.07551 12.0818 3.05664L11.9998 3.05273C11.8064 3.05273 11.6201 3.12006 11.4718 3.24154L11.4106 3.29688L10.7068 4.00065L11.9998 5.29362L12.7036 4.58984L12.7589 4.52865C12.8804 4.38041 12.9477 4.19396 12.9477 4.00065ZM13.9998 12.834L14.0512 12.8366C14.3032 12.8623 14.4998 13.0752 14.4998 13.334C14.4997 13.5927 14.3032 13.8056 14.0512 13.8314L13.9998 13.834H8.66647C8.3904 13.834 8.16658 13.61 8.16647 13.334C8.16647 13.0578 8.39033 12.834 8.66647 12.834H13.9998ZM3.78431 10.9225L3.35332 12.6465L5.07728 12.2155L11.2928 6.00065L9.9998 4.70768L3.78431 10.9225ZM13.9477 4.00065C13.9477 4.42596 13.7995 4.83595 13.5324 5.16211L13.4106 5.29688L5.68665 13.0208C5.62259 13.0849 5.5421 13.1304 5.45423 13.1523L2.78756 13.819C2.61728 13.8615 2.43709 13.8116 2.31295 13.6875C2.18876 13.5633 2.13885 13.3826 2.18144 13.2122L2.84811 10.5456L2.86894 10.4818C2.89399 10.419 2.93155 10.3619 2.97962 10.3138L10.7036 2.58984V2.58919L10.8383 2.46745C11.1645 2.2004 11.5746 2.05273 11.9998 2.05273L12.1808 2.06185C12.6004 2.10347 12.9952 2.2885 13.296 2.58919V2.58984L13.4106 2.70443L13.5324 2.83854C13.7997 3.16478 13.9477 3.5752 13.9477 4.00065Z" fill="#E6E7EA"/>
</svg>
