<svg width="18" height="18" viewBox="0 0 18 18" fill="none" xmlns="http://www.w3.org/2000/svg">
<path d="M15.3281 3.65625L15.386 3.65918C15.6695 3.68815 15.8906 3.92763 15.8906 4.21875C15.8906 4.50988 15.6695 4.74936 15.386 4.77832L15.3281 4.78125L2.68359 4.78125C2.37293 4.78125 2.12109 4.52941 2.12109 4.21875C2.12109 3.90809 2.37293 3.65625 2.68359 3.65625L15.3281 3.65625Z" fill="#F5F5F7"/>
<path d="M15.3649 13.2656L15.419 13.2686C15.6839 13.2975 15.8906 13.537 15.8906 13.8281C15.8906 14.1193 15.6839 14.3587 15.419 14.3877L15.3649 14.3906L9.27569 14.3906C8.98536 14.3906 8.75 14.1388 8.75 13.8281C8.75 13.5175 8.98536 13.2656 9.27569 13.2656L15.3649 13.2656Z" fill="#F5F5F7"/>
<path d="M15.3281 8.4375L15.386 8.44043C15.6695 8.4694 15.8906 8.70888 15.8906 9C15.8906 9.29113 15.6695 9.53061 15.386 9.55957L15.3281 9.5625L2.68359 9.5625C2.37293 9.5625 2.12109 9.31066 2.12109 9C2.12109 8.68934 2.37293 8.4375 2.68359 8.4375L15.3281 8.4375Z" fill="#F5F5F7"/>
<path d="M5.08691 11.9609C5.60764 12.0138 6.04953 12.3332 6.27441 12.7803C6.32501 12.7653 6.37815 12.7559 6.43359 12.7559C6.72472 12.7559 6.9642 12.9773 6.99316 13.2607L6.99609 13.3184V14.3379C6.99609 14.6486 6.74425 14.9004 6.43359 14.9004C6.37763 14.9004 6.32446 14.8892 6.27344 14.874C6.04885 15.3218 5.60814 15.6424 5.08691 15.6953L4.93359 15.7031H4.18359L4.03027 15.6953C3.5089 15.6424 3.0673 15.322 2.84277 14.874C2.79202 14.8891 2.73923 14.9004 2.68359 14.9004C2.37293 14.9004 2.12109 14.6486 2.12109 14.3379V13.3184L2.12402 13.2607C2.15299 12.9773 2.39247 12.7559 2.68359 12.7559C2.73871 12.7559 2.79146 12.7655 2.8418 12.7803C3.06662 12.333 3.50939 12.0138 4.03027 11.9609L4.18359 11.9531H4.93359L5.08691 11.9609ZM4.18359 12.7031C3.76938 12.7031 3.43359 13.0389 3.43359 13.4531V14.2031C3.43359 14.6173 3.76938 14.9531 4.18359 14.9531H4.93359C5.34781 14.9531 5.68359 14.6173 5.68359 14.2031V13.4531C5.68359 13.0389 5.34781 12.7031 4.93359 12.7031H4.18359Z" fill="#F5F5F7"/>
</svg>
