<svg width="18" height="18" viewBox="0 0 18 18" fill="none" xmlns="http://www.w3.org/2000/svg">
<path d="M4.5 9.75H1.5C1.30109 9.75 1.11032 9.82902 0.96967 9.96967C0.829018 10.1103 0.75 10.3011 0.75 10.5V16.5C0.75 16.6989 0.829018 16.8897 0.96967 17.0303C1.11032 17.171 1.30109 17.25 1.5 17.25H4.5C4.69891 17.25 4.88968 17.171 5.03033 17.0303C5.17098 16.8897 5.25 16.6989 5.25 16.5V10.5C5.25 10.3011 5.17098 10.1103 5.03033 9.96967C4.88968 9.82902 4.69891 9.75 4.5 9.75ZM3.75 15.75H2.25V11.25H3.75V15.75ZM16.5 6.75H13.5C13.3011 6.75 13.1103 6.82902 12.9697 6.96967C12.829 7.11032 12.75 7.30109 12.75 7.5V16.5C12.75 16.6989 12.829 16.8897 12.9697 17.0303C13.1103 17.171 13.3011 17.25 13.5 17.25H16.5C16.6989 17.25 16.8897 17.171 17.0303 17.0303C17.171 16.8897 17.25 16.6989 17.25 16.5V7.5C17.25 7.30109 17.171 7.11032 17.0303 6.96967C16.8897 6.82902 16.6989 6.75 16.5 6.75ZM15.75 15.75H14.25V8.25H15.75V15.75ZM10.5 0.75H7.5C7.30109 0.75 7.11032 0.829018 6.96967 0.96967C6.82902 1.11032 6.75 1.30109 6.75 1.5V16.5C6.75 16.6989 6.82902 16.8897 6.96967 17.0303C7.11032 17.171 7.30109 17.25 7.5 17.25H10.5C10.6989 17.25 10.8897 17.171 11.0303 17.0303C11.171 16.8897 11.25 16.6989 11.25 16.5V1.5C11.25 1.30109 11.171 1.11032 11.0303 0.96967C10.8897 0.829018 10.6989 0.75 10.5 0.75ZM9.75 15.75H8.25V2.25H9.75V15.75Z" fill="#7D7D80"/>
</svg>
