<svg width="16" height="12" viewBox="0 0 16 12" fill="none" xmlns="http://www.w3.org/2000/svg">
<path d="M1.25 12C1.0375 12 0.859503 11.928 0.716003 11.784C0.572503 11.64 0.500503 11.462 0.500003 11.25C0.499503 11.038 0.571503 10.86 0.716003 10.716C0.860503 10.572 1.0385 10.5 1.25 10.5H14.75C14.9625 10.5 15.1408 10.572 15.2848 10.716C15.4288 10.86 15.5005 11.038 15.5 11.25C15.4995 11.462 15.4275 11.6403 15.284 11.7848C15.1405 11.9293 14.9625 12.001 14.75 12H1.25ZM2.75 9C2.5375 9 2.3595 8.928 2.216 8.784C2.0725 8.64 2.0005 8.462 2 8.25V3.75C2 3.5375 2.072 3.3595 2.216 3.216C2.36 3.0725 2.538 3.0005 2.75 3C2.962 2.9995 3.14025 3.0715 3.28475 3.216C3.42925 3.3605 3.501 3.5385 3.5 3.75V8.25C3.5 8.4625 3.428 8.64075 3.284 8.78475C3.14 8.92875 2.962 9.0005 2.75 9ZM5.75 9C5.5375 9 5.3595 8.928 5.216 8.784C5.0725 8.64 5.0005 8.462 5 8.25V0.750003C5 0.537503 5.072 0.359503 5.216 0.216003C5.36 0.0725027 5.538 0.000502586 5.75 2.5862e-06C5.962 -0.000497414 6.14025 0.0715027 6.28475 0.216003C6.42925 0.360503 6.501 0.538503 6.5 0.750003V8.25C6.5 8.4625 6.428 8.64075 6.284 8.78475C6.14 8.92875 5.962 9.0005 5.75 9ZM8.75 9C8.5375 9 8.3595 8.928 8.216 8.784C8.0725 8.64 8.0005 8.462 8 8.25V0.750003C8 0.537503 8.072 0.359503 8.216 0.216003C8.36 0.0725027 8.538 0.000502586 8.75 2.5862e-06C8.962 -0.000497414 9.14025 0.0715027 9.28475 0.216003C9.42925 0.360503 9.501 0.538503 9.5 0.750003V8.25C9.5 8.4625 9.428 8.64075 9.284 8.78475C9.14 8.92875 8.962 9.0005 8.75 9ZM13.9063 8.625C13.7313 8.725 13.5405 8.747 13.334 8.691C13.1275 8.635 12.9745 8.51925 12.875 8.34375L10.625 4.40625C10.525 4.23125 10.503 4.0405 10.559 3.834C10.615 3.6275 10.7308 3.4745 10.9063 3.375C11.0818 3.2755 11.2725 3.2535 11.4785 3.309C11.6845 3.3645 11.8375 3.48025 11.9375 3.65625L14.1875 7.59375C14.2875 7.76875 14.3095 7.9595 14.2535 8.166C14.1975 8.3725 14.0818 8.5255 13.9063 8.625Z" fill="#F5F5F7"/>
</svg>
