<svg width="18" height="14" viewBox="0 0 18 14" fill="none" xmlns="http://www.w3.org/2000/svg">
<path d="M14.2034 4.97046L14.1997 4.81445C14.1819 4.45107 14.1018 4.09298 13.9624 3.7561C13.803 3.37097 13.5687 3.02106 13.2739 2.72632C12.9792 2.43158 12.6293 2.19728 12.2441 2.03784C11.8688 1.88252 11.4672 1.8015 11.0613 1.79761H6.96997C6.5533 1.79747 6.14061 1.87924 5.75562 2.03857C5.37059 2.19795 5.02054 2.43171 4.72583 2.72632C4.43114 3.02095 4.19756 3.37111 4.03809 3.7561C3.87865 4.14107 3.79634 4.55378 3.79639 4.97046V9.03027C3.79624 9.44694 3.87802 9.85963 4.03735 10.2446C4.19679 10.6298 4.43109 10.9797 4.72583 11.2744C5.02058 11.5692 5.37048 11.8035 5.75562 11.9629C6.14062 12.1222 6.5533 12.204 6.96997 12.2039H11.0298L11.1858 12.2002C11.5492 12.1824 11.9073 12.1023 12.2441 11.9629C12.6293 11.8035 12.9792 11.5692 13.2739 11.2744C13.5687 10.9797 13.803 10.6298 13.9624 10.2446C14.1217 9.85963 14.2035 9.44695 14.2034 9.03027V4.97046ZM15.3284 9.02954L15.3232 9.24121C15.2992 9.73359 15.1907 10.2188 15.0017 10.6753C14.7857 11.197 14.4686 11.6706 14.0693 12.0698C13.6701 12.4691 13.1965 12.7862 12.6748 13.0022C12.2184 13.1912 11.7331 13.2997 11.2407 13.3237L11.0291 13.3289H6.9707C6.40606 13.3291 5.84666 13.2182 5.32495 13.0022C4.80328 12.7862 4.32966 12.4691 3.93042 12.0698C3.53118 11.6706 3.21402 11.197 2.99805 10.6753C2.80909 10.2188 2.70058 9.73359 2.67651 9.24121L2.67139 9.02954V4.97119C2.67127 4.40662 2.78275 3.84705 2.99878 3.32544C3.2148 2.80398 3.53126 2.32999 3.93042 1.93091C4.32959 1.53184 4.80344 1.21517 5.32495 0.999268C5.8466 0.783346 6.40613 0.672381 6.9707 0.672608H10.4666V0.671875H11.0291C11.5937 0.671649 12.1531 0.782559 12.6748 0.998536C13.1965 1.21451 13.6701 1.53166 14.0693 1.93091C14.4686 2.33015 14.7857 2.80377 15.0017 3.32544C15.2177 3.84715 15.3286 4.40655 15.3284 4.97119V9.02954Z" fill="#F5F5F7"/>
<path d="M0.75 8.92334V5.07959C0.75 4.72652 0.889991 4.38735 1.13965 4.1377C1.38931 3.88804 1.72847 3.74805 2.08154 3.74805H3.2959V4.87305H2.08154C2.02684 4.87305 1.97374 4.89443 1.93506 4.93311C1.89638 4.97178 1.875 5.02489 1.875 5.07959V8.92334C1.87504 8.9502 1.88015 8.97687 1.89038 9.00171C1.90073 9.0267 1.91594 9.04995 1.93506 9.06909C1.95421 9.08824 1.97742 9.1034 2.00244 9.11377C2.02742 9.12409 2.05452 9.12915 2.08154 9.12915H3.2959V10.2542H2.08154C1.90673 10.2542 1.73329 10.22 1.57178 10.1531C1.41026 10.0862 1.26327 9.98812 1.13965 9.8645C1.01607 9.7409 0.917963 9.59386 0.851074 9.43237C0.784263 9.271 0.750038 9.09799 0.75 8.92334ZM16.125 8.92334V5.07959C16.125 5.02489 16.1036 4.97178 16.0649 4.93311C16.0263 4.89443 15.9732 4.87305 15.9185 4.87305H14.7041V3.74805H15.9185C16.2715 3.74805 16.6107 3.88804 16.8604 4.1377C17.11 4.38735 17.25 4.72652 17.25 5.07959V8.92334L17.2434 9.05444C17.2132 9.35923 17.0788 9.64602 16.8604 9.8645C16.6419 10.083 16.3551 10.2173 16.0503 10.2476L15.9185 10.2542H14.7048V9.12915H15.9185L15.9595 9.12549C15.999 9.11753 16.036 9.09804 16.0649 9.06909C16.0939 9.04011 16.1134 9.0032 16.1213 8.96362L16.125 8.92334Z" fill="#F5F5F7"/>
<path d="M10.5303 9.1294L10.5874 9.13233C10.8711 9.16111 11.0928 9.40063 11.0928 9.6919C11.0926 9.98305 10.871 10.2227 10.5874 10.2515L10.5303 10.2544H7.45483C7.14434 10.2543 6.89249 10.0024 6.89233 9.6919C6.89233 9.38128 7.14424 9.12948 7.45483 9.1294H10.5303ZM6.12402 6.59668V4.573C6.12402 4.26234 6.37586 4.0105 6.68652 4.0105C6.99705 4.01066 7.24902 4.26244 7.24902 4.573V6.59668C7.24885 6.90709 6.99694 7.15902 6.68652 7.15918C6.37597 7.15918 6.1242 6.90719 6.12402 6.59668ZM10.7361 6.59668V4.573C10.7361 4.26239 10.988 4.01058 11.2986 4.0105C11.6092 4.0105 11.8611 4.26234 11.8611 4.573V6.59668C11.8609 6.90719 11.6091 7.15918 11.2986 7.15918C10.9881 7.1591 10.7363 6.90714 10.7361 6.59668ZM1.51123 4.31006V1.23535C1.51123 0.924693 1.76307 0.672853 2.07373 0.672853C2.38439 0.672853 2.63623 0.924693 2.63623 1.23535V4.31006C2.63623 4.62072 2.38439 4.87256 2.07373 4.87256C1.76307 4.87256 1.51123 4.62072 1.51123 4.31006ZM16.4812 4.30933C16.4818 4.61981 16.2307 4.87177 15.9202 4.87256C15.6095 4.87332 15.357 4.62218 15.3562 4.31153L16.4812 4.30933ZM15.9099 0.672853C16.2012 0.672169 16.4416 0.893056 16.4709 1.17676L16.4739 1.23389L16.4812 4.30933L15.9187 4.31006L15.3562 4.31153L15.3489 1.23682L15.3518 1.17896C15.38 0.895376 15.6188 0.673563 15.9099 0.672853Z" fill="#F5F5F7"/>
</svg>
