<svg width="25" height="24" viewBox="0 0 25 24" fill="none" xmlns="http://www.w3.org/2000/svg">
<g clip-path="url(#clip0_328_2679)">
<path d="M12.3247 24C18.9521 24 24.3247 18.6274 24.3247 12C24.3247 5.37258 18.9521 0 12.3247 0C5.69729 0 0.324707 5.37258 0.324707 12C0.324707 18.6274 5.69729 24 12.3247 24Z" fill="#EDF0F4"/>
<path d="M12.2925 4.80005L12.197 5.12431V14.5326L12.2925 14.6279L16.6596 12.0464L12.2925 4.80005Z" fill="#343434"/>
<path d="M12.2918 4.80005L7.92456 12.0464L12.2918 14.6279V10.0614V4.80005Z" fill="#8C8C8C"/>
<path d="M12.2921 15.4548L12.2383 15.5204V18.8718L12.2921 19.0288L16.6619 12.8746L12.2921 15.4548Z" fill="#3C3C3B"/>
<path d="M12.2918 19.0288V15.4548L7.92456 12.8746L12.2918 19.0288Z" fill="#8C8C8C"/>
<path d="M12.292 14.6279L16.6592 12.0464L12.292 10.0614V14.6279Z" fill="#141414"/>
<path d="M7.92456 12.0464L12.2918 14.6279V10.0613L7.92456 12.0464Z" fill="#393939"/>
</g>
<defs>
<clipPath id="clip0_328_2679">
<rect width="24" height="24" fill="white" transform="translate(0.324707)"/>
</clipPath>
</defs>
</svg>
