<svg width="25" height="24" viewBox="0 0 25 24" fill="none" xmlns="http://www.w3.org/2000/svg">
<g clip-path="url(#clip0_328_2871)">
<path d="M24.3247 12C24.3247 5.37258 18.9521 0 12.3247 0C5.69729 0 0.324707 5.37258 0.324707 12C0.324707 18.6274 5.69729 24 12.3247 24C18.9521 24 24.3247 18.6274 24.3247 12Z" fill="#7B2BF9"/>
<path d="M21.119 10.1255C20.7663 8.4348 19.9288 6.8862 18.6798 5.63653C16.9802 3.93602 14.7222 3 12.3174 3C9.91248 3 7.6545 3.93112 5.95491 5.63164C5.53859 6.04819 5.17613 6.49415 4.85777 6.96461C4.76471 7.09202 4.67654 7.22434 4.60307 7.36646C3.77042 8.75333 3.32471 10.3362 3.32471 11.9975C3.32471 14.4038 4.26022 16.663 5.95981 18.3635C7.6594 20.064 9.91736 21 12.3222 21C14.7272 21 16.9851 20.064 18.6847 18.3635C19.4831 17.5646 20.1198 16.6336 20.5656 15.629C20.6194 15.5211 20.6635 15.4035 20.7075 15.2859C21.1141 14.2568 21.3247 13.1443 21.3247 12.0025C21.3247 11.3997 21.2659 10.8263 21.1484 10.248C21.1435 10.2186 21.1239 10.1451 21.119 10.1255ZM17.999 6.01388C18.048 6.06289 18.1019 6.1119 18.1557 6.1658C18.9492 6.95971 19.5663 7.89082 19.9728 8.90032C20.0121 8.99835 19.9288 9.11107 19.8162 9.0915C19.581 9.0474 19.3116 9.0327 19.0178 9.03758C18.8121 9.04245 18.6309 8.89545 18.5965 8.6994C18.4349 7.79775 18.1998 6.96951 17.9059 6.24421C17.8912 6.20501 17.8716 6.1658 17.8569 6.1168C17.8178 6.02369 17.9304 5.94037 17.999 6.01388ZM18.8562 11.2919C18.8562 11.1988 18.9737 11.1547 19.0325 11.233C19.0962 11.3262 19.1647 11.4241 19.2284 11.5173C19.3116 11.6447 19.39 11.7722 19.4586 11.8995C19.5027 11.978 19.4928 12.076 19.4341 12.1446C19.341 12.2475 19.2333 12.3602 19.1206 12.4729C19.0815 12.5121 19.0374 12.5562 18.9933 12.6003C18.9394 12.6494 18.8463 12.6101 18.8512 12.5415C18.8562 12.4043 18.861 12.272 18.861 12.1299C18.8659 11.8407 18.8659 11.5663 18.8562 11.2919ZM7.52715 5.27389C8.91821 4.27906 10.5737 3.74489 12.3174 3.74489C12.7778 3.74489 13.2333 3.7841 13.679 3.85271C13.7965 3.87231 13.8406 4.02423 13.7427 4.09774C13.3116 4.43588 12.9149 4.93575 12.5574 5.58263C12.4741 5.74435 12.288 5.81786 12.1116 5.76885C10.9362 5.44052 9.78018 5.28369 8.71248 5.318C8.31573 5.3327 7.94838 5.3719 7.59572 5.43561C7.49777 5.46011 7.44878 5.3327 7.52715 5.27389ZM6.35165 17.6088C6.17532 17.2853 6.40062 16.5257 7.54185 15.3692C7.6594 15.2516 7.6496 15.0556 7.51736 14.9477C7.47328 14.9135 7.42919 14.8791 7.38022 14.84C7.26756 14.7517 7.10103 14.7566 6.99818 14.8595C6.97369 14.8841 6.95899 14.8988 6.95409 14.9036C6.38593 15.4868 5.9843 16.0308 5.76389 16.5208C5.70022 16.663 5.50919 16.6777 5.42593 16.5453C4.5394 15.2123 4.0643 13.6441 4.0643 12.0025C4.0643 11.4193 4.12307 10.8361 4.24552 10.2774C4.26512 10.1942 4.38266 10.1892 4.41206 10.2725C4.58348 10.8361 4.86266 11.4242 5.24471 12.0122C5.76389 12.8062 6.44471 13.5707 7.25777 14.2763C7.53206 14.5165 7.82591 14.7468 8.13453 14.9722C8.75651 15.428 9.42266 15.8446 10.1378 16.2121C10.4512 16.3787 10.7647 16.5306 11.0782 16.6777C11.2545 16.7561 11.4553 16.7609 11.6316 16.6924C11.7835 16.6336 11.9304 16.5747 12.0822 16.511C12.2488 16.4424 12.3369 16.266 12.2929 16.0896C12.288 16.07 12.2831 16.0504 12.2831 16.0406C12.0333 14.9967 11.8962 13.8157 11.8765 12.5856C11.8765 12.5709 11.8765 12.2916 11.8765 12.0025C11.8765 11.7133 11.8863 11.581 11.8962 11.3703C11.9696 9.8805 12.2243 8.48378 12.6259 7.30275C12.6602 7.19494 12.6063 7.07732 12.4937 7.03811C12.3909 7.00381 12.2831 6.96951 12.1753 6.9352C12.0725 6.9009 11.9549 6.95971 11.9157 7.06752C11.4798 8.3466 11.2104 9.86085 11.1419 11.4634C11.1321 11.6692 11.0243 11.8554 10.848 11.9584C9.89778 12.5219 9.03086 13.1198 8.27163 13.7176C8.11488 13.8451 7.88958 13.8353 7.73777 13.7079C6.98348 13.0512 6.34675 12.3406 5.86675 11.6006C4.92144 10.15 4.69613 8.78768 5.23491 7.75358L5.23981 7.7487C5.30838 7.63598 5.38185 7.52325 5.45532 7.41547C6.07246 6.60196 7.21859 6.1266 8.74188 6.07269C8.83488 6.06779 8.93778 6.06779 9.03086 6.06779C9.96633 6.06779 10.9656 6.22461 11.9843 6.51865C12.0039 6.52355 12.1509 6.56765 12.1802 6.57746C12.4398 6.66077 12.8806 6.81269 12.9394 6.83229C12.9639 6.84209 13.101 6.89599 13.1206 6.9009C13.6202 7.09692 14.1149 7.31745 14.6047 7.5723C15.5549 8.06722 16.4219 8.64555 17.1859 9.2826C15.741 9.61095 14.061 10.253 12.3712 11.1105C12.2929 11.1497 12.239 11.2282 12.2341 11.3164C12.2292 11.4193 12.2194 11.63 12.2145 11.8015C12.2096 11.9045 12.3222 11.978 12.4153 11.929C14.0904 11.0468 15.7606 10.3951 17.1957 10.0422C17.4651 9.97852 17.6365 9.72367 17.6022 9.44925C17.5778 9.25807 17.5484 9.06698 17.5141 8.88562C17.4749 8.6553 17.3427 8.44462 17.1615 8.30737C16.4904 7.79775 15.7509 7.32725 14.9574 6.9107C14.4235 6.63136 13.8847 6.39123 13.3362 6.18051C13.2235 6.1364 13.1696 5.99918 13.2333 5.89137C13.7916 4.89164 14.4578 4.33297 15.1092 4.33297C15.1141 4.33297 15.1239 4.33297 15.1288 4.33297C15.8929 4.34767 16.6521 5.14157 17.2202 6.51865C17.5043 7.21454 17.7247 8.01825 17.8815 8.89058C17.9256 9.1356 17.9598 9.3855 17.9892 9.64035C18.0039 9.77265 18.0284 9.97358 18.0431 10.0618C18.1068 10.7234 18.1312 11.4144 18.1215 12.1152C18.1116 12.5612 18.0921 13.0021 18.0529 13.4285C17.0292 14.2519 15.7656 15.08 14.3745 15.8151C13.9974 16.0111 13.6202 16.2023 13.248 16.3787C13.1696 16.418 12.8463 16.56 12.8268 16.5698C12.4741 16.7315 12.1263 16.8736 11.7786 17.0109C11.759 17.0207 11.3672 17.1677 11.3427 17.1775C11.3133 17.1873 11.1125 17.2608 11.088 17.2706C10.3386 17.5352 9.61856 17.7361 8.96223 17.8636C7.30185 18.1822 6.52307 17.9371 6.35165 17.6088ZM8.60958 14.4037C9.33453 13.8157 10.1868 13.2178 11.1222 12.6591C11.1419 13.8549 11.2741 15.0065 11.5092 16.0406C11.1663 15.8887 10.8186 15.7318 10.4757 15.5505C9.80958 15.2074 9.18266 14.8203 8.60958 14.4037ZM13.3802 20.1865C13.0325 20.2306 12.6749 20.2551 12.3174 20.2551C10.7109 20.2551 9.17778 19.7993 7.86513 18.9515C7.77695 18.8927 7.81613 18.7506 7.91898 18.7457C7.93856 18.7457 7.96308 18.7457 7.97778 18.7408C8.31086 18.7212 8.67821 18.6722 9.07488 18.5938C9.91736 18.4272 10.8578 18.1527 11.8422 17.7754C11.9304 17.7411 12.0284 17.7852 12.0675 17.8734C12.4496 18.8045 12.9149 19.5053 13.4488 19.9513C13.5419 20.0296 13.4978 20.1718 13.3802 20.1865ZM16.8725 17.9813C16.2847 19.1427 15.5598 19.7896 14.8545 19.7749C14.0904 19.7602 13.3312 18.9662 12.7631 17.5891C12.7288 17.5058 12.768 17.4029 12.8512 17.3637C12.8562 17.3588 12.861 17.3588 12.8709 17.3539C12.9051 17.3392 12.9492 17.3343 12.9884 17.3441C14.0415 17.6382 15.0847 17.795 16.0594 17.795C16.1622 17.795 16.27 17.795 16.3728 17.7901C16.4904 17.7852 16.6129 17.7803 16.7304 17.7705C16.8431 17.7705 16.9215 17.8832 16.8725 17.9813ZM17.1272 16.9815C16.8822 17.0158 16.6227 17.0403 16.3533 17.0501C15.6921 17.0746 14.9916 17.0158 14.2765 16.8835C14.1884 16.8688 14.1737 16.7462 14.2521 16.7071C14.4088 16.6286 14.5656 16.5453 14.7222 16.462C15.8194 15.8788 16.848 15.2418 17.7443 14.59C17.808 14.541 17.9059 14.5998 17.8912 14.6782C17.7639 15.428 17.5974 16.1337 17.3769 16.7708C17.3328 16.8884 17.2398 16.9668 17.1272 16.9815ZM18.3468 17.6382C18.288 17.7019 18.2194 17.7705 18.1557 17.8342C18.048 17.942 17.9256 18.0547 17.8129 18.1576C17.7394 18.2213 17.6268 18.143 17.6659 18.0548C17.6757 18.0302 17.6904 18.0057 17.7002 17.9763C17.7492 17.8685 17.7933 17.7558 17.8472 17.6431C17.8569 17.6185 17.8815 17.599 17.9059 17.5891C18.0186 17.5597 18.1362 17.5255 18.2439 17.4911C18.3419 17.4617 18.4104 17.5744 18.3468 17.6382ZM20.0022 15.0212C19.968 15.1045 19.9386 15.1879 19.8994 15.2712C19.8896 15.2859 19.8406 15.3888 19.8357 15.4035C19.5615 15.9082 19.1109 16.3052 18.5231 16.5845C18.3859 16.6483 18.239 16.5257 18.2782 16.3787C18.4839 15.6534 18.6309 14.8694 18.7337 14.0411C18.7533 13.8843 18.8268 13.747 18.9443 13.6441C19.1941 13.4285 19.4292 13.208 19.6447 12.9924C19.7475 12.8895 19.9288 12.9336 19.9728 13.0757C20.1835 13.7863 20.1982 14.4478 20.0022 15.0212ZM20.1688 11.1547C20.11 11.2625 19.9484 11.2673 19.8798 11.1644C19.87 11.1497 19.8602 11.1301 19.8504 11.1154C19.6056 10.7332 19.3215 10.3657 19.008 10.003C18.9296 9.91478 18.9933 9.7776 19.1109 9.77265H19.1157C19.8553 9.77265 20.2422 9.95888 20.3598 10.1795C20.4529 10.3657 20.4235 10.694 20.1688 11.1547ZM20.5704 12.2425C20.5704 12.2965 20.4921 12.3112 20.4725 12.2622C20.4627 12.2425 20.4529 12.2181 20.4431 12.1985C20.4235 12.1593 20.4284 12.1102 20.4578 12.071C20.4627 12.0661 20.4725 12.0514 20.4872 12.0319C20.5215 11.9878 20.5753 11.9927 20.5753 12.0416C20.5704 12.1103 20.5704 12.174 20.5704 12.2425Z" fill="white"/>
</g>
<defs>
<clipPath id="clip0_328_2871">
<rect width="24" height="24" fill="white" transform="translate(0.324707)"/>
</clipPath>
</defs>
</svg>
