<svg width="25" height="24" viewBox="0 0 25 24" fill="none" xmlns="http://www.w3.org/2000/svg">
<g clip-path="url(#clip0_328_3105)">
<path d="M12.3247 24C18.9521 24 24.3247 18.6274 24.3247 12C24.3247 5.37258 18.9521 0 12.3247 0C5.69729 0 0.324707 5.37258 0.324707 12C0.324707 18.6274 5.69729 24 12.3247 24Z" fill="#2E3148"/>
<path d="M12.3248 18.9629C16.1703 18.9629 19.2878 15.8455 19.2878 12C19.2878 8.15442 16.1703 5.03699 12.3248 5.03699C8.47925 5.03699 5.36182 8.15442 5.36182 12C5.36182 15.8455 8.47925 18.9629 12.3248 18.9629Z" fill="#1B1E36"/>
<path d="M12.3493 1.53088C11.054 1.53088 10.0037 6.22912 10.0037 12.0247C10.0037 17.8204 11.054 22.5186 12.3493 22.5186C13.6447 22.5186 14.695 17.8204 14.695 12.0247C14.695 6.22912 13.6447 1.53088 12.3493 1.53088ZM12.5113 21.9264C12.3631 22.1239 12.215 21.9757 12.215 21.9757C11.6185 21.2845 11.3202 20.0004 11.3202 20.0004C10.2768 16.6424 10.5251 9.43255 10.5251 9.43255C11.0155 3.70864 11.9075 2.35648 12.2111 2.05629C12.2421 2.02565 12.2829 2.00693 12.3263 2.00342C12.3698 1.99991 12.4131 2.01183 12.4486 2.03709C12.889 2.34919 13.2584 3.6544 13.2584 3.6544C14.3493 7.70378 14.2505 11.5062 14.2505 11.5062C14.3493 14.8149 13.7039 18.5186 13.7039 18.5186C13.2071 21.3333 12.5113 21.9264 12.5113 21.9264Z" fill="#6F7390"/>
<path d="M21.4516 6.80247C20.8067 5.6785 16.2091 7.10564 11.1796 9.98967C6.15005 12.8737 2.60227 16.123 3.24672 17.2465C3.89117 18.37 8.48919 16.9433 13.5187 14.0593C18.5483 11.1753 22.096 7.92596 21.4516 6.80247ZM3.84173 17.0923C3.59482 17.0612 3.65059 16.8583 3.65059 16.8583C3.95347 15.9971 4.91731 15.0993 4.91731 15.0993C7.31184 12.523 13.6897 9.15063 13.6897 9.15063C18.8981 6.7274 20.5159 6.82964 20.9263 6.94263C20.9684 6.95439 21.005 6.98068 21.0296 7.01684C21.0542 7.053 21.0652 7.0967 21.0607 7.1402C21.0113 7.6778 20.0606 8.6474 20.0606 8.6474C17.0931 11.6099 13.7455 13.4168 13.7455 13.4168C10.9247 15.1496 7.39095 16.432 7.39095 16.432C4.70208 17.401 3.84183 17.0923 3.84183 17.0923H3.84173Z" fill="#6F7390"/>
<path d="M21.4289 17.284C22.0788 16.163 18.54 12.8988 13.5281 9.99304C8.51625 7.08731 3.91929 5.64251 3.26995 6.76542C2.6206 7.88834 6.15887 11.1506 11.1736 14.0563C16.1884 16.9621 20.7796 18.407 21.4289 17.284ZM3.7006 7.19858C3.6046 6.97096 3.80726 6.91614 3.80726 6.91614C4.70447 6.7467 5.96476 7.13282 5.96476 7.13282C9.3934 7.91358 15.5072 11.7432 15.5072 11.7432C20.2143 15.0371 20.9362 16.4879 21.0444 16.8998C21.0554 16.942 21.0512 16.9868 21.0324 17.0262C21.0136 17.0656 20.9815 17.0971 20.9417 17.1151C20.4509 17.3398 19.1362 17.005 19.1362 17.005C15.0844 15.9185 11.8439 13.928 11.8439 13.928C8.93231 12.3576 6.05327 9.9413 6.05327 9.9413C3.86563 8.09934 3.70127 7.20107 3.70127 7.20107L3.7006 7.19858Z" fill="#6F7390"/>
<path d="M12.3246 13.2345C13.0065 13.2345 13.5592 12.6818 13.5592 11.9999C13.5592 11.3181 13.0065 10.7654 12.3246 10.7654C11.6428 10.7654 11.0901 11.3181 11.0901 11.9999C11.0901 12.6818 11.6428 13.2345 12.3246 13.2345Z" fill="#B7B9C8"/>
<path d="M17.3865 8.00003C17.7819 8.00003 18.1025 7.66839 18.1025 7.25929C18.1025 6.85019 17.7819 6.51855 17.3865 6.51855C16.991 6.51855 16.6704 6.85019 16.6704 7.25929C16.6704 7.66839 16.991 8.00003 17.3865 8.00003Z" fill="#B7B9C8"/>
<path d="M5.6333 10.5186C6.02877 10.5186 6.34936 10.1869 6.34936 9.77785C6.34936 9.36875 6.02877 9.03711 5.6333 9.03711C5.23783 9.03711 4.91724 9.36875 4.91724 9.77785C4.91724 10.1869 5.23783 10.5186 5.6333 10.5186Z" fill="#B7B9C8"/>
<path d="M10.8679 19.6049C11.2634 19.6049 11.584 19.2732 11.584 18.8641C11.584 18.4551 11.2634 18.1234 10.8679 18.1234C10.4724 18.1234 10.1519 18.4551 10.1519 18.8641C10.1519 19.2732 10.4724 19.6049 10.8679 19.6049Z" fill="#B7B9C8"/>
</g>
<defs>
<clipPath id="clip0_328_3105">
<rect width="24" height="24" fill="white" transform="translate(0.324707)"/>
</clipPath>
</defs>
</svg>
