<svg width="25" height="24" viewBox="0 0 25 24" fill="none" xmlns="http://www.w3.org/2000/svg">
<g clip-path="url(#clip0_328_2956)">
<path d="M23.9659 14.9029C22.3632 21.3315 15.852 25.2438 9.42266 23.6408C2.99597 22.0381 -0.916371 15.5265 0.687019 9.0984C2.289 2.66902 8.80016 -1.24361 15.2276 0.359081C21.6565 1.96177 25.5687 8.47395 23.9659 14.9029Z" fill="white"/>
<path d="M18.32 5.66068L13.2834 10.6972C13.0197 10.9611 12.6738 11.0929 12.3281 11.0929C11.9823 11.0929 11.6366 10.9611 11.3728 10.6972L6.33618 5.66068L8.24688 3.75L12.3281 7.8312L16.4094 3.75L18.32 5.66068Z" fill="#09090D"/>
<path d="M16.4935 11.9965L20.5747 16.0776L18.664 17.9884L13.6274 12.9518C13.0998 12.4241 13.0998 11.5688 13.6274 11.0411L18.664 6.00452L20.5747 7.91522L16.4935 11.9965Z" fill="#09090D"/>
<path d="M16.4024 20.25L12.3212 16.1688L8.23996 20.25L6.32935 18.3393L11.3659 13.3028C11.8935 12.7752 12.7489 12.7752 13.2766 13.3028L18.3131 18.3393L16.4024 20.25Z" fill="#09090D"/>
<path d="M11.4177 12.0035C11.4177 12.3619 11.2753 12.7055 11.022 12.9589L5.98539 17.9954L4.07471 16.0847L8.15598 12.0034L4.07471 7.9223L5.98539 6.0116L11.022 11.0482C11.2753 11.3015 11.4177 11.6452 11.4177 12.0035Z" fill="#09090D"/>
</g>
<defs>
<clipPath id="clip0_328_2956">
<rect width="24" height="24" fill="white" transform="translate(0.324707)"/>
</clipPath>
</defs>
</svg>
