<svg width="25" height="24" viewBox="0 0 25 24" fill="none" xmlns="http://www.w3.org/2000/svg">
<g clip-path="url(#clip0_328_2749)">
<mask id="mask0_328_2749" style="mask-type:luminance" maskUnits="userSpaceOnUse" x="0" y="0" width="25" height="24">
<path d="M24.3247 0H0.324707V24H24.3247V0Z" fill="white"/>
</mask>
<g mask="url(#mask0_328_2749)">
<path d="M23.963 14.9029C22.3603 21.3315 15.8491 25.2438 9.41973 23.6408C2.99304 22.0381 -0.919302 15.5265 0.68409 9.0984C2.28607 2.66902 8.79723 -1.24361 15.2247 0.359081C21.6536 1.96177 25.5658 8.47395 23.963 14.9029Z" fill="white"/>
<path d="M20.5269 6.18167C20.3436 5.47612 19.7547 4.77056 18.6945 3.98512C17.8437 3.35944 16.9407 3 16.2208 3C16.0768 3 15.9459 3.01331 15.8151 3.03994C15.4878 3.1065 15.1998 3.34613 15.0167 3.70556C14.7942 4.13156 14.7418 4.704 14.8858 5.05011C14.9382 5.15661 15.0036 5.28973 15.0822 5.40954C14.3884 5.83555 13.9957 5.95536 13.9434 5.96867C15.7497 6.58104 17.2548 7.85903 18.1971 9.52313L18.2103 9.36337C18.2495 8.92403 18.3804 8.41815 18.5637 7.899C18.7468 7.95225 18.9301 7.97888 19.1133 7.97888C19.5976 7.97888 20.0164 7.77915 20.2782 7.41973C20.54 7.06029 20.6446 6.58104 20.5269 6.18167Z" fill="#5E12A0"/>
<path d="M18.6424 7.51328C19.8334 7.84605 20.3177 6.91421 20.1606 6.28853C19.9905 5.66283 19.4407 5.02383 18.4722 4.30497C17.5037 3.5861 16.5221 3.29322 15.8938 3.42634C15.2656 3.55947 15.0824 4.53128 15.2394 4.90402C15.3049 5.05046 15.4488 5.26346 15.6452 5.50308C15.3965 5.67614 15.1609 5.80926 14.9646 5.92907C16.1687 6.47489 17.2158 7.32689 18.001 8.3919C18.0926 8.03243 18.2236 7.71293 18.3414 7.43339C18.433 7.4467 18.5377 7.47333 18.6424 7.51328Z" fill="url(#paint0_radial_328_2749)"/>
<path d="M11.8227 20.5601C15.8634 20.5601 19.1391 17.2283 19.1391 13.1184C19.1391 9.00849 15.8634 5.67676 11.8227 5.67676C7.782 5.67676 4.50635 9.00849 4.50635 13.1184C4.50635 17.2283 7.782 20.5601 11.8227 20.5601Z" fill="url(#paint1_radial_328_2749)"/>
<path opacity="0.6" d="M19.5586 5.67575C18.5638 4.61076 17.7262 4.33119 16.7183 4.10489C15.9331 3.91851 16.1425 3.46589 17.098 3.55907C16.6399 3.39932 16.208 3.35939 15.8938 3.42595C15.2656 3.55907 15.0824 4.53088 15.2394 4.90363C15.3048 5.05006 15.4488 5.26307 15.6452 5.50269C15.2918 5.74232 14.9907 5.91537 14.7419 6.0485C14.8598 6.10175 15.0038 6.16831 15.1739 6.2615C15.6189 6.50112 16.1032 6.90049 16.1032 6.90049C15.3703 6.2615 15.5273 5.96862 16.5351 5.24975C16.8493 5.02345 17.4251 5.05006 17.9618 5.32963C18.4984 5.60918 19.1266 6.31474 19.1266 6.31474L18.5246 7.48625C18.5638 7.49955 18.6031 7.51283 18.6424 7.52618C19.0219 7.63268 19.3229 7.60605 19.5586 7.5129C19.8335 7.3398 20.5532 6.75406 19.5586 5.67575Z" fill="#A98698"/>
<path d="M16.7051 4.74463C16.9669 4.85113 17.3072 5.0375 17.726 5.31707C18.2234 5.64988 18.6553 6.02263 18.9302 6.31549C18.4721 6.92787 18.171 7.76652 17.9879 8.35227C18.0795 8.48539 18.1841 8.61852 18.2758 8.75164C18.3674 8.41887 18.5243 7.92627 18.7338 7.43374C18.7862 7.44706 18.8517 7.44706 18.917 7.44706C19.0741 7.44706 19.2573 7.42043 19.4013 7.30062C19.506 7.22074 19.6239 7.07431 19.6107 6.80806C19.6107 6.55513 19.4144 6.23563 19.0086 5.84956C18.7208 5.57001 18.3281 5.26381 17.9355 4.98426C16.8098 4.22545 16.0245 4.01245 15.6712 4.37188C15.4355 4.61152 15.4617 4.90438 15.5402 5.11738C15.1214 5.39695 14.768 5.59663 14.5325 5.72976C14.6895 5.78301 14.8335 5.84956 14.9906 5.91613C15.4094 5.68981 16.0115 5.30375 16.7051 4.74463ZM19.1789 6.64831C19.2181 6.71487 19.2312 6.78143 19.2312 6.82137C19.2312 6.94119 19.192 6.98112 19.1657 7.00774C19.1134 7.04769 19.0086 7.07431 18.917 7.07431C18.9956 6.91456 19.0872 6.78143 19.1789 6.64831ZM15.9461 4.66476C15.9853 4.62481 16.0901 4.5982 16.2602 4.62481C16.1293 4.73132 15.9984 4.82451 15.8675 4.9177C15.8544 4.82451 15.8675 4.73132 15.9461 4.66476Z" fill="#5E12A0"/>
<path d="M11.823 5.23804C7.5431 5.23804 4.07471 8.7658 4.07471 13.119C4.07471 17.4721 7.5431 21 11.823 21C16.1028 21 19.5713 17.4721 19.5713 13.119C19.5713 8.7658 16.0898 5.23804 11.823 5.23804ZM11.823 20.5606C7.7787 20.5606 4.50662 17.2326 4.50662 13.119C4.50662 9.00543 7.7787 5.67734 11.823 5.67734C15.8673 5.67734 19.1394 9.00543 19.1394 13.119C19.1394 17.2326 15.8543 20.5606 11.823 20.5606Z" fill="#5E12A0"/>
<path opacity="0.6" d="M11.8227 20.5601C15.8634 20.5601 19.1391 17.2283 19.1391 13.1184C19.1391 9.00849 15.8634 5.67676 11.8227 5.67676C7.782 5.67676 4.50635 9.00849 4.50635 13.1184C4.50635 17.2283 7.782 20.5601 11.8227 20.5601Z" fill="url(#paint2_linear_328_2749)"/>
<path opacity="0.6" d="M11.7712 19.6556C7.77932 19.0033 5.07004 15.1826 5.72444 11.1224C6.0124 9.32515 6.9024 7.79425 8.15886 6.68933C6.32652 7.76763 4.96533 9.64465 4.59886 11.9344C3.95753 15.9947 6.66681 19.8153 10.6456 20.4677C12.8707 20.8404 15.0172 20.1348 16.6009 18.7504C15.2004 19.5758 13.4989 19.9353 11.7712 19.6556Z" fill="#A98698"/>
<path opacity="0.6" d="M12.9875 5.78313C11.142 5.47694 9.34893 5.90294 7.88306 6.84813C7.85688 6.87474 7.83071 6.90137 7.83071 6.90137C8.39351 6.55526 9.21806 6.24906 9.21806 6.24906C7.09778 7.50045 6.44336 8.92485 6.44336 8.92485C7.26793 7.30074 9.68928 6.15588 11.5871 6.07601C13.4848 5.99613 14.7282 6.56856 16.2465 7.8066C17.7647 9.05798 18.6809 11.6139 18.5893 13.6375C18.5108 15.6611 17.4637 17.2984 17.4637 17.2984C18.1836 16.3532 18.6155 15.6611 18.8904 14.9553C18.9427 14.7424 18.9951 14.5295 19.0212 14.3031C19.6757 10.2561 16.9794 6.43544 12.9875 5.78313Z" fill="url(#paint3_linear_328_2749)"/>
<path d="M18.7728 13.052C18.7728 16.9525 15.6576 20.121 11.8229 20.121C7.98798 20.121 4.85986 16.9525 4.85986 13.052H18.7728Z" fill="url(#paint4_linear_328_2749)"/>
<g opacity="0.6">
<path opacity="0.6" d="M18.2226 13.052C18.2226 16.8594 15.2647 19.9744 11.5476 20.121C11.6392 20.121 11.7308 20.121 11.8224 20.121C15.6573 20.121 18.7724 16.9525 18.7724 13.052H18.2226Z" fill="url(#paint5_linear_328_2749)"/>
</g>
<g opacity="0.7">
<path opacity="0.7" d="M5.84149 13.052H4.85986C4.85986 16.9525 7.97485 20.121 11.8098 20.121C11.9799 20.121 12.137 20.121 12.294 20.1076C8.69478 19.8413 5.84149 16.7795 5.84149 13.052Z" fill="url(#paint6_linear_328_2749)"/>
</g>
<path d="M18.7597 13.1179C18.7597 12.3059 17.3724 11.8398 15.5268 11.6802C14.1918 11.5737 12.8438 11.7067 11.2993 12.186C9.9643 12.5854 8.76018 12.5188 7.88328 12.4122C5.9331 12.186 4.85986 12.1593 4.85986 13.1179C4.85986 14.5024 7.63458 16.233 11.7967 15.6339C13.9039 15.3278 14.9902 14.7021 16.2336 14.2761C17.5818 13.8234 18.7597 13.8368 18.7597 13.1179Z" fill="url(#paint7_linear_328_2749)"/>
<path d="M14.1002 9.76365C14.7509 9.76365 15.2782 9.22725 15.2782 8.56553C15.2782 7.90388 14.7509 7.36743 14.1002 7.36743C13.4498 7.36743 12.9224 7.90388 12.9224 8.56553C12.9224 9.22725 13.4498 9.76365 14.1002 9.76365Z" fill="white"/>
<path d="M16.0244 10.6555C16.2991 10.6555 16.5218 10.429 16.5218 10.1497C16.5218 9.8703 16.2991 9.6438 16.0244 9.6438C15.7498 9.6438 15.5271 9.8703 15.5271 10.1497C15.5271 10.429 15.7498 10.6555 16.0244 10.6555Z" fill="white"/>
<g opacity="0.6">
<path opacity="0.6" d="M17.8042 7.60833C17.7911 7.60833 17.778 7.60833 17.778 7.60833C17.6994 7.59505 17.6471 7.51518 17.6602 7.42197C17.778 6.80959 18.2753 6.22386 18.3015 6.19723C18.3538 6.13067 18.4586 6.13067 18.5109 6.18391C18.5764 6.23716 18.5764 6.34366 18.524 6.39691C18.5109 6.41023 18.0528 6.95603 17.9482 7.48854C17.9351 7.56843 17.8696 7.60833 17.8042 7.60833Z" fill="url(#paint8_linear_328_2749)"/>
</g>
<path opacity="0.2" d="M11.3402 18.6688C11.5425 18.6688 11.7066 18.5019 11.7066 18.296C11.7066 18.0902 11.5425 17.9232 11.3402 17.9232C11.1377 17.9232 10.9736 18.0902 10.9736 18.296C10.9736 18.5019 11.1377 18.6688 11.3402 18.6688Z" fill="white"/>
<g opacity="0.4">
<path opacity="0.6" d="M11.1291 18.5391C10.9851 18.3926 10.9851 18.1531 11.1291 18.0065C11.1553 17.9799 11.1814 17.9666 11.2076 17.9399C11.1553 17.9534 11.116 17.9799 11.0767 18.0199C10.9327 18.1663 10.9327 18.406 11.0767 18.5524C11.1945 18.6722 11.3777 18.6989 11.5217 18.619C11.3908 18.6722 11.2338 18.6457 11.1291 18.5391Z" fill="url(#paint9_linear_328_2749)"/>
</g>
<path opacity="0.3" d="M11.4692 18.1901C11.5125 18.1901 11.5477 18.1544 11.5477 18.1103C11.5477 18.0662 11.5125 18.0304 11.4692 18.0304C11.4258 18.0304 11.3906 18.0662 11.3906 18.1103C11.3906 18.1544 11.4258 18.1901 11.4692 18.1901Z" fill="white"/>
<path opacity="0.2" d="M13.2519 18.4832C13.4544 18.4832 13.6184 18.3162 13.6184 18.1104C13.6184 17.9044 13.4544 17.7375 13.2519 17.7375C13.0495 17.7375 12.8855 17.9044 12.8855 18.1104C12.8855 18.3162 13.0495 18.4832 13.2519 18.4832Z" fill="white"/>
<g opacity="0.4">
<path opacity="0.6" d="M13.0407 18.3534C12.8967 18.2068 12.8967 17.9672 13.0407 17.8207C13.0668 17.7941 13.093 17.7808 13.1191 17.7543C13.0668 17.7675 13.0276 17.7941 12.9883 17.8341C12.8444 17.9805 12.8444 18.2202 12.9883 18.3666C13.1062 18.4865 13.2893 18.513 13.4333 18.4331C13.3025 18.4865 13.1455 18.4599 13.0407 18.3534Z" fill="url(#paint10_linear_328_2749)"/>
</g>
<path opacity="0.3" d="M13.3806 18.0042C13.424 18.0042 13.4591 17.9685 13.4591 17.9244C13.4591 17.8803 13.424 17.8445 13.3806 17.8445C13.3372 17.8445 13.302 17.8803 13.302 17.9244C13.302 17.9685 13.3372 18.0042 13.3806 18.0042Z" fill="white"/>
<path opacity="0.2" d="M12.3065 19.3496C12.4584 19.3496 12.5814 19.2244 12.5814 19.0701C12.5814 18.9157 12.4584 18.7904 12.3065 18.7904C12.1548 18.7904 12.0317 18.9157 12.0317 19.0701C12.0317 19.2244 12.1548 19.3496 12.3065 19.3496Z" fill="white"/>
<g opacity="0.4">
<path opacity="0.6" d="M12.1495 19.2448C12.0448 19.1382 12.0448 18.9519 12.1495 18.8453C12.1626 18.832 12.1888 18.8188 12.2018 18.8054C12.1626 18.8188 12.1364 18.8453 12.1103 18.872C12.0056 18.9784 12.0056 19.165 12.1103 19.2714C12.2018 19.3646 12.3328 19.3779 12.4505 19.3114C12.3458 19.3513 12.228 19.3247 12.1495 19.2448Z" fill="url(#paint11_linear_328_2749)"/>
</g>
<path opacity="0.3" d="M12.3985 18.9757C12.4275 18.9757 12.4509 18.9519 12.4509 18.9225C12.4509 18.8931 12.4275 18.8691 12.3985 18.8691C12.3697 18.8691 12.3462 18.8931 12.3462 18.9225C12.3462 18.9519 12.3697 18.9757 12.3985 18.9757Z" fill="white"/>
<path opacity="0.2" d="M13.9955 19.1486C14.1473 19.1486 14.2704 19.0235 14.2704 18.869C14.2704 18.7146 14.1473 18.5895 13.9955 18.5895C13.8438 18.5895 13.7207 18.7146 13.7207 18.869C13.7207 19.0235 13.8438 19.1486 13.9955 19.1486Z" fill="white"/>
<g opacity="0.4">
<path opacity="0.6" d="M13.8385 19.0437C13.7338 18.9372 13.7338 18.7508 13.8385 18.6443C13.8516 18.631 13.8777 18.6177 13.8909 18.6044C13.8516 18.6177 13.8254 18.6443 13.7993 18.671C13.6945 18.7775 13.6945 18.9638 13.7993 19.0704C13.8909 19.1636 14.0217 19.1768 14.1396 19.1103C14.0349 19.1503 13.917 19.1236 13.8385 19.0437Z" fill="url(#paint12_linear_328_2749)"/>
</g>
<path opacity="0.3" d="M14.0881 18.7763C14.117 18.7763 14.1404 18.7524 14.1404 18.723C14.1404 18.6936 14.117 18.6698 14.0881 18.6698C14.0592 18.6698 14.0356 18.6936 14.0356 18.723C14.0356 18.7524 14.0592 18.7763 14.0881 18.7763Z" fill="white"/>
<path opacity="0.2" d="M9.78098 18.5371C10.1135 18.5371 10.3831 18.2628 10.3831 17.9247C10.3831 17.5865 10.1135 17.3123 9.78098 17.3123C9.44851 17.3123 9.17896 17.5865 9.17896 17.9247C9.17896 18.2628 9.44851 18.5371 9.78098 18.5371Z" fill="white"/>
<g opacity="0.4">
<path opacity="0.6" d="M9.44083 18.3094C9.20518 18.0698 9.20518 17.6837 9.44083 17.4441C9.48005 17.4041 9.51935 17.3775 9.5717 17.3508C9.49318 17.3775 9.4277 17.4308 9.36223 17.484C9.12665 17.7236 9.12665 18.1097 9.36223 18.3493C9.55858 18.549 9.85963 18.5889 10.0952 18.4425C9.87268 18.5357 9.61093 18.4957 9.44083 18.3094Z" fill="url(#paint13_linear_328_2749)"/>
</g>
<path opacity="0.3" d="M9.99098 17.7374C10.0633 17.7374 10.1219 17.6778 10.1219 17.6043C10.1219 17.5308 10.0633 17.4712 9.99098 17.4712C9.91868 17.4712 9.86011 17.5308 9.86011 17.6043C9.86011 17.6778 9.91868 17.7374 9.99098 17.7374Z" fill="white"/>
<path opacity="0.2" d="M15.1631 17.0322C15.4956 17.0322 15.7652 16.758 15.7652 16.4198C15.7652 16.0816 15.4956 15.8075 15.1631 15.8075C14.8306 15.8075 14.561 16.0816 14.561 16.4198C14.561 16.758 14.8306 17.0322 15.1631 17.0322Z" fill="white"/>
<g opacity="0.4">
<path opacity="0.6" d="M14.8065 16.806C14.5708 16.5665 14.5708 16.1805 14.8065 15.9408C14.8457 15.9008 14.8851 15.8742 14.9374 15.8475C14.8587 15.8742 14.7934 15.9275 14.728 15.9807C14.4924 16.2203 14.4924 16.6064 14.728 16.846C14.9243 17.0457 15.2253 17.0856 15.4609 16.9392C15.2384 17.0324 14.9896 16.9925 14.8065 16.806Z" fill="url(#paint14_linear_328_2749)"/>
</g>
<path opacity="0.3" d="M15.3699 16.2345C15.4423 16.2345 15.5008 16.1748 15.5008 16.1013C15.5008 16.0277 15.4423 15.9681 15.3699 15.9681C15.2977 15.9681 15.239 16.0277 15.239 16.1013C15.239 16.1748 15.2977 16.2345 15.3699 16.2345Z" fill="white"/>
</g>
</g>
<defs>
<radialGradient id="paint0_radial_328_2749" cx="0" cy="0" r="1" gradientUnits="userSpaceOnUse" gradientTransform="translate(19.9219 5.44982) scale(5.84974 5.94991)">
<stop stop-color="#FFEAFF" stop-opacity="0.6"/>
<stop offset="0.6807" stop-color="#A087C9"/>
<stop offset="1" stop-color="#10002F"/>
</radialGradient>
<radialGradient id="paint1_radial_328_2749" cx="0" cy="0" r="1" gradientUnits="userSpaceOnUse" gradientTransform="translate(18.3901 11.7968) scale(16.383 17.7224)">
<stop stop-color="#FFEAFF" stop-opacity="0.6"/>
<stop offset="0.6807" stop-color="#A087C9"/>
<stop offset="1" stop-color="#10002F"/>
</radialGradient>
<linearGradient id="paint2_linear_328_2749" x1="10.6491" y1="20.4545" x2="13.068" y2="5.78296" gradientUnits="userSpaceOnUse">
<stop stop-color="#81FFFF"/>
<stop offset="0.6202" stop-color="white" stop-opacity="0"/>
</linearGradient>
<linearGradient id="paint3_linear_328_2749" x1="16.9788" y1="8.06445" x2="10.8351" y2="13.6066" gradientUnits="userSpaceOnUse">
<stop offset="0.2888" stop-color="white"/>
<stop offset="0.7796" stop-color="white" stop-opacity="0"/>
</linearGradient>
<linearGradient id="paint4_linear_328_2749" x1="4.86576" y1="16.5823" x2="18.7694" y2="16.5823" gradientUnits="userSpaceOnUse">
<stop stop-color="#0002E9"/>
<stop offset="0.9952" stop-color="#FF00C7"/>
</linearGradient>
<linearGradient id="paint5_linear_328_2749" x1="19.4272" y1="13.6723" x2="11.7383" y2="20.8163" gradientUnits="userSpaceOnUse">
<stop offset="0.2888" stop-color="white"/>
<stop offset="0.7796" stop-color="white" stop-opacity="0"/>
</linearGradient>
<linearGradient id="paint6_linear_328_2749" x1="4.86575" y1="16.5823" x2="12.3041" y2="16.5823" gradientUnits="userSpaceOnUse">
<stop stop-color="#000292"/>
<stop offset="0.9952" stop-color="#7D00C7"/>
</linearGradient>
<linearGradient id="paint7_linear_328_2749" x1="4.87509" y1="13.7052" x2="18.76" y2="13.7052" gradientUnits="userSpaceOnUse">
<stop stop-color="#000292"/>
<stop offset="0.9952" stop-color="#BE00C7"/>
</linearGradient>
<linearGradient id="paint8_linear_328_2749" x1="18.5322" y1="6.1324" x2="17.5094" y2="7.76628" gradientUnits="userSpaceOnUse">
<stop offset="0.2888" stop-color="white"/>
<stop offset="0.7796" stop-color="white" stop-opacity="0"/>
</linearGradient>
<linearGradient id="paint9_linear_328_2749" x1="10.9684" y1="18.3109" x2="11.5221" y2="18.3109" gradientUnits="userSpaceOnUse">
<stop offset="0.2888" stop-color="white"/>
<stop offset="0.7796" stop-color="white" stop-opacity="0"/>
</linearGradient>
<linearGradient id="paint10_linear_328_2749" x1="12.8787" y1="18.1225" x2="13.4323" y2="18.1225" gradientUnits="userSpaceOnUse">
<stop offset="0.2888" stop-color="white"/>
<stop offset="0.7796" stop-color="white" stop-opacity="0"/>
</linearGradient>
<linearGradient id="paint11_linear_328_2749" x1="12.0244" y1="19.0744" x2="12.4401" y2="19.0744" gradientUnits="userSpaceOnUse">
<stop offset="0.2888" stop-color="white"/>
<stop offset="0.7796" stop-color="white" stop-opacity="0"/>
</linearGradient>
<linearGradient id="paint12_linear_328_2749" x1="13.7133" y1="18.8733" x2="14.1291" y2="18.8733" gradientUnits="userSpaceOnUse">
<stop offset="0.2888" stop-color="white"/>
<stop offset="0.7796" stop-color="white" stop-opacity="0"/>
</linearGradient>
<linearGradient id="paint13_linear_328_2749" x1="9.17953" y1="17.939" x2="10.0839" y2="17.939" gradientUnits="userSpaceOnUse">
<stop offset="0.2888" stop-color="white"/>
<stop offset="0.7796" stop-color="white" stop-opacity="0"/>
</linearGradient>
<linearGradient id="paint14_linear_328_2749" x1="14.5503" y1="16.4352" x2="15.4545" y2="16.4352" gradientUnits="userSpaceOnUse">
<stop offset="0.2888" stop-color="white"/>
<stop offset="0.7796" stop-color="white" stop-opacity="0"/>
</linearGradient>
<clipPath id="clip0_328_2749">
<rect width="24" height="24" fill="white" transform="translate(0.324707)"/>
</clipPath>
</defs>
</svg>
