<svg width="33" height="32" viewBox="0 0 33 32" fill="none" xmlns="http://www.w3.org/2000/svg">
<g clip-path="url(#clip0_328_2602)" filter="url(#filter0_d_328_2602)">
<path d="M28.3247 12C28.3247 5.37258 22.9521 0 16.3247 0C9.69729 0 4.32471 5.37258 4.32471 12C4.32471 18.6274 9.69729 24 16.3247 24C22.9521 24 28.3247 18.6274 28.3247 12Z" fill="white"/>
<path fill-rule="evenodd" clip-rule="evenodd" d="M14.0408 6L20.9881 18L23.2889 13.985L18.6422 6H14.0408Z" fill="#ED3524"/>
<path fill-rule="evenodd" clip-rule="evenodd" d="M14.0408 14.2106L16.4318 18H21.2137L18.8227 14.2106H14.0408Z" fill="#AE1E23"/>
<path fill-rule="evenodd" clip-rule="evenodd" d="M11.9657 9.78943L9.57471 13.8947L11.9657 18L16.7927 9.78943H11.9657Z" fill="#ED3524"/>
</g>
<defs>
<filter id="filter0_d_328_2602" x="0.324707" y="0" width="32" height="32" filterUnits="userSpaceOnUse" color-interpolation-filters="sRGB">
<feFlood flood-opacity="0" result="BackgroundImageFix"/>
<feColorMatrix in="SourceAlpha" type="matrix" values="0 0 0 0 0 0 0 0 0 0 0 0 0 0 0 0 0 0 127 0" result="hardAlpha"/>
<feOffset dy="4"/>
<feGaussianBlur stdDeviation="2"/>
<feComposite in2="hardAlpha" operator="out"/>
<feColorMatrix type="matrix" values="0 0 0 0 0 0 0 0 0 0 0 0 0 0 0 0 0 0 0.25 0"/>
<feBlend mode="normal" in2="BackgroundImageFix" result="effect1_dropShadow_328_2602"/>
<feBlend mode="normal" in="SourceGraphic" in2="effect1_dropShadow_328_2602" result="shape"/>
</filter>
<clipPath id="clip0_328_2602">
<rect width="24" height="24" fill="white" transform="translate(4.32471)"/>
</clipPath>
</defs>
</svg>
