<svg width="25" height="24" viewBox="0 0 25 24" fill="none" xmlns="http://www.w3.org/2000/svg">
<g clip-path="url(#clip0_328_3035)">
<mask id="mask0_328_3035" style="mask-type:luminance" maskUnits="userSpaceOnUse" x="0" y="0" width="25" height="24">
<path d="M24.3247 0H0.324707V24H24.3247V0Z" fill="white"/>
</mask>
<g mask="url(#mask0_328_3035)">
<path d="M23.9659 14.9029C22.3632 21.3315 15.852 25.2438 9.42266 23.6408C2.99597 22.0381 -0.916371 15.5265 0.687019 9.0984C2.289 2.66902 8.80016 -1.24361 15.2276 0.359081C21.6565 1.96177 25.5687 8.47395 23.9659 14.9029Z" fill="white"/>
<path d="M5.50707 6.11116C5.61885 5.97067 5.73729 5.83549 5.85573 5.70031C5.86104 5.6936 5.87306 5.69225 5.87837 5.68555C5.88903 5.67218 5.90636 5.66413 5.91698 5.65072L5.92764 5.63735C6.01022 5.56103 6.09806 5.47796 6.19935 5.4056C6.55773 5.13353 6.92966 4.92685 7.32183 4.79086C8.57973 4.34923 9.97991 4.62139 11.078 5.65801C12.6112 7.09517 12.4739 9.41038 11.25 10.9492C9.70338 13.2432 7.04549 16.4437 10.7256 19.3108C11.3872 19.8263 11.8781 20.2513 13.9623 20.8537C12.5992 21.1048 11.3352 21.0266 9.92838 20.6673C8.93321 20.1056 7.36868 18.9029 6.83637 17.2786C6.03186 14.8153 8.25281 11.133 9.32613 9.71481C10.7998 7.75206 8.41526 5.62727 6.65975 7.99933C5.74211 9.23556 4.13669 12.7337 4.6946 15.3285C5.0208 16.8 5.45559 17.8726 7.17954 19.3459C6.85986 19.1573 6.54941 18.9433 6.24827 18.7039C2.24277 14.9728 2.70748 9.20376 5.50707 6.11116Z" fill="url(#paint0_linear_328_3035)"/>
<path d="M19.1423 17.8889C19.0305 18.0294 18.912 18.1646 18.7936 18.2998C18.7883 18.3065 18.7763 18.3078 18.771 18.3146C18.7603 18.3279 18.743 18.3359 18.7324 18.3494L18.7217 18.3627C18.6391 18.4391 18.5513 18.5222 18.45 18.5945C18.0916 18.8666 17.7197 19.0733 17.3275 19.2092C16.0696 19.6508 14.6694 19.3787 13.5714 18.3421C12.0382 16.9049 12.1755 14.5897 13.3994 13.0509C14.946 10.7569 17.6039 7.55633 13.9238 4.6893C13.2621 4.17378 12.7713 3.74876 10.687 3.14643C12.0501 2.89532 13.3141 2.97343 14.721 3.33278C15.7161 3.89447 17.2807 5.09714 17.813 6.7215C18.6175 9.18473 16.3965 12.8671 15.3232 14.2853C13.8495 16.2481 16.2341 18.3728 17.9896 16.0007C18.9072 14.7645 20.5127 11.2664 19.9548 8.67158C19.6286 7.20012 19.1937 6.12755 17.4698 4.65416C17.7895 4.8428 18.0999 5.05677 18.4011 5.29617C22.4066 9.0273 21.9419 14.7964 19.1423 17.8889Z" fill="url(#paint1_linear_328_3035)"/>
</g>
</g>
<defs>
<linearGradient id="paint0_linear_328_3035" x1="3.32471" y1="12.0001" x2="21.3247" y2="12.0001" gradientUnits="userSpaceOnUse">
<stop stop-color="#0082FA"/>
<stop offset="1" stop-color="#00F2FE"/>
</linearGradient>
<linearGradient id="paint1_linear_328_3035" x1="3.32466" y1="12" x2="21.3246" y2="12" gradientUnits="userSpaceOnUse">
<stop stop-color="#0082FA"/>
<stop offset="1" stop-color="#00F2FE"/>
</linearGradient>
<clipPath id="clip0_328_3035">
<rect width="24" height="24" fill="white" transform="translate(0.324707)"/>
</clipPath>
</defs>
</svg>
