<svg width="9" height="12" viewBox="0 0 9 12" fill="none" xmlns="http://www.w3.org/2000/svg">
<path d="M7.11812 7.52666L4.25811 10.3933L1.39811 7.52666C1.27258 7.40112 1.10232 7.3306 0.924781 7.3306C0.747246 7.3306 0.576983 7.40112 0.451448 7.52666C0.325912 7.65219 0.255386 7.82246 0.255386 7.99999C0.255386 8.17752 0.325912 8.34779 0.451448 8.47332L3.78478 11.8067C3.84676 11.8691 3.92049 11.9187 4.00173 11.9526C4.08297 11.9864 4.17011 12.0039 4.25811 12.0039C4.34612 12.0039 4.43326 11.9864 4.5145 11.9526C4.59574 11.9187 4.66947 11.8691 4.73145 11.8067L8.06478 8.47332C8.12694 8.41116 8.17625 8.33737 8.20989 8.25616C8.24353 8.17494 8.26084 8.0879 8.26084 7.99999C8.26084 7.91208 8.24353 7.82504 8.20989 7.74382C8.17625 7.66261 8.12694 7.58882 8.06478 7.52666C8.00262 7.4645 7.92883 7.41519 7.84761 7.38155C7.7664 7.34791 7.67935 7.3306 7.59145 7.3306C7.50354 7.3306 7.4165 7.34791 7.33528 7.38155C7.25407 7.41519 7.18027 7.4645 7.11812 7.52666ZM1.39811 4.47332L4.25811 1.60666L7.11812 4.47332C7.18009 4.53581 7.25382 4.5854 7.33506 4.61925C7.4163 4.6531 7.50344 4.67052 7.59145 4.67052C7.67946 4.67052 7.76659 4.6531 7.84783 4.61925C7.92907 4.5854 8.00281 4.53581 8.06478 4.47332C8.12727 4.41135 8.17686 4.33761 8.21071 4.25637C8.24456 4.17514 8.26198 4.088 8.26198 3.99999C8.26198 3.91198 8.24456 3.82484 8.21071 3.74361C8.17686 3.66237 8.12727 3.58863 8.06478 3.52666L4.73145 0.193323C4.66947 0.130838 4.59574 0.0812413 4.5145 0.0473955C4.43326 0.0135498 4.34612 -0.00387573 4.25811 -0.00387573C4.17011 -0.00387573 4.08297 0.0135498 4.00173 0.0473955C3.92049 0.0812413 3.84676 0.130838 3.78478 0.193323L0.451448 3.52666C0.389288 3.58882 0.339981 3.66261 0.306341 3.74382C0.272701 3.82504 0.255386 3.91208 0.255386 3.99999C0.255386 4.17752 0.325912 4.34779 0.451448 4.47332C0.576983 4.59886 0.747246 4.66938 0.924781 4.66938C1.10232 4.66938 1.27258 4.59886 1.39811 4.47332Z" fill="#5C5C5E"/>
</svg>
