<svg width="25" height="24" viewBox="0 0 25 24" fill="none" xmlns="http://www.w3.org/2000/svg">
<g clip-path="url(#clip0_328_2537)">
<mask id="mask0_328_2537" style="mask-type:luminance" maskUnits="userSpaceOnUse" x="0" y="0" width="25" height="24">
<path d="M24.3247 0H0.324707V24H24.3247V0Z" fill="white"/>
</mask>
<g mask="url(#mask0_328_2537)">
<path fill-rule="evenodd" clip-rule="evenodd" d="M18.0249 2.12731C18.1905 1.84033 18.0928 1.47193 17.7979 1.3208C16.3549 0.581255 14.775 0.14086 13.1532 0.0286321C11.3318 -0.0974213 9.50546 0.193861 7.81351 0.880297C6.12156 1.56673 4.60856 2.63021 3.38974 3.98976C2.3046 5.2002 1.47812 6.61685 0.958277 8.15273C0.852042 8.46667 1.03863 8.79893 1.35743 8.88937C1.67623 8.97983 2.00635 8.79397 2.11433 8.4807C2.58324 7.12025 3.32001 5.86525 4.28325 4.79078C5.38021 3.56719 6.74191 2.61006 8.26466 1.99226C9.78738 1.37447 11.4311 1.11232 13.0704 1.22577C14.51 1.32539 15.9129 1.71232 17.1972 2.3615C17.4929 2.51101 17.8592 2.41429 18.0249 2.12731ZM18.0249 21.8727C18.1905 22.1597 18.5584 22.2593 18.8367 22.0795C20.1784 21.2126 21.3353 20.0855 22.2378 18.7627C23.253 17.2744 23.9202 15.5766 24.1898 13.7953C24.4593 12.0139 24.3243 10.1948 23.7948 8.47275C23.3241 6.94215 22.5524 5.52325 21.5272 4.2983C21.3146 4.04419 20.9337 4.03048 20.6905 4.25559C20.4473 4.4807 20.4341 4.85929 20.6454 5.1146C21.5489 6.20645 22.23 7.4671 22.6478 8.82547C23.1243 10.3753 23.2458 12.0125 23.0033 13.6157C22.7607 15.2189 22.1603 16.747 21.2465 18.0864C20.4456 19.2604 19.422 20.2631 18.2358 21.0388C17.9585 21.2201 17.8592 21.5857 18.0249 21.8727ZM0.339834 12.5998C0.323273 12.2688 0.593467 12 0.924837 12C1.25621 12 1.5231 12.2689 1.5415 12.5997C1.62039 14.0181 1.97847 15.4091 2.59737 16.6922C3.3033 18.1556 4.33032 19.441 5.60196 20.4524C6.87356 21.4638 8.35698 22.1753 9.94181 22.5338C11.3312 22.8482 12.7671 22.8841 14.1669 22.6418C14.4934 22.5853 14.8154 22.7848 14.8899 23.1077C14.9646 23.4305 14.7634 23.7543 14.4372 23.8126C12.8612 24.0944 11.2425 24.0584 9.67698 23.7043C7.91613 23.3059 6.26786 22.5154 4.85495 21.3916C3.44204 20.2677 2.3009 18.8396 1.51654 17.2135C0.819195 15.7678 0.419852 14.1988 0.339834 12.5998Z" fill="#F7931A"/>
<path d="M21.0553 14.1772C19.8531 18.9986 14.9693 21.9329 10.1467 20.7305C5.32616 19.5285 2.39155 14.6449 3.5943 9.8238C4.79593 5.00181 9.67983 2.06727 14.501 3.26932C19.3232 4.47137 22.2575 9.3555 21.0553 14.1772Z" fill="#F7931A"/>
<path d="M16.2932 10.7178C16.4723 9.52026 15.5604 8.87646 14.3135 8.44701L14.718 6.82479L13.7304 6.57869L13.3367 8.15819C13.077 8.09346 12.8103 8.03241 12.5454 7.97196L12.942 6.38209L11.955 6.13599L11.5502 7.75769C11.3354 7.70871 11.1244 7.66041 10.9196 7.60941L10.9208 7.60439L9.55876 7.26439L9.29604 8.31906C9.29604 8.31906 10.0288 8.48691 10.0133 8.49734C10.4133 8.59716 10.4856 8.86184 10.4735 9.07161L10.0127 10.9198C10.0403 10.9268 10.076 10.9369 10.1154 10.9526C10.0826 10.9445 10.0473 10.9355 10.0111 10.9268L9.36526 13.5157C9.31629 13.6372 9.19231 13.8194 8.91271 13.7502C8.92254 13.7645 8.19481 13.571 8.19481 13.571L7.70459 14.7014L8.98974 15.0217C9.22884 15.0817 9.46314 15.1444 9.69376 15.2034L9.28509 16.8442L10.2716 17.0903L10.6763 15.4669C10.9457 15.5401 11.2073 15.6076 11.4633 15.6712L11.06 17.2869L12.0476 17.533L12.4562 15.8953C14.1402 16.2139 15.4066 16.0854 15.9396 14.5624C16.3691 13.3363 15.9182 12.6289 15.0322 12.1676C15.6774 12.0188 16.1635 11.5945 16.2932 10.7178ZM14.0367 13.8815C13.7315 15.1078 11.6667 14.4449 10.9973 14.2787L11.5395 12.1049C12.209 12.272 14.3557 12.6028 14.0367 13.8815ZM14.3422 10.7001C14.0637 11.8155 12.3452 11.2488 11.7876 11.1098L12.2793 9.13836C12.8368 9.27726 14.6322 9.53661 14.3422 10.7001Z" fill="white"/>
</g>
</g>
<defs>
<clipPath id="clip0_328_2537">
<rect width="24" height="24" fill="white" transform="translate(0.324707)"/>
</clipPath>
</defs>
</svg>
