<svg width="14" height="14" viewBox="0 0 14 14" fill="none" xmlns="http://www.w3.org/2000/svg">
<g clip-path="url(#clip0_1011_2000)">
<path d="M6.99984 0.729492C10.4632 0.729492 13.2707 3.53695 13.2707 7.00033C13.2707 10.4637 10.4632 13.2712 6.99984 13.2712C3.53646 13.2712 0.729004 10.4637 0.729004 7.00033C0.729004 3.53695 3.53646 0.729492 6.99984 0.729492ZM7.00269 6.56283L7.04769 6.5651C7.2682 6.5876 7.44019 6.77387 7.44019 7.00033C7.44019 7.22678 7.2682 7.41305 7.04769 7.43555L7.00269 7.43783H6.99756C6.75593 7.43783 6.56006 7.24195 6.56006 7.00033C6.56006 6.7587 6.75593 6.56283 6.99756 6.56283H7.00269ZM6.56234 3.50033V1.62329C3.93124 1.83444 1.83454 3.93173 1.62337 6.56283H3.49984C3.74146 6.56283 3.93734 6.7587 3.93734 7.00033C3.93734 7.24195 3.74146 7.43783 3.49984 7.43783H1.62337C1.83454 10.0689 3.93126 12.1656 6.56234 12.3768V10.5003C6.56234 10.2587 6.75821 10.0628 6.99984 10.0628C7.24146 10.0628 7.43734 10.2587 7.43734 10.5003V12.3768C10.0684 12.1656 12.1651 10.0689 12.3763 7.43783H10.4998C10.2582 7.43783 10.0623 7.24195 10.0623 7.00033C10.0623 6.7587 10.2582 6.56283 10.4998 6.56283H12.3763C12.1651 3.93173 10.0684 1.83444 7.43734 1.62329V3.50033C7.43734 3.74195 7.24146 3.93783 6.99984 3.93783C6.75821 3.93783 6.56234 3.74195 6.56234 3.50033Z" fill="#7D7D80"/>
</g>
<defs>
<clipPath id="clip0_1011_2000">
<rect width="14" height="14" fill="white"/>
</clipPath>
</defs>
</svg>
