<svg width="14" height="14" viewBox="0 0 14 14" fill="none" xmlns="http://www.w3.org/2000/svg">
<path d="M8.75 12.0312V13.3438H5.25V12.0312H8.75ZM10.7188 5.6875C10.7188 4.70123 10.3267 3.75563 9.62927 3.05823C8.93187 2.36083 7.98627 1.96875 7 1.96875C6.01373 1.96875 5.06813 2.36083 4.37073 3.05823C3.67333 3.75563 3.28125 4.70123 3.28125 5.6875V6.5625C3.28125 6.74497 3.36348 6.9905 3.52051 7.26062C3.67217 7.52146 3.8552 7.73972 3.96399 7.84851L5.38586 9.27039L5.43542 9.41736L5.72339 10.2812H8.27661L8.56458 9.41736L8.61414 9.27039L10.036 7.84851C10.1448 7.73972 10.3278 7.52146 10.4795 7.26062C10.6365 6.9905 10.7188 6.74497 10.7188 6.5625V5.6875ZM8.33899 4.83899L7.49048 5.6875L8.36548 6.5625L6.58899 8.33899L5.66101 7.41101L6.50952 6.5625L5.63452 5.6875L7.41101 3.91101L8.33899 4.83899ZM12.0312 6.5625C12.0312 7.07983 11.8217 7.56336 11.6143 7.92029C11.4013 8.2866 11.1466 8.5939 10.964 8.77649L9.76172 9.97876L9.22339 11.5938H4.77661L4.23828 9.97876L3.03601 8.77649C2.85342 8.5939 2.59873 8.2866 2.38574 7.92029C2.17825 7.56336 1.96875 7.07983 1.96875 6.5625V5.6875C1.96875 4.35313 2.49921 3.07379 3.44275 2.13025C4.38629 1.18671 5.66563 0.65625 7 0.65625C8.33437 0.65625 9.61371 1.18671 10.5573 2.13025C11.5008 3.07379 12.0312 4.35313 12.0312 5.6875V6.5625Z" fill="#7D7D80"/>
</svg>
