<svg width="14" height="14" viewBox="0 0 14 14" fill="none" xmlns="http://www.w3.org/2000/svg">
<path d="M11.8125 4.17745C11.8125 3.86349 11.812 3.66421 11.7948 3.5138C11.779 3.37469 11.7527 3.32282 11.7299 3.29106C11.7071 3.25933 11.666 3.21795 11.5391 3.1589C11.4706 3.12705 11.3892 3.09543 11.2878 3.05921L10.9153 2.93217L10.2357 2.70602C9.71856 2.53352 9.41168 2.43544 9.1875 2.39441V9.67184C9.51765 9.70744 9.86613 9.82669 10.3359 9.98344H10.3354C10.7534 10.1228 11.031 10.2149 11.2428 10.2592C11.45 10.3024 11.521 10.2824 11.5527 10.2683L11.5932 10.2478C11.6321 10.2254 11.6676 10.1973 11.698 10.164L11.7179 10.1367C11.7406 10.0988 11.7685 10.0247 11.7869 9.86666C11.8119 9.65169 11.8125 9.35965 11.8125 8.91931V4.17745ZM8.3125 2.58639C8.13118 2.69123 7.89776 2.84276 7.56796 3.06262L7.56852 3.06319L6.76188 3.60095V3.60152C6.32786 3.89041 6.01295 4.10312 5.6875 4.22132V11.4122C5.86876 11.3073 6.1019 11.1556 6.43148 10.9359L7.23812 10.3982V10.3976L7.59872 10.1595C7.86113 9.98933 8.08422 9.86011 8.3125 9.77722V2.58639ZM2.1875 9.82166C2.1875 10.1356 2.188 10.3349 2.20516 10.4853C2.22104 10.6244 2.24726 10.6763 2.2701 10.708C2.29295 10.7398 2.33402 10.7812 2.46094 10.8402C2.59805 10.904 2.78663 10.9676 3.08472 11.0669L3.76433 11.2931L4.2981 11.4674C4.51662 11.5358 4.67921 11.5797 4.8125 11.6041V4.3267C4.48237 4.29109 4.13384 4.17241 3.66407 4.01567V4.0151C3.24636 3.87586 2.96902 3.78428 2.75716 3.73995C2.55014 3.69665 2.47862 3.71614 2.4467 3.73027C2.39223 3.75485 2.34338 3.79032 2.30314 3.83451L2.302 3.83565C2.27842 3.86152 2.23754 3.92296 2.21314 4.13245C2.18812 4.34736 2.1875 4.63957 2.1875 5.08036V9.82166ZM12.6875 8.91931C12.6875 9.33806 12.6885 9.69058 12.6562 9.96806C12.6233 10.2503 12.5492 10.5291 12.3434 10.7542V10.7548C12.2216 10.8879 12.0737 10.9947 11.9088 11.0681V11.0675C11.6302 11.1916 11.3422 11.1735 11.064 11.1154C10.7905 11.0582 10.4564 10.9459 10.0591 10.8134H10.0585C9.40511 10.5954 9.18171 10.5278 8.9642 10.5354H8.96306C8.8765 10.5383 8.79045 10.5498 8.70614 10.5696L8.70557 10.5691C8.49384 10.6198 8.2947 10.745 7.7229 11.1256L7.72347 11.1262L6.9174 11.6639C6.25386 12.1063 5.80734 12.4162 5.2819 12.486L5.28247 12.4865C4.75686 12.5576 4.24414 12.3755 3.48747 12.1231V12.1225L2.80843 11.8969H2.80786C2.52884 11.8039 2.28462 11.7229 2.0918 11.6332C1.88875 11.5387 1.70253 11.417 1.56031 11.2196C1.4181 11.0221 1.36124 10.8069 1.33586 10.5844C1.31175 10.373 1.3125 10.1155 1.3125 9.82166V5.08036C1.3125 4.66146 1.31157 4.309 1.34383 4.03162C1.37667 3.74956 1.45074 3.471 1.65601 3.24605H1.65544C1.77714 3.11221 1.92554 3.00494 2.09066 2.93103L2.0918 2.93046L2.19662 2.89059C2.44204 2.81219 2.69276 2.83287 2.93604 2.88375C3.2094 2.94092 3.54351 3.0532 3.94092 3.18567H3.94149L4.35734 3.32182C4.70617 3.43255 4.87263 3.46941 5.03581 3.46367H5.03695L5.16626 3.45284L5.29387 3.42949C5.50574 3.37877 5.70447 3.25369 6.27653 2.87293L7.0826 2.33517L7.5446 2.02983C7.97438 1.75279 8.32374 1.56557 8.71753 1.51314V1.51258C9.24315 1.44153 9.75587 1.62361 10.5125 1.87602H10.512L11.1916 2.10217H11.1921L11.5824 2.23548C11.7025 2.27851 11.8118 2.32107 11.9082 2.36593C12.1113 2.46041 12.2975 2.58207 12.4397 2.7795C12.5819 2.97698 12.6388 3.19225 12.6641 3.41467C12.6883 3.62607 12.6875 3.88358 12.6875 4.17745V8.91931Z" fill="#7D7D80"/>
</svg>
