<svg width="82" height="83" viewBox="0 0 82 83" fill="none" xmlns="http://www.w3.org/2000/svg">
<g filter="url(#filter0_di_527_1149)">
<rect x="1" y="1.20898" width="80" height="80" rx="12" fill="white" fill-opacity="0.04" shape-rendering="crispEdges"/>
<path fill-rule="evenodd" clip-rule="evenodd" d="M39.6666 54.5424V27.8757H42.3333V54.5424H39.6666Z" fill="url(#paint0_linear_527_1149)"/>
<path fill-rule="evenodd" clip-rule="evenodd" d="M54.8905 31.9977C55.3636 32.2153 55.6666 32.6884 55.6666 33.2091V49.2091C55.6666 49.7297 55.3636 50.2028 54.8905 50.4204C54.4174 50.638 53.8609 50.5603 53.4656 50.2215L44.1322 42.2215C43.8368 41.9681 43.6666 41.5983 43.6666 41.2091C43.6666 40.8199 43.8368 40.45 44.1322 40.1968L53.4656 32.1967C53.8609 31.8579 54.4174 31.7802 54.8905 31.9977ZM47.0488 41.2091L53 46.3101V36.108L47.0488 41.2091Z" fill="url(#paint1_linear_527_1149)"/>
<path fill-rule="evenodd" clip-rule="evenodd" d="M27.1095 31.9977C26.6364 32.2153 26.3333 32.6884 26.3333 33.2091V49.2091C26.3333 49.7297 26.6364 50.2028 27.1095 50.4204C27.5826 50.638 28.139 50.5603 28.5344 50.2215L37.8677 42.2215C38.1632 41.9681 38.3333 41.5983 38.3333 41.2091C38.3333 40.8199 38.1632 40.45 37.8677 40.1968L28.5344 32.1967C28.139 31.8579 27.5826 31.7802 27.1095 31.9977ZM34.9512 41.2091L29 46.3101V36.108L34.9512 41.2091Z" fill="url(#paint2_linear_527_1149)"/>
</g>
<defs>
<filter id="filter0_di_527_1149" x="0" y="0.208984" width="82" height="82" filterUnits="userSpaceOnUse" color-interpolation-filters="sRGB">
<feFlood flood-opacity="0" result="BackgroundImageFix"/>
<feColorMatrix in="SourceAlpha" type="matrix" values="0 0 0 0 0 0 0 0 0 0 0 0 0 0 0 0 0 0 127 0" result="hardAlpha"/>
<feMorphology radius="1" operator="dilate" in="SourceAlpha" result="effect1_dropShadow_527_1149"/>
<feOffset/>
<feComposite in2="hardAlpha" operator="out"/>
<feColorMatrix type="matrix" values="0 0 0 0 0 0 0 0 0 0 0 0 0 0 0 0 0 0 0.1 0"/>
<feBlend mode="normal" in2="BackgroundImageFix" result="effect1_dropShadow_527_1149"/>
<feBlend mode="normal" in="SourceGraphic" in2="effect1_dropShadow_527_1149" result="shape"/>
<feColorMatrix in="SourceAlpha" type="matrix" values="0 0 0 0 0 0 0 0 0 0 0 0 0 0 0 0 0 0 127 0" result="hardAlpha"/>
<feMorphology radius="1" operator="erode" in="SourceAlpha" result="effect2_innerShadow_527_1149"/>
<feOffset/>
<feComposite in2="hardAlpha" operator="arithmetic" k2="-1" k3="1"/>
<feColorMatrix type="matrix" values="0 0 0 0 1 0 0 0 0 1 0 0 0 0 1 0 0 0 0.04 0"/>
<feBlend mode="normal" in2="shape" result="effect2_innerShadow_527_1149"/>
</filter>
<linearGradient id="paint0_linear_527_1149" x1="41" y1="27.8757" x2="41" y2="54.5424" gradientUnits="userSpaceOnUse">
<stop offset="0.42" stop-color="white"/>
<stop offset="1" stop-color="#E6E7EA"/>
</linearGradient>
<linearGradient id="paint1_linear_527_1149" x1="49.6666" y1="31.8757" x2="49.6666" y2="50.5424" gradientUnits="userSpaceOnUse">
<stop offset="0.42" stop-color="white"/>
<stop offset="1" stop-color="#E6E7EA"/>
</linearGradient>
<linearGradient id="paint2_linear_527_1149" x1="32.3333" y1="31.8757" x2="32.3333" y2="50.5424" gradientUnits="userSpaceOnUse">
<stop offset="0.42" stop-color="white"/>
<stop offset="1" stop-color="#E6E7EA"/>
</linearGradient>
</defs>
</svg>
