<svg width="82" height="83" viewBox="0 0 82 83" fill="none" xmlns="http://www.w3.org/2000/svg">
<g filter="url(#filter0_di_527_1118)">
<rect x="1" y="1.20898" width="80" height="80" rx="12" fill="white" fill-opacity="0.04" shape-rendering="crispEdges"/>
<path d="M26.7741 51.5906C27.8454 53.446 29.7949 54.4838 31.7977 54.4838C32.7788 54.4838 33.7731 54.2352 34.6824 53.7097C34.6889 53.7059 34.6951 53.7014 34.7015 53.6976C36.5944 54.8561 38.7501 55.4668 41 55.4668C43.25 55.4668 45.4058 54.856 47.2988 53.6975C47.3052 53.7013 47.311 53.7059 47.3176 53.7097C48.2269 54.2352 49.2207 54.4838 50.2023 54.4838C52.2046 54.4838 54.155 53.446 55.2259 51.5906C56.8213 48.8259 55.871 45.2787 53.1068 43.6832C53.0953 43.6766 53.0833 43.6717 53.0718 43.6652C53.0742 43.5711 53.0889 43.4707 53.0889 43.377C53.0889 38.9249 50.646 34.8703 46.788 32.7633C46.7881 32.7554 46.7892 32.7479 46.7892 32.7399C46.7892 29.548 44.1923 26.9512 41 26.9512C37.8077 26.9512 35.2107 29.548 35.2107 32.7399C35.2107 32.7479 35.2119 32.7554 35.212 32.7633C31.3539 34.8702 28.9111 38.9249 28.9111 43.377C28.9111 43.4707 28.9258 43.5711 28.9281 43.6652C28.9167 43.6718 28.9046 43.6766 28.8932 43.6832C26.129 45.2787 25.1786 48.8259 26.7741 51.5906ZM51.6545 46.1974C53.0321 46.9932 53.5062 48.7607 52.7108 50.1388C51.9164 51.5168 50.147 51.9913 48.7698 51.1955C47.3918 50.3997 46.9183 48.6312 47.7136 47.2532C48.0987 46.5859 48.7207 46.1085 49.465 45.9091C49.7136 45.842 49.9655 45.8089 50.216 45.8089C50.7164 45.8089 51.2098 45.9403 51.6545 46.1974ZM41 29.8547C42.5912 29.8547 43.8856 31.1492 43.8856 32.7399C43.8856 34.3311 42.5912 35.6256 41 35.6256C39.4088 35.6256 38.1144 34.3311 38.1144 32.7399C38.1144 31.1492 39.4088 29.8547 41 29.8547ZM36.0145 35.6682C37.022 37.3769 38.8768 38.5292 41 38.5292C43.1232 38.5292 44.978 37.3769 45.9855 35.6682C48.4435 37.2607 49.9999 39.9465 50.1509 42.9116C49.6712 42.9174 49.1893 42.9765 48.7141 43.1038C47.2202 43.5046 45.9716 44.462 45.1985 45.8014C44.136 47.6423 44.2084 49.8286 45.1884 51.5569C43.9011 52.2177 42.4773 52.5632 41 52.5632C39.5227 52.5632 38.099 52.2178 36.8117 51.5569C37.7916 49.8287 37.8639 47.6423 36.8015 45.8014C36.0284 44.462 34.7798 43.5046 33.2859 43.1038C32.8105 42.9769 32.3285 42.9179 31.849 42.9121C31.9998 39.9468 33.5563 37.2608 36.0145 35.6682ZM30.3454 46.1974C30.7901 45.9403 31.2836 45.8089 31.784 45.8089C32.0345 45.8089 32.2864 45.842 32.535 45.9091C33.2793 46.1085 33.9012 46.5859 34.2864 47.2532C35.0817 48.6303 34.6082 50.3988 33.2306 51.1955C31.8539 51.9913 30.0841 51.5159 29.2892 50.1388C28.4938 48.7607 28.9674 46.9932 30.3454 46.1974Z" fill="url(#paint0_linear_527_1118)"/>
</g>
<defs>
<filter id="filter0_di_527_1118" x="0" y="0.208984" width="82" height="82" filterUnits="userSpaceOnUse" color-interpolation-filters="sRGB">
<feFlood flood-opacity="0" result="BackgroundImageFix"/>
<feColorMatrix in="SourceAlpha" type="matrix" values="0 0 0 0 0 0 0 0 0 0 0 0 0 0 0 0 0 0 127 0" result="hardAlpha"/>
<feMorphology radius="1" operator="dilate" in="SourceAlpha" result="effect1_dropShadow_527_1118"/>
<feOffset/>
<feComposite in2="hardAlpha" operator="out"/>
<feColorMatrix type="matrix" values="0 0 0 0 0 0 0 0 0 0 0 0 0 0 0 0 0 0 0.1 0"/>
<feBlend mode="normal" in2="BackgroundImageFix" result="effect1_dropShadow_527_1118"/>
<feBlend mode="normal" in="SourceGraphic" in2="effect1_dropShadow_527_1118" result="shape"/>
<feColorMatrix in="SourceAlpha" type="matrix" values="0 0 0 0 0 0 0 0 0 0 0 0 0 0 0 0 0 0 127 0" result="hardAlpha"/>
<feMorphology radius="1" operator="erode" in="SourceAlpha" result="effect2_innerShadow_527_1118"/>
<feOffset/>
<feComposite in2="hardAlpha" operator="arithmetic" k2="-1" k3="1"/>
<feColorMatrix type="matrix" values="0 0 0 0 1 0 0 0 0 1 0 0 0 0 1 0 0 0 0.04 0"/>
<feBlend mode="normal" in2="shape" result="effect2_innerShadow_527_1118"/>
</filter>
<linearGradient id="paint0_linear_527_1118" x1="41" y1="26.9512" x2="41" y2="55.4668" gradientUnits="userSpaceOnUse">
<stop stop-color="white"/>
<stop offset="1" stop-color="#E6E7EA"/>
</linearGradient>
</defs>
</svg>
