<svg width="17" height="16" viewBox="0 0 17 16" fill="none" xmlns="http://www.w3.org/2000/svg">
<path d="M5.91689 14C4.90578 14 4.05289 13.6529 3.35823 12.9587C2.66356 12.2644 2.31645 11.4116 2.31689 10.4C2.31689 9.97778 2.38912 9.56667 2.53356 9.16667C2.67801 8.76667 2.88356 8.40556 3.15023 8.08333L5.5169 5.23333L4.38356 2.96667C4.27245 2.74444 4.2809 2.52778 4.4089 2.31667C4.5369 2.10556 4.72845 2 4.98356 2H11.6502C11.9058 2 12.0976 2.10556 12.2256 2.31667C12.3536 2.52778 12.3618 2.74444 12.2502 2.96667L11.1169 5.23333L13.4836 8.08333C13.7502 8.40556 13.9558 8.76667 14.1002 9.16667C14.2447 9.56667 14.3169 9.97778 14.3169 10.4C14.3169 11.4111 13.9669 12.264 13.2669 12.9587C12.5669 13.6533 11.7169 14.0004 10.7169 14H5.91689ZM8.3169 10.6667C7.95023 10.6667 7.63645 10.5362 7.37556 10.2753C7.11467 10.0144 6.98401 9.70044 6.98356 9.33333C6.98312 8.96622 7.11378 8.65244 7.37556 8.392C7.63734 8.13156 7.95112 8.00089 8.3169 8C8.68267 7.99911 8.99667 8.12978 9.2589 8.392C9.52112 8.65422 9.65156 8.968 9.65023 9.33333C9.6489 9.69867 9.51845 10.0127 9.2589 10.2753C8.99934 10.538 8.68534 10.6684 8.3169 10.6667ZM6.73356 4.66667H9.90023L10.5669 3.33333H6.0669L6.73356 4.66667ZM5.91689 12.6667H10.7169C11.3502 12.6667 11.8865 12.4473 12.3256 12.0087C12.7647 11.57 12.984 11.0338 12.9836 10.4C12.9836 10.1333 12.9362 9.87511 12.8416 9.62533C12.7469 9.37556 12.6165 9.15044 12.4502 8.95L10.0002 6H6.65023L4.18356 8.93333C4.0169 9.13333 3.88645 9.36111 3.79223 9.61667C3.69801 9.87222 3.65067 10.1333 3.65023 10.4C3.65023 11.0333 3.86978 11.5696 4.30889 12.0087C4.74801 12.4478 5.28401 12.6671 5.91689 12.6667Z" fill="#7D7D80"/>
</svg>
