<svg width="17" height="16" viewBox="0 0 17 16" fill="none" xmlns="http://www.w3.org/2000/svg">
<path d="M8.31689 15.3333L8.15023 13.3333H7.98356C6.40578 13.3333 5.06689 12.7833 3.96689 11.6833C2.86689 10.5833 2.31689 9.24444 2.31689 7.66667C2.31689 6.08889 2.86689 4.75 3.96689 3.65C5.06689 2.55 6.40578 2 7.98356 2C8.77245 2 9.50867 2.14711 10.1922 2.44133C10.8758 2.73556 11.4758 3.14111 11.9922 3.658C12.5087 4.17489 12.914 4.77489 13.2082 5.458C13.5024 6.14111 13.6498 6.87733 13.6502 7.66667C13.6502 8.5 13.5142 9.3 13.2422 10.0667C12.9702 10.8333 12.5978 11.5444 12.1249 12.2C11.652 12.8556 11.0909 13.45 10.4416 13.9833C9.79223 14.5167 9.08401 14.9667 8.31689 15.3333ZM9.65023 12.9C10.4391 12.2333 11.0809 11.4529 11.5756 10.5587C12.0702 9.66444 12.3173 8.70044 12.3169 7.66667C12.3169 6.45556 11.8973 5.43067 11.0582 4.592C10.2191 3.75333 9.19423 3.33378 7.98356 3.33333C6.77289 3.33289 5.74801 3.75244 4.90889 4.592C4.06978 5.43156 3.65023 6.45644 3.65023 7.66667C3.65023 8.87689 4.06978 9.902 4.90889 10.742C5.74801 11.582 6.77289 12.0013 7.98356 12H9.65023V12.9ZM7.96689 11.3167C8.15578 11.3167 8.31689 11.25 8.45023 11.1167C8.58356 10.9833 8.65023 10.8222 8.65023 10.6333C8.65023 10.4444 8.58356 10.2833 8.45023 10.15C8.31689 10.0167 8.15578 9.95 7.96689 9.95C7.77801 9.95 7.61689 10.0167 7.48356 10.15C7.35023 10.2833 7.28356 10.4444 7.28356 10.6333C7.28356 10.8222 7.35023 10.9833 7.48356 11.1167C7.61689 11.25 7.77801 11.3167 7.96689 11.3167ZM7.48356 9.2H8.48356C8.48356 8.86667 8.51689 8.63333 8.58356 8.5C8.65023 8.36667 8.86134 8.12222 9.21689 7.76667C9.41689 7.56667 9.58356 7.35 9.71689 7.11667C9.85023 6.88333 9.91689 6.63333 9.91689 6.36667C9.91689 5.8 9.72534 5.37511 9.34223 5.092C8.95912 4.80889 8.50623 4.66711 7.98356 4.66667C7.49467 4.66667 7.08356 4.80289 6.75023 5.07533C6.41689 5.34778 6.18356 5.67822 6.05023 6.06667L6.98356 6.43333C7.03912 6.24444 7.14467 6.05844 7.30023 5.87533C7.45578 5.69222 7.68356 5.60044 7.98356 5.6C8.28356 5.59956 8.50867 5.68289 8.65889 5.85C8.80912 6.01711 8.88401 6.20044 8.88356 6.4C8.88356 6.58889 8.82801 6.75844 8.71689 6.90867C8.60578 7.05889 8.47245 7.21156 8.31689 7.36667C7.92801 7.7 7.69201 7.964 7.60889 8.15867C7.52578 8.35333 7.48401 8.70044 7.48356 9.2Z" fill="#7D7D80"/>
</svg>
