<svg width="17" height="16" viewBox="0 0 17 16" fill="none" xmlns="http://www.w3.org/2000/svg">
<path d="M8.98348 1.36667V3.38667C11.2435 3.71334 12.9835 5.64667 12.9835 8C12.9835 8.6 12.8635 9.16667 12.6501 9.69333L14.3968 10.7133C14.7701 9.88667 14.9835 8.96667 14.9835 8C14.9835 4.54667 12.3501 1.7 8.98348 1.36667ZM8.31681 12.6667C7.07914 12.6667 5.89215 12.175 5.01698 11.2998C4.14181 10.4247 3.65015 9.23768 3.65015 8C3.65015 5.64667 5.39015 3.71334 7.65015 3.38667V1.36667C4.27681 1.7 1.65015 4.54 1.65015 8C1.65015 9.76811 2.35253 11.4638 3.60277 12.714C4.22183 13.3331 4.95675 13.8242 5.76559 14.1592C6.57443 14.4942 7.44133 14.6667 8.31681 14.6667C10.5168 14.6667 12.4701 13.5933 13.6835 11.94L11.9501 10.92C11.5172 11.4683 10.9649 11.9106 10.3353 12.2132C9.70573 12.5159 9.01538 12.671 8.31681 12.6667Z" fill="#7D7D80"/>
</svg>
