<svg width="30" height="28" viewBox="0 0 30 28" fill="none" xmlns="http://www.w3.org/2000/svg">
<path d="M13.8992 1.303C14.2791 1.07519 14.7535 1.07519 15.1334 1.303L17.5176 2.73267C17.8809 2.95057 18.289 3.08317 18.7111 3.12046L21.4802 3.36518C21.9214 3.40417 22.3053 3.68308 22.4787 4.09067L23.5672 6.64865C23.7331 7.03852 23.9853 7.38566 24.3048 7.66391L26.4013 9.48954C26.7353 9.78045 26.8819 10.2317 26.7827 10.6634L26.1597 13.3726C26.0648 13.7855 26.0648 14.2146 26.1597 14.6276L26.7827 17.3368C26.8819 17.7685 26.7353 18.2197 26.4013 18.5107L24.3048 20.3363C23.9853 20.6145 23.7331 20.9617 23.5672 21.3515L22.4787 23.9095C22.3053 24.3171 21.9214 24.596 21.4802 24.635L18.7111 24.8797C18.289 24.917 17.8809 25.0496 17.5176 25.2675L15.1334 26.6972C14.7535 26.925 14.2791 26.925 13.8992 26.6972L11.515 25.2675C11.1517 25.0496 10.7436 24.917 10.3215 24.8797L7.5524 24.635C7.11115 24.596 6.72728 24.3171 6.55384 23.9095L5.46539 21.3515C5.2995 20.9617 5.04729 20.6145 4.72776 20.3363L2.63133 18.5107C2.29728 18.2197 2.15065 17.7685 2.24992 17.3368L2.87289 14.6276C2.96783 14.2146 2.96783 13.7855 2.87289 13.3726L2.24992 10.6634C2.15065 10.2317 2.29728 9.78045 2.63133 9.48954L4.72776 7.66391C5.04729 7.38566 5.2995 7.03852 5.46539 6.64865L6.55384 4.09067C6.72728 3.68308 7.11115 3.40417 7.5524 3.36518L10.3215 3.12046C10.7436 3.08317 11.1517 2.95057 11.515 2.73267L13.8992 1.303Z" fill="#EBC74B"/>
<path style="mix-blend-mode:overlay" d="M13.8992 1.303C14.2791 1.07519 14.7535 1.07519 15.1334 1.303L17.5176 2.73267C17.8809 2.95057 18.289 3.08317 18.7111 3.12046L21.4802 3.36518C21.9214 3.40417 22.3053 3.68308 22.4787 4.09067L23.5672 6.64865C23.7331 7.03852 23.9853 7.38566 24.3048 7.66391L26.4013 9.48954C26.7353 9.78045 26.8819 10.2317 26.7827 10.6634L26.1597 13.3726C26.0648 13.7855 26.0648 14.2146 26.1597 14.6276L26.7827 17.3368C26.8819 17.7685 26.7353 18.2197 26.4013 18.5107L24.3048 20.3363C23.9853 20.6145 23.7331 20.9617 23.5672 21.3515L22.4787 23.9095C22.3053 24.3171 21.9214 24.596 21.4802 24.635L18.7111 24.8797C18.289 24.917 17.8809 25.0496 17.5176 25.2675L15.1334 26.6972C14.7535 26.925 14.2791 26.925 13.8992 26.6972L11.515 25.2675C11.1517 25.0496 10.7436 24.917 10.3215 24.8797L7.5524 24.635C7.11115 24.596 6.72728 24.3171 6.55384 23.9095L5.46539 21.3515C5.2995 20.9617 5.04729 20.6145 4.72776 20.3363L2.63133 18.5107C2.29728 18.2197 2.15065 17.7685 2.24992 17.3368L2.87289 14.6276C2.96783 14.2146 2.96783 13.7855 2.87289 13.3726L2.24992 10.6634C2.15065 10.2317 2.29728 9.78045 2.63133 9.48954L4.72776 7.66391C5.04729 7.38566 5.2995 7.03852 5.46539 6.64865L6.55384 4.09067C6.72728 3.68308 7.11115 3.40417 7.5524 3.36518L10.3215 3.12046C10.7436 3.08317 11.1517 2.95057 11.515 2.73267L13.8992 1.303Z" fill="url(#paint0_linear_224_15567)"/>
<path d="M23.5672 6.64865L22.4787 4.09067C22.3053 3.68308 21.9214 3.40417 21.4802 3.36518L18.7111 3.12046C18.289 3.08317 17.8809 2.95057 17.5176 2.73267L15.1334 1.303C14.7535 1.07519 14.2791 1.07519 13.8992 1.303L11.515 2.73267C11.1517 2.95057 10.7436 3.08317 10.3215 3.12046L7.5524 3.36518C7.11115 3.40417 6.72728 3.68308 6.55384 4.09067L5.46539 6.64865C5.2995 7.03852 5.04729 7.38566 4.72776 7.66391L2.63133 9.48954C2.29728 9.78045 2.15065 10.2317 2.24992 10.6634L2.87289 13.3726C2.96783 13.7855 2.96783 14.2146 2.87289 14.6276L2.24992 17.3368C2.15065 17.7685 2.29728 18.2197 2.63133 18.5107L4.72776 20.3363C5.04729 20.6145 5.2995 20.9617 5.46539 21.3515L6.55384 23.9095C6.72728 24.3171 7.11115 24.596 7.5524 24.635L10.3215 24.8797C10.7436 24.917 11.1517 25.0496 11.515 25.2675L13.8992 26.6972C14.2791 26.925 14.7535 26.925 15.1334 26.6972L17.5176 25.2675C17.8809 25.0496 18.289 24.917 18.7111 24.8797L21.4802 24.635C21.9214 24.596 22.3053 24.3171 22.4787 23.9095L23.5672 21.3515C23.7331 20.9617 23.9853 20.6145 24.3048 20.3363L26.4013 18.5107C26.7353 18.2197 26.8819 17.7685 26.7827 17.3368L26.1597 14.6276C26.0648 14.2146 26.0648 13.7855 26.1597 13.3726L26.7827 10.6634C26.8819 10.2317 26.7353 9.78045 26.4013 9.48954L24.3048 7.66391C23.9853 7.38566 23.7331 7.03852 23.5672 6.64865ZM23.5672 6.64865L24.3033 6.33542" stroke="url(#paint1_linear_224_15567)" stroke-width="1.6"/>
<path d="M15.9615 8.42972V19.8125H13.5162V11.211L10.8756 12.0157V10.125L15.7193 8.42972H15.9615Z" fill="white"/>
<defs>
<linearGradient id="paint0_linear_224_15567" x1="6.43073" y1="3.48744" x2="22.2138" y2="25.1505" gradientUnits="userSpaceOnUse">
<stop/>
<stop offset="1" stop-opacity="0"/>
</linearGradient>
<linearGradient id="paint1_linear_224_15567" x1="24.0069" y1="25.5598" x2="7.71331" y2="2.31166" gradientUnits="userSpaceOnUse">
<stop stop-color="white" stop-opacity="0.6"/>
<stop offset="1" stop-color="white" stop-opacity="0.16"/>
</linearGradient>
</defs>
</svg>
