<svg width="30" height="28" viewBox="0 0 30 28" fill="none" xmlns="http://www.w3.org/2000/svg">
<path d="M13.8992 1.30306C14.2791 1.07525 14.7535 1.07525 15.1334 1.30306L17.5176 2.73273C17.8809 2.95063 18.289 3.08323 18.7111 3.12053L21.4802 3.36524C21.9214 3.40424 22.3053 3.68314 22.4787 4.09074L23.5672 6.64871C23.7331 7.03858 23.9853 7.38572 24.3048 7.66397L26.4013 9.4896C26.7353 9.78051 26.8819 10.2318 26.7827 10.6635L26.1597 13.3727C26.0648 13.7856 26.0648 14.2147 26.1597 14.6277L26.7827 17.3369C26.8819 17.7686 26.7353 18.2198 26.4013 18.5107L24.3048 20.3364C23.9853 20.6146 23.7331 20.9618 23.5672 21.3516L22.4787 23.9096C22.3053 24.3172 21.9214 24.5961 21.4802 24.6351L18.7111 24.8798C18.289 24.9171 17.8809 25.0497 17.5176 25.2676L15.1334 26.6973C14.7535 26.9251 14.2791 26.9251 13.8992 26.6973L11.515 25.2676C11.1517 25.0497 10.7436 24.9171 10.3215 24.8798L7.5524 24.6351C7.11115 24.5961 6.72728 24.3172 6.55384 23.9096L5.46539 21.3516C5.2995 20.9618 5.04729 20.6146 4.72776 20.3364L2.63133 18.5107C2.29728 18.2198 2.15065 17.7686 2.24992 17.3369L2.87289 14.6277C2.96783 14.2147 2.96783 13.7856 2.87289 13.3727L2.24992 10.6635C2.15065 10.2318 2.29728 9.78051 2.63133 9.4896L4.72776 7.66397C5.04729 7.38572 5.2995 7.03858 5.46539 6.64871L6.55384 4.09074C6.72728 3.68314 7.11115 3.40424 7.5524 3.36524L10.3215 3.12053C10.7436 3.08323 11.1517 2.95063 11.515 2.73273L13.8992 1.30306Z" fill="#9295AA"/>
<path style="mix-blend-mode:overlay" d="M13.8992 1.30306C14.2791 1.07525 14.7535 1.07525 15.1334 1.30306L17.5176 2.73273C17.8809 2.95063 18.289 3.08323 18.7111 3.12053L21.4802 3.36524C21.9214 3.40424 22.3053 3.68314 22.4787 4.09074L23.5672 6.64871C23.7331 7.03858 23.9853 7.38572 24.3048 7.66397L26.4013 9.4896C26.7353 9.78051 26.8819 10.2318 26.7827 10.6635L26.1597 13.3727C26.0648 13.7856 26.0648 14.2147 26.1597 14.6277L26.7827 17.3369C26.8819 17.7686 26.7353 18.2198 26.4013 18.5107L24.3048 20.3364C23.9853 20.6146 23.7331 20.9618 23.5672 21.3516L22.4787 23.9096C22.3053 24.3172 21.9214 24.5961 21.4802 24.6351L18.7111 24.8798C18.289 24.9171 17.8809 25.0497 17.5176 25.2676L15.1334 26.6973C14.7535 26.9251 14.2791 26.9251 13.8992 26.6973L11.515 25.2676C11.1517 25.0497 10.7436 24.9171 10.3215 24.8798L7.5524 24.6351C7.11115 24.5961 6.72728 24.3172 6.55384 23.9096L5.46539 21.3516C5.2995 20.9618 5.04729 20.6146 4.72776 20.3364L2.63133 18.5107C2.29728 18.2198 2.15065 17.7686 2.24992 17.3369L2.87289 14.6277C2.96783 14.2147 2.96783 13.7856 2.87289 13.3727L2.24992 10.6635C2.15065 10.2318 2.29728 9.78051 2.63133 9.4896L4.72776 7.66397C5.04729 7.38572 5.2995 7.03858 5.46539 6.64871L6.55384 4.09074C6.72728 3.68314 7.11115 3.40424 7.5524 3.36524L10.3215 3.12053C10.7436 3.08323 11.1517 2.95063 11.515 2.73273L13.8992 1.30306Z" fill="url(#paint0_linear_224_15588)" fill-opacity="0.5"/>
<path d="M23.5672 6.64871L22.4787 4.09074C22.3053 3.68314 21.9214 3.40424 21.4802 3.36524L18.7111 3.12053C18.289 3.08323 17.8809 2.95063 17.5176 2.73273L15.1334 1.30306C14.7535 1.07525 14.2791 1.07525 13.8992 1.30306L11.515 2.73273C11.1517 2.95063 10.7436 3.08323 10.3215 3.12053L7.5524 3.36524C7.11115 3.40424 6.72728 3.68314 6.55384 4.09074L5.46539 6.64871C5.2995 7.03858 5.04729 7.38572 4.72776 7.66397L2.63133 9.4896C2.29728 9.78051 2.15065 10.2318 2.24992 10.6635L2.87289 13.3727C2.96783 13.7856 2.96783 14.2147 2.87289 14.6277L2.24992 17.3369C2.15065 17.7686 2.29728 18.2198 2.63133 18.5107L4.72776 20.3364C5.04729 20.6146 5.2995 20.9618 5.46539 21.3516L6.55384 23.9096C6.72728 24.3172 7.11115 24.5961 7.5524 24.6351L10.3215 24.8798C10.7436 24.9171 11.1517 25.0497 11.515 25.2676L13.8992 26.6973C14.2791 26.9251 14.7535 26.9251 15.1334 26.6973L17.5176 25.2676C17.8809 25.0497 18.289 24.9171 18.7111 24.8798L21.4802 24.6351C21.9214 24.5961 22.3053 24.3172 22.4787 23.9096L23.5672 21.3516C23.7331 20.9618 23.9853 20.6146 24.3048 20.3364L26.4013 18.5107C26.7353 18.2198 26.8819 17.7686 26.7827 17.3369L26.1597 14.6277C26.0648 14.2147 26.0648 13.7856 26.1597 13.3727L26.7827 10.6635C26.8819 10.2318 26.7353 9.78051 26.4013 9.4896L24.3048 7.66397C23.9853 7.38572 23.7331 7.03858 23.5672 6.64871ZM23.5672 6.64871L24.3033 6.33548" stroke="url(#paint1_linear_224_15588)" stroke-width="1.6"/>
<path d="M18.5632 17.8713V19.7697H10.7038V18.1603L14.3757 14.2697C14.7194 13.8739 14.9929 13.5249 15.196 13.2228C15.4043 12.9208 15.5554 12.6473 15.6491 12.4025C15.7429 12.1525 15.7897 11.9234 15.7897 11.715C15.7897 11.3765 15.7351 11.09 15.6257 10.8557C15.5215 10.6213 15.3679 10.4416 15.1647 10.3166C14.9616 10.1916 14.7142 10.1291 14.4225 10.1291C14.1101 10.1291 13.8418 10.2098 13.6179 10.3713C13.3939 10.5327 13.222 10.7567 13.1022 11.0432C12.9824 11.3244 12.9225 11.6447 12.9225 12.0041H10.4694C10.4694 11.3114 10.6361 10.6812 10.9694 10.1135C11.3028 9.54055 11.7689 9.08482 12.3679 8.74628C12.9668 8.40253 13.6673 8.23065 14.4694 8.23065C15.2923 8.23065 15.9824 8.36086 16.5397 8.62128C17.097 8.88169 17.5189 9.25409 17.8054 9.73846C18.0918 10.2228 18.2351 10.8062 18.2351 11.4885C18.2351 11.8739 18.1725 12.2463 18.0475 12.6057C17.9278 12.965 17.7533 13.3218 17.5241 13.676C17.2949 14.0301 17.0189 14.3921 16.696 14.7619C16.3731 15.1265 16.0085 15.5119 15.6022 15.9182L13.8835 17.8713H18.5632Z" fill="white"/>
<defs>
<linearGradient id="paint0_linear_224_15588" x1="4.43541" y1="2.75688" x2="24.5692" y2="26.1264" gradientUnits="userSpaceOnUse">
<stop/>
<stop offset="1" stop-opacity="0"/>
</linearGradient>
<linearGradient id="paint1_linear_224_15588" x1="24.0069" y1="25.5599" x2="7.71331" y2="2.31172" gradientUnits="userSpaceOnUse">
<stop stop-color="white" stop-opacity="0.6"/>
<stop offset="1" stop-color="white" stop-opacity="0.1"/>
</linearGradient>
</defs>
</svg>
