<svg width="30" height="28" viewBox="0 0 30 28" fill="none" xmlns="http://www.w3.org/2000/svg">
<path d="M13.8992 1.30312C14.2791 1.07531 14.7535 1.07531 15.1334 1.30312L17.5176 2.73279C17.8809 2.95069 18.289 3.08329 18.7111 3.12059L21.4802 3.3653C21.9214 3.4043 22.3053 3.6832 22.4787 4.0908L23.5672 6.64877C23.7331 7.03864 23.9853 7.38578 24.3048 7.66403L26.4013 9.48966C26.7353 9.78057 26.8819 10.2319 26.7827 10.6636L26.1597 13.3728C26.0648 13.7857 26.0648 14.2148 26.1597 14.6277L26.7827 17.3369C26.8819 17.7686 26.7353 18.2199 26.4013 18.5108L24.3048 20.3364C23.9853 20.6147 23.7331 20.9618 23.5672 21.3517L22.4787 23.9097C22.3053 24.3173 21.9214 24.5962 21.4802 24.6352L18.7111 24.8799C18.289 24.9172 17.8809 25.0498 17.5176 25.2677L15.1334 26.6973C14.7535 26.9252 14.2791 26.9252 13.8992 26.6973L11.515 25.2677C11.1517 25.0498 10.7436 24.9172 10.3215 24.8799L7.5524 24.6352C7.11115 24.5962 6.72728 24.3173 6.55384 23.9097L5.46539 21.3517C5.2995 20.9618 5.04729 20.6147 4.72776 20.3364L2.63133 18.5108C2.29728 18.2199 2.15065 17.7686 2.24992 17.3369L2.87289 14.6277C2.96783 14.2148 2.96783 13.7857 2.87289 13.3728L2.24992 10.6636C2.15065 10.2319 2.29728 9.78057 2.63133 9.48967L4.72776 7.66403C5.04729 7.38578 5.2995 7.03864 5.46539 6.64877L6.55384 4.0908C6.72728 3.6832 7.11115 3.4043 7.5524 3.3653L10.3215 3.12059C10.7436 3.08329 11.1517 2.95069 11.515 2.73279L13.8992 1.30312Z" fill="#E9A260"/>
<path style="mix-blend-mode:overlay" d="M13.8992 1.30312C14.2791 1.07531 14.7535 1.07531 15.1334 1.30312L17.5176 2.73279C17.8809 2.95069 18.289 3.08329 18.7111 3.12059L21.4802 3.3653C21.9214 3.4043 22.3053 3.6832 22.4787 4.0908L23.5672 6.64877C23.7331 7.03864 23.9853 7.38578 24.3048 7.66403L26.4013 9.48966C26.7353 9.78057 26.8819 10.2319 26.7827 10.6636L26.1597 13.3728C26.0648 13.7857 26.0648 14.2148 26.1597 14.6277L26.7827 17.3369C26.8819 17.7686 26.7353 18.2199 26.4013 18.5108L24.3048 20.3364C23.9853 20.6147 23.7331 20.9618 23.5672 21.3517L22.4787 23.9097C22.3053 24.3173 21.9214 24.5962 21.4802 24.6352L18.7111 24.8799C18.289 24.9172 17.8809 25.0498 17.5176 25.2677L15.1334 26.6973C14.7535 26.9252 14.2791 26.9252 13.8992 26.6973L11.515 25.2677C11.1517 25.0498 10.7436 24.9172 10.3215 24.8799L7.5524 24.6352C7.11115 24.5962 6.72728 24.3173 6.55384 23.9097L5.46539 21.3517C5.2995 20.9618 5.04729 20.6147 4.72776 20.3364L2.63133 18.5108C2.29728 18.2199 2.15065 17.7686 2.24992 17.3369L2.87289 14.6277C2.96783 14.2148 2.96783 13.7857 2.87289 13.3728L2.24992 10.6636C2.15065 10.2319 2.29728 9.78057 2.63133 9.48967L4.72776 7.66403C5.04729 7.38578 5.2995 7.03864 5.46539 6.64877L6.55384 4.0908C6.72728 3.6832 7.11115 3.4043 7.5524 3.3653L10.3215 3.12059C10.7436 3.08329 11.1517 2.95069 11.515 2.73279L13.8992 1.30312Z" fill="url(#paint0_linear_224_15609)" fill-opacity="0.8"/>
<path d="M23.5672 6.64877L22.4787 4.0908C22.3053 3.6832 21.9214 3.4043 21.4802 3.3653L18.7111 3.12059C18.289 3.08329 17.8809 2.95069 17.5176 2.73279L15.1334 1.30312C14.7535 1.07531 14.2791 1.07531 13.8992 1.30312L11.515 2.73279C11.1517 2.95069 10.7436 3.08329 10.3215 3.12059L7.5524 3.3653C7.11115 3.4043 6.72728 3.6832 6.55384 4.0908L5.46539 6.64877C5.2995 7.03864 5.04729 7.38578 4.72776 7.66403L2.63133 9.48967C2.29728 9.78057 2.15065 10.2319 2.24992 10.6636L2.87289 13.3728C2.96783 13.7857 2.96783 14.2148 2.87289 14.6277L2.24992 17.3369C2.15065 17.7686 2.29728 18.2199 2.63133 18.5108L4.72776 20.3364C5.04729 20.6147 5.2995 20.9618 5.46539 21.3517L6.55384 23.9097C6.72728 24.3173 7.11115 24.5962 7.5524 24.6352L10.3215 24.8799C10.7436 24.9172 11.1517 25.0498 11.515 25.2677L13.8992 26.6973C14.2791 26.9252 14.7535 26.9252 15.1334 26.6973L17.5176 25.2677C17.8809 25.0498 18.289 24.9172 18.7111 24.8799L21.4802 24.6352C21.9214 24.5962 22.3053 24.3173 22.4787 23.9097L23.5672 21.3517C23.7331 20.9618 23.9853 20.6147 24.3048 20.3364L26.4013 18.5108C26.7353 18.2199 26.8819 17.7686 26.7827 17.3369L26.1597 14.6277C26.0648 14.2148 26.0648 13.7857 26.1597 13.3728L26.7827 10.6636C26.8819 10.2319 26.7353 9.78057 26.4013 9.48966L24.3048 7.66403C23.9853 7.38578 23.7331 7.03864 23.5672 6.64877ZM23.5672 6.64877L24.3033 6.33554" stroke="url(#paint1_linear_224_15609)" stroke-width="1.6"/>
<path d="M13.1257 12.9651H14.3679C14.722 12.9651 15.0137 12.9026 15.2429 12.7776C15.4772 12.6526 15.6491 12.4755 15.7585 12.2463C15.8731 12.0172 15.9304 11.7489 15.9304 11.4417C15.9304 11.176 15.8783 10.939 15.7741 10.7307C15.6699 10.5224 15.5111 10.3583 15.2975 10.2385C15.0892 10.1135 14.8184 10.051 14.4851 10.051C14.2455 10.051 14.0163 10.1005 13.7975 10.1995C13.584 10.2932 13.4095 10.4312 13.2741 10.6135C13.1387 10.7906 13.071 11.0042 13.071 11.2542H10.6257C10.6257 10.6187 10.7975 10.0693 11.1413 9.60571C11.4903 9.14217 11.9512 8.7854 12.5241 8.5354C13.1022 8.28019 13.7324 8.15259 14.4147 8.15259C15.2012 8.15259 15.8913 8.27759 16.4851 8.52759C17.084 8.77238 17.5475 9.13696 17.8757 9.62134C18.209 10.1005 18.3757 10.6943 18.3757 11.4026C18.3757 11.7724 18.2871 12.1292 18.1101 12.4729C17.9382 12.8114 17.6908 13.1135 17.3679 13.3792C17.0502 13.6396 16.6699 13.8479 16.2272 14.0042C15.7897 14.1552 15.3028 14.2307 14.7663 14.2307H13.1257V12.9651ZM13.1257 14.801V13.5588H14.7663C15.3601 13.5588 15.8913 13.6265 16.3601 13.762C16.8288 13.8974 17.2272 14.0927 17.5554 14.3479C17.8835 14.6031 18.1335 14.913 18.3054 15.2776C18.4772 15.6422 18.5632 16.0484 18.5632 16.4963C18.5632 17.0276 18.459 17.5015 18.2507 17.9182C18.0423 18.3349 17.7507 18.6864 17.3757 18.9729C17.0007 19.2594 16.5606 19.4781 16.0554 19.6292C15.5502 19.775 15.0033 19.8479 14.4147 19.8479C13.9408 19.8479 13.4694 19.7828 13.0007 19.6526C12.5319 19.5224 12.1074 19.3245 11.7272 19.0588C11.347 18.788 11.0423 18.4469 10.8132 18.0354C10.584 17.6187 10.4694 17.1239 10.4694 16.551H12.9147C12.9147 16.8167 12.9824 17.0562 13.1179 17.2698C13.2585 17.4781 13.4486 17.6448 13.6882 17.7698C13.933 17.8896 14.1986 17.9495 14.4851 17.9495C14.8288 17.9495 15.1205 17.887 15.3601 17.762C15.6048 17.6318 15.7897 17.4547 15.9147 17.2307C16.0449 17.0068 16.1101 16.7489 16.1101 16.4573C16.1101 16.0614 16.0397 15.7437 15.8991 15.5042C15.7637 15.2594 15.5658 15.0823 15.3054 14.9729C15.0449 14.8583 14.7324 14.801 14.3679 14.801H13.1257Z" fill="white"/>
<defs>
<linearGradient id="paint0_linear_224_15609" x1="4.07588" y1="0.000225548" x2="25.6478" y2="26.2018" gradientUnits="userSpaceOnUse">
<stop/>
<stop offset="1" stop-opacity="0"/>
</linearGradient>
<linearGradient id="paint1_linear_224_15609" x1="24.0069" y1="25.56" x2="7.71331" y2="2.31178" gradientUnits="userSpaceOnUse">
<stop stop-color="white" stop-opacity="0.6"/>
<stop offset="1" stop-color="white" stop-opacity="0.15"/>
</linearGradient>
</defs>
</svg>
