<svg width="24" height="24" viewBox="0 0 24 24" fill="none" xmlns="http://www.w3.org/2000/svg">
<g clip-path="url(#clip0_1047_1412)">
<path fill-rule="evenodd" clip-rule="evenodd" d="M23.8422 11.9997C23.8422 18.5397 18.5397 23.8422 11.9997 23.8422C5.45973 23.8422 0.157227 18.5397 0.157227 11.9997C0.157227 5.45973 5.45973 0.157227 11.9997 0.157227C18.5397 0.157227 23.8422 5.45973 23.8422 11.9997Z" fill="#4CA2FF"/>
<path fill-rule="evenodd" clip-rule="evenodd" d="M15.8645 10.56C16.5357 11.4488 16.9351 12.5719 16.9351 13.7944C16.9351 15.0338 16.5226 16.1756 15.8307 17.0681L15.7726 17.145L15.7576 17.0494C15.7445 16.9688 15.7295 16.8825 15.7107 16.8C15.3657 15.2025 14.2426 13.8337 12.3882 12.7256C11.1414 11.9756 10.4251 11.0775 10.2339 10.0556C10.1139 9.39375 10.2057 8.73187 10.3782 8.16563C10.5507 7.5975 10.8095 7.1175 11.0307 6.83437L11.7507 5.90812C11.8745 5.745 12.1145 5.745 12.2401 5.90812L15.8645 10.56ZM17.0064 9.63375L12.1782 3.41813C12.0864 3.29812 11.9139 3.29812 11.822 3.41813L6.99387 9.63375L6.97887 9.6525C6.09199 10.815 5.55762 12.2887 5.55762 13.8956C5.55762 17.6344 8.44324 20.6681 12.0001 20.6681C15.557 20.6681 18.4426 17.6344 18.4426 13.8956C18.4426 12.2887 17.9082 10.815 17.0214 9.6525L17.0064 9.63375ZM8.15074 10.5413L8.58199 9.98438L8.59699 10.0856C8.60637 10.1663 8.62137 10.2488 8.63449 10.3294C8.91387 11.8744 9.91137 13.1625 11.582 14.1544C13.0314 15.0244 13.877 16.0219 14.1226 17.1225C14.222 17.5781 14.2426 18.0281 14.1976 18.4219L14.1939 18.4463L14.1751 18.4556C13.5226 18.7913 12.782 18.9844 12.0057 18.9844C9.27762 18.9844 7.06512 16.6613 7.06512 13.7906C7.06137 12.5625 7.46824 11.4338 8.15074 10.5413Z" fill="white"/>
</g>
<defs>
<clipPath id="clip0_1047_1412">
<rect width="24" height="24" fill="white"/>
</clipPath>
</defs>
</svg>
