<svg width="24" height="24" viewBox="0 0 24 24" fill="none" xmlns="http://www.w3.org/2000/svg">
<mask id="mask0_1047_1447" style="mask-type:luminance" maskUnits="userSpaceOnUse" x="2" y="4" width="20" height="19">
<path d="M21.3474 4.04199H2.52637V22.0799H21.3474V4.04199Z" fill="white"/>
</mask>
<g mask="url(#mask0_1047_1447)">
<path d="M19.1748 17.6078C18.9727 20.0078 16.1432 22.0288 11.899 21.9278C7.90741 21.8267 5.10319 20.1594 4.90109 17.7594C4.87583 17.4562 4.90109 17.153 4.92635 16.8246C5.05267 15.8899 5.38109 15.0057 5.86109 14.1973L6.16425 14.3236C6.94741 14.0204 7.75583 13.793 8.58951 13.6415C9.67583 13.4899 10.7874 13.4646 11.8737 13.5404C12.96 13.4646 14.0716 13.4899 15.1579 13.6415C15.9916 13.793 16.8 14.0204 17.5832 14.3236L17.8864 14.1973L18.0885 14.0962C18.5685 14.9046 18.8969 15.7888 19.0737 16.7236C19.1242 17.0015 19.1495 17.3046 19.1242 17.5825" fill="#F4A427"/>
<path d="M19.1748 17.6082C18.9727 19.9829 16.1685 21.9282 11.899 21.9029C7.90741 21.8019 5.10319 20.1345 4.90109 17.7345C4.87583 17.4314 4.90109 17.1282 4.92635 16.7998C5.35583 16.6987 5.7853 16.6987 6.21477 16.7745C7.02319 16.9008 7.47793 17.4061 8.05898 17.6587C8.3874 17.8103 8.71583 17.5577 9.01898 17.2798C9.8274 16.4966 10.9137 16.0419 12.0253 16.0166C13.1621 15.9914 14.0969 16.4461 15.0821 17.3556C15.2842 17.5577 15.5621 17.684 15.84 17.6587C16.0927 17.5829 16.3453 17.4566 16.5474 17.2798C17.3053 16.7745 18.2148 16.5724 19.099 16.6987C19.1748 17.0271 19.2 17.305 19.1748 17.6082Z" fill="white"/>
<path d="M7.4272 11.6966C7.14931 11.9745 6.79562 12.1766 6.41667 12.2524L6.26509 12.2777C6.11352 12.3282 5.96194 12.3535 5.78509 12.3535C5.75983 12.3535 5.70931 12.3535 5.68404 12.3535C5.60825 12.3282 5.5072 12.3029 5.43141 12.2777C5.15352 12.1513 4.90088 11.9998 4.67352 11.7977C4.21878 11.4187 3.78931 10.9892 3.46088 10.484C2.0714 8.46293 2.50087 5.7345 4.42088 4.21872C4.5472 4.14293 4.69878 4.14293 4.79983 4.26924C4.85036 4.34503 4.87562 4.42082 4.85036 4.49661C4.67352 5.30503 4.52194 6.56819 5.27983 7.65451C5.93667 8.56398 7.30088 9.44819 8.13457 9.44819C8.31141 10.4587 8.03352 11.1408 7.4272 11.6966Z" fill="#F79422"/>
<path d="M7.4272 11.6966C7.14931 11.9745 6.79562 12.1766 6.41667 12.2524L6.26509 12.2777C6.11352 12.3282 5.96194 12.3535 5.78509 12.3535C5.75983 12.3535 5.70931 12.3535 5.68404 12.3535C5.60825 12.3282 5.5072 12.3029 5.43141 12.2777C5.15352 12.1513 4.90088 11.9998 4.67352 11.7977C4.21878 11.4187 3.78931 10.9892 3.46088 10.484C2.0714 8.46293 2.50087 5.7345 4.42088 4.21872C4.5472 4.14293 4.69878 4.14293 4.79983 4.26924C4.85036 4.34503 4.87562 4.42082 4.85036 4.49661C4.67352 5.30503 4.52194 6.56819 5.27983 7.6545C5.93667 8.56398 7.30088 9.44819 8.13457 9.44819C8.31141 10.4587 8.03352 11.1408 7.4272 11.6966Z" stroke="#221F1F" stroke-linejoin="round"/>
<path d="M11.0653 8.20996L10.7369 11.4436H10.7116C10.2063 11.5194 9.52423 11.6205 8.58949 11.7721C7.73055 11.8984 6.56844 12.5047 5.88634 12.9089L5.81055 12.3784C5.96213 12.3531 6.13897 12.3279 6.29055 12.3026L6.44213 12.2773C6.82107 12.2015 7.17476 11.9994 7.45265 11.7215C8.0337 11.1405 8.33686 10.4836 8.13476 9.44786L8.23581 9.47312C8.53897 9.1447 8.89265 8.89207 9.29686 8.68996C9.82739 8.3868 10.4337 8.23522 11.0653 8.20996Z" fill="#5A595C"/>
<path d="M11.0653 8.20996L10.7369 11.4436H10.7116C10.2063 11.5194 9.52423 11.6205 8.58949 11.7721C7.73055 11.8984 6.56844 12.5047 5.88634 12.9089L5.81055 12.3784C5.96213 12.3531 6.13897 12.3279 6.29055 12.3026L6.44213 12.2773C6.82107 12.2015 7.17476 11.9994 7.45265 11.7215C8.0337 11.1405 8.33686 10.4836 8.13476 9.44786L8.23581 9.47312C8.53897 9.1447 8.89265 8.89207 9.29686 8.68996C9.82739 8.3868 10.4337 8.23522 11.0653 8.20996Z" stroke="#221F1F" stroke-linejoin="round"/>
<path d="M18.442 14.0209L18.2398 14.122L18.0377 14.223L17.7346 14.3493C16.9514 14.0462 16.143 13.8188 15.3093 13.6672C14.223 13.4651 13.1367 13.3641 12.0251 13.3641C10.9135 13.3641 9.82722 13.4399 8.7409 13.6672C7.90722 13.8188 7.0988 14.0462 6.31564 14.3493C6.21459 14.2988 6.11353 14.2483 6.01248 14.223L5.58301 14.0209C5.60827 13.6672 5.58301 13.4651 5.58301 13.1114C5.6588 13.0609 5.78511 12.9851 5.91143 12.9093L5.93669 12.8841C6.59353 12.4799 7.75564 11.8988 8.61459 11.7472C9.54932 11.5957 10.2062 11.4946 10.7367 11.4188C11.0651 11.3936 11.4188 11.3936 11.7725 11.3936C12.303 11.3936 12.783 11.3936 13.263 11.4188C13.7683 11.4946 14.4504 11.5957 15.4104 11.7472C16.2946 11.8736 17.4567 12.4799 18.1388 12.8841H18.1641C18.2904 12.9599 18.3914 13.0104 18.4672 13.0862C18.442 13.4651 18.4167 13.6672 18.442 14.0209Z" fill="#929497"/>
<path d="M18.442 14.0209L18.2398 14.122L18.0377 14.223L17.7346 14.3493C16.9514 14.0462 16.143 13.8188 15.3093 13.6672C14.223 13.4904 13.1367 13.3893 12.0251 13.3893C10.9135 13.3893 9.82722 13.4651 8.7409 13.6672C7.90722 13.8188 7.0988 14.0462 6.31564 14.3493C6.21459 14.2988 6.11353 14.2483 6.01248 14.223L5.58301 14.0209C5.60827 13.6672 5.58301 13.4651 5.58301 13.1114C5.6588 13.0609 5.78511 12.9851 5.91143 12.9093L5.93669 12.8841C6.59353 12.4799 7.75564 11.8988 8.61459 11.7472C9.54932 11.5957 10.2062 11.4946 10.7367 11.4188C11.0651 11.3936 11.4188 11.3936 11.7725 11.3936C12.303 11.3936 12.783 11.3936 13.263 11.4188C13.7683 11.4946 14.4504 11.5957 15.4104 11.7472C16.2946 11.8736 17.4567 12.4799 18.1388 12.8841H18.1641C18.2904 12.9599 18.3914 13.0104 18.4672 13.0862C18.442 13.4651 18.4167 13.6672 18.442 14.0209Z" stroke="#221F1F" stroke-linecap="round" stroke-linejoin="round"/>
<path d="M13.2382 11.4441C12.7835 11.4188 12.2782 11.3935 11.7477 11.4188C11.394 11.4188 11.0403 11.4441 10.7119 11.4441H10.7372L11.0656 8.21038L11.1414 7.55354C11.394 7.40196 11.6972 7.32617 11.9751 7.32617H12.0256C12.3288 7.32617 12.6067 7.40196 12.8593 7.55354L12.9351 8.21038V8.23565L13.2382 11.4441Z" fill="#929497"/>
<path d="M13.2382 11.4441C12.7835 11.4188 12.2782 11.3935 11.7477 11.4188C11.394 11.4188 11.0403 11.4441 10.7119 11.4441H10.7372L11.0656 8.21038L11.1414 7.55354C11.394 7.40196 11.6972 7.32617 11.9751 7.32617H12.0256C12.3288 7.32617 12.6067 7.40196 12.8593 7.55354L12.9351 8.21038V8.23565L13.2382 11.4441Z" stroke="#221F1F" stroke-linecap="round" stroke-linejoin="round"/>
<path d="M18.2396 14.2477C18.3094 14.2477 18.3659 14.1912 18.3659 14.1214C18.3659 14.0517 18.3094 13.9951 18.2396 13.9951C18.1698 13.9951 18.1133 14.0517 18.1133 14.1214C18.1133 14.1912 18.1698 14.2477 18.2396 14.2477Z" fill="#221F1F"/>
<path d="M19.1749 17.6337C18.9728 20.0337 15.916 21.9537 11.8991 21.9537C7.90753 21.8527 5.10332 20.1853 4.92648 17.7853C4.90122 17.4822 4.92648 17.179 4.95174 16.8506C5.07806 15.9158 5.40648 15.0316 5.88648 14.2232L6.18964 14.3495C6.9728 14.0464 7.78122 13.819 8.6149 13.6674C9.70122 13.4653 10.7875 13.3895 11.8991 13.3643C13.0107 13.3643 14.097 13.4653 15.1833 13.6674C16.017 13.819 16.8254 14.0464 17.6086 14.3495L17.937 14.2232L18.1391 14.1222C18.6191 14.9306 18.9475 15.8148 19.1244 16.7495C19.2002 17.0527 19.2002 17.3558 19.1749 17.6337Z" stroke="#221F1F" stroke-linecap="round" stroke-linejoin="round"/>
<path d="M20.4122 10.4839C20.0585 10.9639 19.6543 11.4186 19.1743 11.7976C18.9469 11.9997 18.6943 12.1513 18.4164 12.2776L18.2901 12.3281L18.2143 12.3534C18.0374 12.4039 17.9364 12.3534 17.608 12.3029L17.4564 12.2776C17.0774 12.2018 16.7238 11.9997 16.4459 11.7218C15.8648 11.1407 15.5617 10.4839 15.7638 9.44811C16.5722 9.47338 17.9617 8.58917 18.6185 7.65443C19.3511 6.56811 19.1995 5.30496 19.0227 4.49653C18.9974 4.34496 19.0732 4.21864 19.2248 4.16811C19.3006 4.14285 19.4017 4.16811 19.4522 4.21864C21.3722 5.73443 21.8017 8.48811 20.4122 10.4839Z" fill="#F79422"/>
<path d="M20.4122 10.4839C20.0585 10.9639 19.6543 11.4186 19.1743 11.7976C18.9469 11.9997 18.6943 12.1513 18.4164 12.2776L18.2901 12.3281L18.2143 12.3534C18.0374 12.4039 17.9364 12.3534 17.608 12.3029L17.4564 12.2776C17.0774 12.2018 16.7238 11.9997 16.4459 11.7218C15.8648 11.1407 15.5617 10.4839 15.7638 9.44811C16.5722 9.47338 17.9617 8.58917 18.6185 7.65443C19.3511 6.56811 19.1995 5.30496 19.0227 4.49653C18.9974 4.34496 19.0732 4.21864 19.2248 4.16811C19.3006 4.14285 19.4017 4.16811 19.4522 4.21864C21.3722 5.73443 21.8017 8.48811 20.4122 10.4839Z" stroke="#221F1F" stroke-linejoin="round"/>
<path d="M18.2144 12.3531L18.1134 12.9089C17.4313 12.5047 16.2692 11.8984 15.385 11.7721C14.425 11.6205 13.7681 11.5194 13.2376 11.4436L12.9092 8.20996C13.4902 8.23522 14.0713 8.41207 14.6018 8.68996C15.006 8.89207 15.3597 9.16996 15.6629 9.47312L15.7639 9.44786C15.5618 10.4584 15.865 11.1405 16.446 11.7215C16.7239 11.9994 17.0776 12.2015 17.4565 12.2773C17.4818 12.2773 17.5829 12.3279 17.6081 12.3279C17.8102 12.4036 18.0123 12.4036 18.2144 12.3531Z" fill="#5A595C"/>
<path d="M18.2144 12.3531L18.1134 12.9089C17.4313 12.5047 16.2692 11.8984 15.385 11.7721C14.425 11.6205 13.7681 11.5194 13.2376 11.4436L12.9092 8.20996C13.4902 8.23522 14.0713 8.41207 14.6018 8.68996C15.006 8.89207 15.3597 9.16996 15.6629 9.47312L15.7639 9.44786C15.5618 10.4584 15.865 11.1405 16.446 11.7215C16.7239 11.9994 17.0776 12.2015 17.4565 12.2773L17.6081 12.3026C17.9365 12.3531 18.0376 12.4036 18.2144 12.3531Z" stroke="#221F1F" stroke-linejoin="round"/>
<path d="M12.9096 8.20996H12.8086" stroke="#221F1F" stroke-linejoin="round"/>
<path d="M18.2396 12.2275C18.4164 12.4296 18.3659 12.7328 18.1638 12.9096C18.1385 12.9349 18.1385 12.9349 18.1133 12.9602" fill="#F79422"/>
<path d="M18.2396 12.2275C18.4164 12.4296 18.3659 12.7328 18.1638 12.9096C18.1385 12.9349 18.1385 12.9349 18.1133 12.9602" stroke="#221F1F" stroke-miterlimit="10"/>
<path d="M5.78487 12.2275C5.60803 12.4296 5.65856 12.7328 5.86066 12.9096C5.88593 12.9349 5.88593 12.9349 5.91119 12.9602" fill="#F79422"/>
<path d="M5.78487 12.2275C5.60803 12.4296 5.65856 12.7328 5.86066 12.9096C5.88593 12.9349 5.88593 12.9349 5.91119 12.9602" stroke="#221F1F" stroke-miterlimit="10"/>
<path d="M11.0654 18.5938C11.2423 18.6444 11.4444 18.6191 11.6212 18.518C11.8991 18.417 12.076 18.1391 12.0507 17.8359C12.0254 18.1391 12.2023 18.417 12.4802 18.518C12.657 18.5938 12.8339 18.6191 13.0107 18.5938" stroke="#171717" stroke-linecap="round" stroke-linejoin="round"/>
<path d="M13.0357 16.9765C13.0357 17.2796 12.581 17.6838 12.0252 17.6838C11.4694 17.6838 11.0146 17.2796 11.0146 16.9765C11.0146 16.6733 11.4694 16.5723 12.0252 16.5723C12.581 16.5723 13.0357 16.6986 13.0357 16.9765Z" fill="#171717"/>
<path d="M12.4293 16.8757C12.4293 16.9515 12.2272 17.0526 11.9998 17.0526C11.7724 17.0526 11.5703 16.9515 11.5703 16.901C11.5703 16.8505 11.7724 16.8505 11.9998 16.8505C12.2272 16.8505 12.4293 16.8 12.4293 16.8757Z" fill="white"/>
<path d="M10.4336 17.8359C10.4083 18.1896 10.6357 18.4928 10.9893 18.5686H11.0651" stroke="#171717" stroke-linecap="round" stroke-linejoin="round"/>
<path d="M12.0508 17.4814C12.0508 17.6078 12.0508 17.7088 12.0508 17.8351" stroke="#171717" stroke-linecap="round" stroke-linejoin="round"/>
<path d="M13.0361 18.593H13.1119C13.4656 18.5172 13.7182 18.214 13.6677 17.8604" stroke="#171717" stroke-linecap="round" stroke-linejoin="round"/>
<path d="M19.4521 4.21875C21.3721 5.73454 21.7764 8.46296 20.3869 10.4588" stroke="#221F1F" stroke-linejoin="round"/>
<path d="M7.4272 11.6966C7.14931 11.9745 6.79562 12.1766 6.41667 12.2524L6.26509 12.2777C6.11352 12.3282 5.96194 12.3535 5.78509 12.3535C5.75983 12.3535 5.70931 12.3535 5.68404 12.3535C5.60825 12.3282 5.5072 12.3029 5.43141 12.2777C5.15352 12.1513 4.90088 11.9998 4.67352 11.7977C4.21878 11.4187 3.78931 10.9892 3.46088 10.484C2.0714 8.46293 2.50087 5.7345 4.42088 4.21872C4.5472 4.14293 4.69878 4.14293 4.79983 4.26924C4.85036 4.34503 4.87562 4.42082 4.85036 4.49661C4.67352 5.30503 4.52194 6.56819 5.27983 7.6545C5.93667 8.56398 7.30088 9.44819 8.13457 9.44819C8.31141 10.4587 8.03352 11.1408 7.4272 11.6966Z" stroke="#221F1F" stroke-linejoin="round"/>
<path d="M10.1811 15.3349C10.1811 15.8907 9.85266 16.3201 9.44845 16.3201C9.04424 16.3201 8.71582 15.8654 8.71582 15.3349C8.71582 14.8549 8.96845 14.4507 9.29687 14.3496L10.1053 14.9559C10.1558 15.0822 10.1811 15.2086 10.1811 15.3349Z" fill="#221F1F"/>
<path d="M9.90272 15.2082C9.90272 15.4103 9.77641 15.5619 9.65009 15.5619C9.52378 15.5619 9.39746 15.4103 9.39746 15.2082C9.39746 15.0061 9.52378 14.8545 9.65009 14.8545C9.77641 14.8545 9.90272 15.0061 9.90272 15.2082Z" fill="white"/>
<path d="M9.29645 16.0924C9.01855 16.3198 8.76592 16.5724 8.53855 16.8503C8.4375 16.9766 8.33645 17.1282 8.26066 17.3051C8.18487 17.4566 8.13434 17.6335 8.10908 17.8103C8.08381 17.8861 8.08381 17.9872 8.08381 18.0629V18.1893V18.3156C8.08381 18.4924 8.08381 18.6693 8.08381 18.8714C8.10908 19.0482 8.13434 19.2503 8.1596 19.4272C8.18487 19.5282 8.18487 19.604 8.21013 19.7051C8.23539 19.7808 8.26066 19.8819 8.31118 19.9577C8.26066 19.8819 8.23539 19.7808 8.18487 19.7051C8.1596 19.6293 8.10908 19.5282 8.08381 19.4524C8.03329 19.2756 7.98276 19.0987 7.93224 18.8966C7.90697 18.7198 7.88171 18.5177 7.85645 18.3408V18.2145V18.0629C7.85645 17.9619 7.85645 17.8608 7.85645 17.7851C7.88171 17.5829 7.90697 17.3808 7.98276 17.204C8.05855 17.0272 8.13434 16.8503 8.23539 16.6735C8.46276 16.3451 8.69013 16.0419 8.96802 15.7893C9.06908 15.7135 9.19539 15.7135 9.29645 15.7893C9.37223 15.8398 9.3975 15.9914 9.29645 16.0924Z" fill="#221F1F"/>
<path d="M9.12011 16.0163C9.09485 16.0163 9.09485 16.0163 9.06958 16.0163H9.04432H8.9938L8.86748 15.991C8.79169 15.9657 8.7159 15.9657 8.64011 15.9657C8.48853 15.9657 8.31169 15.9657 8.16011 16.0163C8.08432 16.0415 8.00853 16.0668 7.93274 16.092C7.70537 16.1931 7.50327 16.3699 7.37695 16.572C7.45274 16.3952 7.52853 16.2436 7.65485 16.1173C7.70537 16.0415 7.78116 15.991 7.85695 15.9405C7.93274 15.8899 8.00853 15.8394 8.08432 15.7889C8.2359 15.6878 8.41274 15.6373 8.61485 15.5868C8.7159 15.5615 8.79169 15.5615 8.89274 15.5615C8.94327 15.5615 8.9938 15.5615 9.04432 15.5615H9.14537C9.27169 15.5615 9.37274 15.6626 9.39801 15.7889C9.42327 15.9152 9.27169 16.0163 9.12011 16.0163Z" fill="#221F1F"/>
<path d="M15.3599 15.3349C15.3599 15.8907 15.0315 16.3201 14.6526 16.3201C14.2736 16.3201 13.9199 15.8654 13.9199 15.3349C13.9199 15.2086 13.9452 15.0822 13.9704 14.9559L14.7789 14.3496C15.1073 14.4507 15.3599 14.8549 15.3599 15.3349Z" fill="#221F1F"/>
<path d="M14.1729 15.2082C14.1729 15.4103 14.2992 15.5619 14.4255 15.5619C14.5518 15.5619 14.6781 15.4103 14.6781 15.2082C14.6781 15.0061 14.5518 14.8545 14.4255 14.8545C14.2992 14.8545 14.1729 15.0061 14.1729 15.2082Z" fill="white"/>
<path d="M15.1075 15.739C15.3854 16.0169 15.6127 16.2948 15.8148 16.6232C15.9159 16.7748 16.0169 16.9516 16.0927 17.1285C16.1685 17.3053 16.219 17.5074 16.2443 17.6843C16.2696 17.8864 16.2696 18.0632 16.2443 18.2653C16.219 18.4422 16.1938 18.6443 16.1685 18.8211C16.1433 18.9979 16.0927 19.1748 16.0422 19.3516C16.0169 19.4274 15.9917 19.5285 15.9411 19.6043C15.9159 19.68 15.8654 19.7811 15.8148 19.8569C15.8401 19.7811 15.8906 19.68 15.9159 19.6043C15.9411 19.5285 15.9664 19.4274 15.9917 19.3516C16.0169 19.1748 16.0675 18.9979 16.0675 18.8211C16.0927 18.6443 16.0927 18.4674 16.0927 18.2653C16.0927 18.0885 16.0675 17.9116 16.0422 17.7348C15.9917 17.5579 15.9411 17.4064 15.8654 17.2548C15.7896 17.1032 15.6885 16.9516 15.5622 16.8253C15.3348 16.5474 15.0822 16.2948 14.8043 16.0674C14.7033 15.9664 14.7033 15.84 14.8043 15.739C14.8801 15.6632 15.0064 15.6379 15.1075 15.7137V15.739Z" fill="#221F1F"/>
<path d="M14.9559 15.5622H15.0822C15.1327 15.5622 15.1832 15.5622 15.2338 15.5622C15.3348 15.5622 15.4359 15.5622 15.5369 15.5875C15.739 15.6128 15.9159 15.6633 16.0927 15.7391C16.2696 15.8149 16.4211 15.9412 16.5727 16.0675C16.699 16.1938 16.8001 16.3707 16.8759 16.5222C16.7748 16.3707 16.6485 16.2444 16.4969 16.1433C16.3453 16.0422 16.1938 15.9665 16.0169 15.9412C15.8401 15.9159 15.6632 15.9159 15.4864 15.9159C15.4106 15.9159 15.3096 15.9412 15.2338 15.9412L15.1075 15.9665H15.0569H15.0317H15.0064H14.9811C14.8548 15.9917 14.7285 15.8907 14.7285 15.7644C14.7032 15.638 14.8043 15.5117 14.9306 15.5117C14.9559 15.5117 14.9559 15.5117 14.9811 15.5117" fill="#221F1F"/>
</g>
</svg>
