<svg width="17" height="16" viewBox="0 0 17 16" fill="none" xmlns="http://www.w3.org/2000/svg">
<g clip-path="url(#clip0_224_110)">
<path fill-rule="evenodd" clip-rule="evenodd" d="M8.7749 0C13.1935 0 16.7749 3.58141 16.7749 8C16.7749 12.4186 13.1935 16 8.7749 16C4.35631 16 0.774902 12.4186 0.774902 8C0.774902 3.58141 4.35631 0 8.7749 0Z" fill="#F0B90B"/>
<path d="M5.17167 7.99999L5.17744 10.1154L6.97488 11.1731V12.4115L4.12552 10.7404V7.38141L5.17167 7.99999ZM5.17167 5.88461V7.1173L4.12488 6.49807V5.26538L5.17167 4.64615L6.2236 5.26538L5.17167 5.88461ZM7.72552 5.26538L8.77231 4.64615L9.82424 5.26538L8.77231 5.88461L7.72552 5.26538Z" fill="white"/>
<path d="M5.9281 9.67692V8.43846L6.9749 9.05769V10.2904L5.9281 9.67692ZM7.72554 11.6167L8.77233 12.2359L9.82425 11.6167V12.8494L8.77233 13.4686L7.72554 12.8494V11.6167ZM11.3255 5.26538L12.3723 4.64615L13.4243 5.26538V6.49807L12.3723 7.1173V5.88461L11.3255 5.26538ZM12.3723 10.1154L12.3781 7.99999L13.4249 7.38076V10.7397L10.5755 12.4109V11.1724L12.3723 10.1154Z" fill="white"/>
<path d="M11.6217 9.67692L10.575 10.2904V9.05769L11.6217 8.43846V9.67692Z" fill="white"/>
<path d="M11.6217 6.32307L11.6275 7.56153L9.8249 8.61922V10.7397L8.7781 11.3532L7.73131 10.7397V8.61922L5.92874 7.56153V6.32307L6.98002 5.70384L8.77169 6.76666L10.5743 5.70384L11.6262 6.32307H11.6217ZM5.9281 4.20833L8.77233 2.5314L11.6217 4.20833L10.5749 4.82756L8.77233 3.76474L6.9749 4.82756L5.9281 4.20833Z" fill="white"/>
</g>
<defs>
<clipPath id="clip0_224_110">
<rect width="16" height="16" fill="white" transform="translate(0.774902)"/>
</clipPath>
</defs>
</svg>
