<svg width="19" height="18" viewBox="0 0 19 18" fill="none" xmlns="http://www.w3.org/2000/svg">
<path d="M9.77488 6C10.5705 6 11.3336 6.31607 11.8962 6.87868C12.4588 7.44129 12.7749 8.20435 12.7749 9C12.7749 9.79565 12.4588 10.5587 11.8962 11.1213C11.3336 11.6839 10.5705 12 9.77488 12C8.97923 12 8.21617 11.6839 7.65356 11.1213C7.09095 10.5587 6.77488 9.79565 6.77488 9C6.77488 8.20435 7.09095 7.44129 7.65356 6.87868C8.21617 6.31607 8.97923 6 9.77488 6ZM9.77488 7.5C9.37706 7.5 8.99553 7.65804 8.71422 7.93934C8.43292 8.22064 8.27488 8.60218 8.27488 9C8.27488 9.39782 8.43292 9.77936 8.71422 10.0607C8.99553 10.342 9.37706 10.5 9.77488 10.5C10.1727 10.5 10.5542 10.342 10.8355 10.0607C11.1168 9.77936 11.2749 9.39782 11.2749 9C11.2749 8.60218 11.1168 8.22064 10.8355 7.93934C10.5542 7.65804 10.1727 7.5 9.77488 7.5ZM8.27488 16.5C8.08738 16.5 7.92988 16.365 7.89988 16.185L7.62238 14.1975C7.14988 14.01 6.74488 13.755 6.35488 13.455L4.48738 14.2125C4.32238 14.2725 4.11988 14.2125 4.02988 14.0475L2.52988 11.4525C2.48398 11.3752 2.4678 11.2839 2.48436 11.1955C2.50093 11.1072 2.5491 11.0279 2.61988 10.9725L4.20238 9.7275L4.14988 9L4.20238 8.25L2.61988 7.0275C2.5491 6.9721 2.50093 6.89282 2.48436 6.80447C2.4678 6.71613 2.48398 6.62478 2.52988 6.5475L4.02988 3.9525C4.11988 3.7875 4.32238 3.72 4.48738 3.7875L6.35488 4.5375C6.74488 4.245 7.14988 3.99 7.62238 3.8025L7.89988 1.815C7.92988 1.635 8.08738 1.5 8.27488 1.5H11.2749C11.4624 1.5 11.6199 1.635 11.6499 1.815L11.9274 3.8025C12.3999 3.99 12.8049 4.245 13.1949 4.5375L15.0624 3.7875C15.2274 3.72 15.4299 3.7875 15.5199 3.9525L17.0199 6.5475C17.1174 6.7125 17.0724 6.915 16.9299 7.0275L15.3474 8.25L15.3999 9L15.3474 9.75L16.9299 10.9725C17.0724 11.085 17.1174 11.2875 17.0199 11.4525L15.5199 14.0475C15.4299 14.2125 15.2274 14.28 15.0624 14.2125L13.1949 13.4625C12.8049 13.755 12.3999 14.01 11.9274 14.1975L11.6499 16.185C11.6199 16.365 11.4624 16.5 11.2749 16.5H8.27488ZM9.21238 3L8.93488 4.9575C8.03488 5.145 7.23988 5.625 6.66238 6.2925L4.85488 5.5125L4.29238 6.4875L5.87488 7.65C5.57488 8.525 5.57488 9.475 5.87488 10.35L4.28488 11.52L4.84738 12.495L6.66988 11.715C7.24738 12.375 8.03488 12.855 8.92738 13.035L9.20488 15H10.3449L10.6224 13.0425C11.5149 12.855 12.3024 12.375 12.8799 11.715L14.7024 12.495L15.2649 11.52L13.6749 10.3575C13.9749 9.48 13.9749 8.5275 13.6749 7.65L15.2574 6.4875L14.6949 5.5125L12.8874 6.2925C12.298 5.61024 11.4986 5.14326 10.6149 4.965L10.3374 3H9.21238Z" fill="#594DC5"/>
</svg>
