<svg width="56" height="56" viewBox="0 0 56 56" fill="none" xmlns="http://www.w3.org/2000/svg">
<path d="M43.3999 9.33325H7.93325C6.44804 9.33325 5.02366 9.92325 3.97345 10.9735C2.92325 12.0237 2.33325 13.448 2.33325 14.9333V41.0666C2.33325 42.5518 2.92325 43.9762 3.97345 45.0264C5.02366 46.0766 6.44804 46.6666 7.93325 46.6666H43.3999C44.8851 46.6666 46.3095 46.0766 47.3597 45.0264C48.4099 43.9762 48.9999 42.5518 48.9999 41.0666V34.9999H39.6666C38.4289 34.9999 37.2419 34.5083 36.3667 33.6331C35.4916 32.7579 34.9999 31.5709 34.9999 30.3333V25.6666C34.9999 24.4289 35.4916 23.2419 36.3667 22.3668C37.2419 21.4916 38.4289 20.9999 39.6666 20.9999H48.9999V14.9333C48.9999 13.448 48.4099 12.0237 47.3597 10.9735C46.3095 9.92325 44.8851 9.33325 43.3999 9.33325Z" fill="#141414" fill-opacity="0.12"/>
<path d="M48.9999 20.9999V14.9333C48.9999 11.8416 46.9466 9.33325 44.4173 9.33325H6.91592C4.38425 9.33325 2.33325 11.8416 2.33325 14.9333V41.0666C2.33325 44.1583 4.38659 46.6666 6.91592 46.6666H44.4173C46.9489 46.6666 48.9999 44.1583 48.9999 41.0666V34.9999M46.6666 27.9999H46.6899H46.6666ZM38.7333 20.9999H49.9333C50.9234 20.9999 51.873 21.3933 52.5731 22.0934C53.2733 22.7935 53.6666 23.7431 53.6666 24.7333V31.2666C53.6666 32.2567 53.2733 33.2063 52.5731 33.9065C51.873 34.6066 50.9234 34.9999 49.9333 34.9999H38.7333C37.7431 34.9999 36.7935 34.6066 36.0934 33.9065C35.3933 33.2063 34.9999 32.2567 34.9999 31.2666V24.7333C34.9999 23.7431 35.3933 22.7935 36.0934 22.0934C36.7935 21.3933 37.7431 20.9999 38.7333 20.9999Z" fill="#141414" fill-opacity="0.12"/>
<path d="M48.9999 20.9999V14.9333C48.9999 11.8416 46.9466 9.33325 44.4173 9.33325H6.91592C4.38425 9.33325 2.33325 11.8416 2.33325 14.9333V41.0666C2.33325 44.1583 4.38659 46.6666 6.91592 46.6666H44.4173C46.9489 46.6666 48.9999 44.1583 48.9999 41.0666V34.9999M46.6666 27.9999H46.6899M38.7333 20.9999H49.9333C50.9234 20.9999 51.873 21.3933 52.5731 22.0934C53.2733 22.7935 53.6666 23.7431 53.6666 24.7333V31.2666C53.6666 32.2567 53.2733 33.2063 52.5731 33.9065C51.873 34.6066 50.9234 34.9999 49.9333 34.9999H38.7333C37.7431 34.9999 36.7935 34.6066 36.0934 33.9065C35.3933 33.2063 34.9999 32.2567 34.9999 31.2666V24.7333C34.9999 23.7431 35.3933 22.7935 36.0934 22.0934C36.7935 21.3933 37.7431 20.9999 38.7333 20.9999Z" stroke="#5C5C5E" stroke-width="1.5" stroke-linecap="round" stroke-linejoin="round"/>
</svg>
