<svg width="28" height="28" viewBox="0 0 28 28" fill="none" xmlns="http://www.w3.org/2000/svg">
<path d="M18.0041 0.718018C18.3494 0.718018 18.7828 0.808685 19.1308 0.894018C20.3441 1.18735 21.7828 1.55135 22.8041 2.31802C23.7548 3.03135 24.4934 4.27535 25.0641 5.53935C26.2508 8.17268 27.0761 11.6834 27.3614 14.3527C27.4974 15.6194 27.5308 16.894 27.2868 17.7514C27.1668 18.1727 26.9068 18.49 26.7241 18.6847C26.1668 19.2754 25.4494 19.7167 24.7401 20.118L24.3881 20.3167C24.1563 20.4457 23.9229 20.5719 23.6881 20.6954L22.9921 21.0554L22.0361 21.5314L21.2668 21.91C20.9852 22.051 20.6629 22.0879 20.3568 22.014C20.0507 21.9401 19.7806 21.7603 19.5944 21.5064C19.4082 21.2524 19.3179 20.9408 19.3394 20.6267C19.361 20.3125 19.493 20.0161 19.7121 19.79L19.1334 18.6327C17.4697 19.1395 15.7392 19.393 14.0001 19.3847C12.1734 19.3847 10.4308 19.118 8.86677 18.6327L8.28943 19.7874C8.50938 20.0131 8.64224 20.3095 8.66445 20.6238C8.68666 20.9382 8.59677 21.2503 8.41075 21.5048C8.22473 21.7592 7.95459 21.9395 7.64827 22.0137C7.34195 22.0879 7.01925 22.0511 6.73743 21.91L6.0121 21.55C5.20677 21.1527 4.40143 20.7554 3.61743 20.3167C2.79877 19.8594 1.93077 19.3727 1.28143 18.6834C1.02243 18.4213 0.829553 18.1014 0.718767 17.75C0.473434 16.894 0.5081 15.6207 0.642767 14.3527C0.9281 11.6834 1.75343 8.17268 2.94143 5.53935C3.51077 4.27535 4.24943 3.03135 5.2001 2.31802C6.22143 1.55135 7.6601 1.18735 8.87343 0.894018C9.22143 0.808685 9.65343 0.718018 10.0001 0.718018C10.1919 0.717853 10.3814 0.759052 10.5558 0.838806C10.7302 0.918559 10.8853 1.03499 11.0106 1.18016C11.1359 1.32532 11.2284 1.49581 11.2818 1.67998C11.3352 1.86415 11.3483 2.05767 11.3201 2.24735C12.2076 2.11772 13.1032 2.05222 14.0001 2.05135C14.9214 2.05135 15.8214 2.11802 16.6854 2.24868C16.657 2.05891 16.6699 1.86524 16.7232 1.6809C16.7766 1.49657 16.869 1.32591 16.9944 1.18059C17.1197 1.03527 17.2749 0.918716 17.4494 0.838884C17.6239 0.759051 17.8122 0.717824 18.0041 0.718018ZM19.8094 3.86868C19.6094 3.80468 19.5614 3.83268 19.4894 3.95268L19.4068 4.10202C19.1913 4.47143 18.864 4.76291 18.4723 4.93448C18.0805 5.10604 17.6444 5.14883 17.2268 5.05668C16.1664 4.829 15.0847 4.71547 14.0001 4.71802C12.8641 4.71802 11.7774 4.83802 10.7734 5.05668C10.3558 5.14883 9.91968 5.10604 9.52792 4.93448C9.13615 4.76291 8.80895 4.47143 8.59343 4.10202L8.51077 3.95402C8.4401 3.83402 8.3921 3.80602 8.19343 3.86868C7.71877 4.01935 7.20943 4.18069 6.8001 4.45135C6.41743 4.73802 5.90677 5.45135 5.3721 6.63668C4.35077 8.89935 3.55077 12.242 3.29477 14.6367C3.24143 15.1434 3.2121 15.5754 3.20677 15.9327V16.3247C3.21299 16.562 3.22854 16.7496 3.25343 16.8874C3.5921 17.218 4.01077 17.478 4.43077 17.7167L5.3401 18.2194L5.93477 18.5327L6.4201 17.562C6.18512 17.3431 6.03707 17.0467 6.00317 16.7273C5.96926 16.4079 6.05177 16.087 6.23554 15.8236C6.4193 15.5602 6.69197 15.372 7.00342 15.2936C7.31487 15.2151 7.64416 15.2517 7.93077 15.3967C9.5521 16.2114 11.6614 16.718 14.0001 16.718C16.3388 16.718 18.4481 16.2087 20.0694 15.398C20.3438 15.2606 20.6572 15.222 20.9567 15.2887C21.2562 15.3555 21.5235 15.5235 21.7136 15.7644C21.9036 16.0054 22.0047 16.3045 21.9998 16.6113C21.9949 16.9182 21.8844 17.2139 21.6868 17.4487L21.5801 17.562L22.0654 18.5354C22.4628 18.3282 22.8614 18.1136 23.2614 17.8913C23.7814 17.6033 24.3281 17.3007 24.7508 16.8874C24.7748 16.7496 24.7903 16.562 24.7974 16.3247V15.9327C24.7873 15.4992 24.7579 15.0663 24.7094 14.6354C24.4534 12.242 23.6534 8.89935 22.6321 6.63535C22.0988 5.45135 21.5868 4.73802 21.2054 4.45135C20.7948 4.18069 20.2854 4.01935 19.8094 3.86868ZM9.66677 9.38468C10.2856 9.38468 10.8791 9.63052 11.3167 10.0681C11.7543 10.5057 12.0001 11.0992 12.0001 11.718C12.0001 12.3369 11.7543 12.9303 11.3167 13.3679C10.8791 13.8055 10.2856 14.0514 9.66677 14.0514C9.04793 14.0514 8.45444 13.8055 8.01685 13.3679C7.57927 12.9303 7.33343 12.3369 7.33343 11.718C7.33343 11.0992 7.57927 10.5057 8.01685 10.0681C8.45444 9.63052 9.04793 9.38468 9.66677 9.38468ZM18.3334 9.38468C18.9523 9.38468 19.5458 9.63052 19.9833 10.0681C20.4209 10.5057 20.6668 11.0992 20.6668 11.718C20.6668 12.3369 20.4209 12.9303 19.9833 13.3679C19.5458 13.8055 18.9523 14.0514 18.3334 14.0514C17.7146 14.0514 17.1211 13.8055 16.6835 13.3679C16.2459 12.9303 16.0001 12.3369 16.0001 11.718C16.0001 11.0992 16.2459 10.5057 16.6835 10.0681C17.1211 9.63052 17.7146 9.38468 18.3334 9.38468Z" fill="#F5F5F7"/>
</svg>
