<svg width="24" height="25" viewBox="0 0 24 25" fill="none" xmlns="http://www.w3.org/2000/svg">
<path d="M4.21067 1.7181H19.7893C21.3787 1.7181 22.6667 3.0061 22.6667 4.59543V9.2021C21.8558 9.41374 21.1357 9.88307 20.6147 10.5394C19.9853 11.3208 19.604 12.3754 19.5107 13.5608C19.4911 13.7972 19.4836 14.0337 19.488 14.2701C19.5427 16.6208 20.6613 18.5581 22.6667 19.0034V20.1741C22.666 20.937 22.3626 21.6684 21.8231 22.2079C21.2837 22.7474 20.5522 23.0507 19.7893 23.0514H4.21067C3.44777 23.0507 2.71632 22.7474 2.17686 22.2079C1.63741 21.6684 1.33404 20.937 1.33333 20.1741V4.59543C1.33333 3.0061 2.62133 1.7181 4.21067 1.7181ZM24 4.59543C23.9993 3.47891 23.5554 2.40832 22.7659 1.61882C21.9764 0.829321 20.9059 0.385472 19.7893 0.384766H4.21067C3.09415 0.385472 2.02356 0.829321 1.23406 1.61882C0.444556 2.40832 0.000706436 3.47891 0 4.59543V20.1741C0.000706436 21.2906 0.444556 22.3612 1.23406 23.1507C2.02356 23.9402 3.09415 24.3841 4.21067 24.3848H19.7893C20.9059 24.3841 21.9764 23.9402 22.7659 23.1507C23.5554 22.3612 23.9993 21.2906 24 20.1741V4.59543ZM22.6667 10.1154V12.7594H21.8453C21.8973 11.6034 22.1827 10.6528 22.6667 10.1154ZM22.6667 13.2674V16.0181C22.0787 15.3341 21.7347 14.3514 21.796 13.2674H22.6667ZM19.596 6.1181L19.616 6.1141V5.96743H15.7493L12.1627 14.4021L8.57333 5.96743H4.408V6.1141L4.42667 6.1181C5.132 6.2781 5.49067 6.51543 5.49067 7.37143V17.3981C5.49067 18.2541 5.13067 18.4914 4.424 18.6514L4.40667 18.6541V18.8008H7.23333V18.6541L7.21333 18.6514C6.508 18.4914 6.14933 18.2541 6.14933 17.3981V7.95277L10.76 18.8021H11.0213L15.7667 7.6501V17.6448C15.7053 18.3221 15.3507 18.5314 14.712 18.6754L14.6933 18.6794V18.8248H19.616V18.6781L19.596 18.6754C18.956 18.5314 18.5933 18.3221 18.5333 17.6448L18.5293 7.37143H18.5333C18.5333 6.51543 18.892 6.2781 19.596 6.1181Z" fill="#F5F5F7"/>
</svg>
