<svg width="8" height="12" viewBox="0 0 8 12" fill="none" xmlns="http://www.w3.org/2000/svg">
<path d="M6.8598 7.52663L3.9998 10.3933L1.1398 7.52663C1.01426 7.40109 0.843999 7.33057 0.666465 7.33057C0.48893 7.33057 0.318667 7.40109 0.193131 7.52663C0.0675956 7.65216 -0.00292969 7.82242 -0.00292969 7.99996C-0.00292969 8.17749 0.0675956 8.34776 0.193131 8.47329L3.52647 11.8066C3.58844 11.8691 3.66217 11.9187 3.74341 11.9526C3.82465 11.9864 3.91179 12.0038 3.9998 12.0038C4.08781 12.0038 4.17494 11.9864 4.25618 11.9526C4.33742 11.9187 4.41116 11.8691 4.47313 11.8066L7.80646 8.47329C7.86862 8.41113 7.91793 8.33734 7.95157 8.25613C7.98521 8.17491 8.00253 8.08787 8.00253 7.99996C8.00253 7.91205 7.98521 7.82501 7.95157 7.74379C7.91793 7.66258 7.86862 7.58879 7.80646 7.52663C7.74431 7.46447 7.67051 7.41516 7.5893 7.38152C7.50808 7.34788 7.42104 7.33057 7.33313 7.33057C7.24523 7.33057 7.15818 7.34788 7.07697 7.38152C6.99575 7.41516 6.92196 7.46447 6.8598 7.52663ZM1.1398 4.47329L3.9998 1.60663L6.8598 4.47329C6.92177 4.53578 6.99551 4.58537 7.07675 4.61922C7.15799 4.65307 7.24512 4.67049 7.33313 4.67049C7.42114 4.67049 7.50828 4.65307 7.58952 4.61922C7.67076 4.58537 7.74449 4.53578 7.80646 4.47329C7.86895 4.41132 7.91855 4.33758 7.95239 4.25634C7.98624 4.1751 8.00366 4.08797 8.00366 3.99996C8.00366 3.91195 7.98624 3.82481 7.95239 3.74357C7.91855 3.66234 7.86895 3.5886 7.80646 3.52663L4.47313 0.193293C4.41116 0.130807 4.33742 0.0812108 4.25618 0.047365C4.17494 0.0135192 4.08781 -0.00390625 3.9998 -0.00390625C3.91179 -0.00390625 3.82465 0.0135192 3.74341 0.047365C3.66217 0.0812108 3.58844 0.130807 3.52647 0.193293L0.193131 3.52663C0.130972 3.58879 0.0816654 3.66258 0.0480251 3.74379C0.0143849 3.82501 -0.00292969 3.91205 -0.00292969 3.99996C-0.00292969 4.17749 0.0675956 4.34776 0.193131 4.47329C0.318667 4.59883 0.48893 4.66935 0.666465 4.66935C0.843999 4.66935 1.01426 4.59883 1.1398 4.47329Z" fill="#C2C2C6"/>
</svg>
