<svg width="15" height="14" viewBox="0 0 15 14" fill="none" xmlns="http://www.w3.org/2000/svg">
<path d="M7.02495 1.75098C4.89642 1.7548 3.78181 1.80706 3.06949 2.51936C2.30078 3.28805 2.30078 4.52524 2.30078 6.99959C2.30078 9.47397 2.30078 10.7112 3.06949 11.4798C3.8382 12.2485 5.07542 12.2485 7.54989 12.2485C10.0243 12.2485 11.2615 12.2485 12.0302 11.4798C12.7425 10.7676 12.7948 9.653 12.7987 7.52453" stroke="#776AE6" stroke-width="1.5" stroke-linecap="round" stroke-linejoin="round"/>
<path d="M12.4969 2.05205L9.25977 5.28021M12.4969 2.05205C12.2087 1.76359 10.2676 1.79048 9.85722 1.79631M12.4969 2.05205C12.785 2.34052 12.7581 4.28376 12.7523 4.69457" stroke="#776AE6" stroke-width="1.5" stroke-linecap="round" stroke-linejoin="round"/>
</svg>
