<svg width="33" height="32" viewBox="0 0 33 32" fill="none" xmlns="http://www.w3.org/2000/svg">
<g clip-path="url(#clip0_394_7825)">
<mask id="mask0_394_7825" style="mask-type:luminance" maskUnits="userSpaceOnUse" x="0" y="0" width="33" height="32">
<path d="M32.7419 0H0.741943V32H32.7419V0Z" fill="white"/>
</mask>
<g mask="url(#mask0_394_7825)">
<path d="M16.7419 32C25.5785 32 32.7419 24.8366 32.7419 16C32.7419 7.16344 25.5785 0 16.7419 0C7.90538 0 0.741943 7.16344 0.741943 16C0.741943 24.8366 7.90538 32 16.7419 32Z" fill="#4B00FF"/>
<path d="M13.74 27.1256C13.74 27.5047 13.446 27.7214 13.0823 27.6053C8.24678 26.0579 4.74194 21.5241 4.74194 16.1701C4.74194 10.8162 8.24678 6.28233 13.0901 4.73495C13.4537 4.61889 13.7477 4.83553 13.7477 5.21464V6.14307C13.7477 6.39839 13.5543 6.68465 13.3144 6.76976C9.48469 8.17788 6.73807 11.8607 6.73807 16.1701C6.73807 20.4796 9.47695 24.1624 13.3067 25.5628C13.5465 25.6479 13.74 25.9419 13.74 26.1972V27.1256Z" fill="white"/>
<path d="M17.7483 23.6672C17.7483 23.9458 17.5239 24.1701 17.2454 24.1701H16.2472C15.9687 24.1701 15.7444 23.9458 15.7444 23.6672V22.0889C13.5626 21.7949 12.4949 20.5725 12.2009 18.909C12.1544 18.6228 12.3788 18.3675 12.6651 18.3675H13.8025C14.0423 18.3675 14.2435 18.5377 14.2899 18.7698C14.4988 19.7601 15.0791 20.5261 16.8198 20.5261C18.1118 20.5261 19.0248 19.8065 19.0248 18.7311C19.0248 17.6479 18.4833 17.2456 16.5878 16.9361C13.7948 16.557 12.4717 15.706 12.4717 13.5164C12.4717 11.822 13.7561 10.5068 15.7367 10.2205V8.67313C15.7367 8.3946 15.961 8.17023 16.2395 8.17023H17.2377C17.5162 8.17023 17.7406 8.3946 17.7406 8.67313V10.2669C19.3498 10.5532 20.3787 11.4661 20.7114 12.9903C20.7733 13.2766 20.549 13.5474 20.255 13.5474H19.2028C18.9785 13.5474 18.785 13.3926 18.7231 13.176C18.4369 12.2089 17.7483 11.7911 16.5491 11.7911C15.2261 11.7911 14.5374 12.4255 14.5374 13.3307C14.5374 14.2824 14.9321 14.7543 16.9591 15.0483C19.7057 15.4274 21.1293 16.2089 21.1293 18.5454C21.1293 20.3249 19.814 21.764 17.7406 22.0889L17.7483 23.6672Z" fill="white"/>
<path d="M20.402 27.6053C20.0384 27.7214 19.7444 27.5047 19.7444 27.1256V26.1895C19.7444 25.9109 19.9146 25.6556 20.1777 25.555C24.0074 24.1546 26.7463 20.4719 26.7463 16.1624C26.7463 11.8529 24.0074 8.17014 20.1777 6.76976C19.9378 6.68465 19.7444 6.39065 19.7444 6.14307V5.21464C19.7444 4.83553 20.0384 4.61889 20.402 4.73495C25.2453 6.28233 28.7502 10.8162 28.7502 16.1701C28.7424 21.5241 25.2376 26.0579 20.402 27.6053Z" fill="white"/>
</g>
</g>
<defs>
<clipPath id="clip0_394_7825">
<rect width="32" height="32" fill="white" transform="translate(0.741943)"/>
</clipPath>
</defs>
</svg>
