<svg width="33" height="32" viewBox="0 0 33 32" fill="none" xmlns="http://www.w3.org/2000/svg">
<g clip-path="url(#clip0_394_7948)">
<mask id="mask0_394_7948" style="mask-type:luminance" maskUnits="userSpaceOnUse" x="0" y="0" width="33" height="32">
<path d="M32.7419 0H0.741943V32H32.7419V0Z" fill="white"/>
</mask>
<g mask="url(#mask0_394_7948)">
<path d="M16.7842 31.7696C25.5784 31.7696 32.7075 24.6972 32.7075 15.9728C32.7075 7.24851 25.5784 0.176025 16.7842 0.176025C7.99014 0.176025 0.861084 7.24851 0.861084 15.9728C0.861084 24.6972 7.99014 31.7696 16.7842 31.7696Z" fill="white" fill-opacity="0.06"/>
<path d="M18.4816 17.4307V17.4282C18.3716 17.4358 17.8032 17.4688 16.5386 17.4688C15.5274 17.4688 14.8183 17.4409 14.5674 17.4282V17.4307C10.6788 17.2605 7.7783 16.5901 7.7783 15.785C7.7783 14.9824 10.6813 14.3094 14.5674 14.1393V16.7628C14.8208 16.7805 15.5504 16.8237 16.5565 16.8237C17.7648 16.8237 18.369 16.7729 18.4816 16.7628V14.1418C22.3626 14.3145 25.2554 14.985 25.2554 15.7875C25.2554 16.5901 22.36 17.2605 18.4816 17.4332M18.4816 13.8701V11.5234H23.896V7.94495H9.15558V11.5234H14.5699V13.8701C10.1693 14.0707 6.86182 14.9342 6.86182 15.9704C6.86182 17.0066 10.1719 17.8701 14.5699 18.0732V25.5958H18.4842V18.0732C22.8772 17.8726 26.1796 17.0091 26.1796 15.9729C26.1796 14.9393 22.8772 14.0732 18.4842 13.8726" fill="white"/>
</g>
</g>
<defs>
<clipPath id="clip0_394_7948">
<rect width="32" height="32" fill="white" transform="translate(0.741943)"/>
</clipPath>
</defs>
</svg>
